GeoramaCondensed-Medium.ufo
<glyph name="exclam" format="2">
  <advance width="171.804"/>
  <unicode hex="0021"/>
  <outline>
    <contour>
      <point x="45.157000000000004" y="261.85" type="line"/>
      <point x="126.17399999999999" y="261.85" type="line"/>
      <point x="133.226" y="740.0" type="line"/>
      <point x="39.266" y="740.0" type="line"/>
    </contour>
    <contour>
      <point x="34.751" y="55.528000000000006" type="curve" smooth="yes"/>
      <point x="34.751" y="12.997"/>
      <point x="48.149" y="-4.343"/>
      <point x="85.902" y="-4.343" type="curve" smooth="yes"/>
      <point x="124.225" y="-4.343"/>
      <point x="137.05300000000003" y="12.997"/>
      <point x="137.05300000000003" y="55.528000000000006" type="curve" smooth="yes"/>
      <point x="137.05300000000003" y="98.48899999999999"/>
      <point x="124.225" y="115.829"/>
      <point x="85.902" y="115.829" type="curve" smooth="yes"/>
      <point x="47.579" y="115.829"/>
      <point x="34.751" y="98.48899999999999"/>
    </contour>
  </outline>
</glyph>
<glyph name="numbersign" format="2">
  <advance width="394.878"/>
  <unicode hex="0023"/>
  <outline>
    <contour>
      <point x="45.066" y="443.371" type="line"/>
      <point x="100.218" y="443.371" type="line"/>
      <point x="76.789" y="251.916" type="line"/>
      <point x="23.662" y="251.916" type="line"/>
      <point x="23.662" y="172.131" type="line"/>
      <point x="70.691" y="172.131" type="line"/>
      <point x="51.459" y="0.0" type="line"/>
      <point x="124.564" y="0.0" type="line"/>
      <point x="143.79600000000002" y="172.131" type="line"/>
      <point x="216.158" y="172.131" type="line"/>
      <point x="196.926" y="0.0" type="line"/>
      <point x="270.031" y="0.0" type="line"/>
      <point x="289.263" y="172.131" type="line"/>
      <point x="349.85499999999996" y="172.131" type="line"/>
      <point x="349.85499999999996" y="251.916" type="line"/>
      <point x="295.361" y="251.916" type="line"/>
      <point x="318.78999999999996" y="443.371" type="line"/>
      <point x="371.259" y="443.371" type="line"/>
      <point x="371.259" y="523.844" type="line"/>
      <point x="325.301" y="523.844" type="line"/>
      <point x="345.21900000000005" y="700.0" type="line"/>
      <point x="272.114" y="700.0" type="line"/>
      <point x="252.196" y="523.844" type="line"/>
      <point x="179.83399999999997" y="523.844" type="line"/>
      <point x="199.752" y="700.0" type="line"/>
      <point x="126.64699999999999" y="700.0" type="line"/>
      <point x="106.729" y="523.844" type="line"/>
      <point x="45.066" y="523.844" type="line"/>
    </contour>
    <contour>
      <point x="173.323" y="443.371" type="line"/>
      <point x="245.68499999999997" y="443.371" type="line"/>
      <point x="222.25600000000003" y="251.916" type="line"/>
      <point x="149.894" y="251.916" type="line"/>
    </contour>
  </outline>
</glyph>
<glyph name="dollar" format="2">
  <advance width="394.878"/>
  <unicode hex="0024"/>
  <outline>
    <contour>
      <point x="174.40699999999998" y="-10.0" type="curve" smooth="yes"/>
      <point x="275.883" y="-10.516"/>
      <point x="358.03700000000003" y="42.15"/>
      <point x="358.03700000000003" y="163.642" type="curve" smooth="yes"/>
      <point x="358.03700000000003" y="273.98"/>
      <point x="299.06199999999995" y="332.14099999999996"/>
      <point x="235.793" y="384.29900000000004" type="curve" smooth="yes"/>
      <point x="181.17299999999997" y="431.07399999999996"/>
      <point x="137.921" y="474.629"/>
      <point x="137.921" y="541.241" type="curve" smooth="yes"/>
      <point x="137.921" y="593.4559999999999"/>
      <point x="166.73900000000003" y="622.9999999999999"/>
      <point x="220.461" y="622.9999999999999" type="curve" smooth="yes"/>
      <point x="254.98600000000002" y="622.9999999999999"/>
      <point x="289.91700000000003" y="615.798"/>
      <point x="319.03" y="604.0749999999999" type="curve"/>
      <point x="338.612" y="684.4159999999999" type="line"/>
      <point x="307.52900000000005" y="699.415"/>
      <point x="257.309" y="710.0"/>
      <point x="207.98000000000002" y="710.0" type="curve" smooth="yes"/>
      <point x="108.17300000000002" y="709.886"/>
      <point x="46.397999999999996" y="645.248"/>
      <point x="46.397999999999996" y="539.779" type="curve" smooth="yes"/>
      <point x="46.397999999999996" y="434.745"/>
      <point x="99.347" y="371.922"/>
      <point x="158.287" y="318.735" type="curve" smooth="yes"/>
      <point x="218.139" y="267.01800000000003"/>
      <point x="267.81800000000004" y="223.946"/>
      <point x="267.81800000000004" y="158.104" type="curve" smooth="yes"/>
      <point x="267.81800000000004" y="106.94200000000001"/>
      <point x="234.827" y="74.847"/>
      <point x="177.71800000000002" y="74.847" type="curve" smooth="yes"/>
      <point x="140.917" y="74.847"/>
      <point x="98.463" y="83.59700000000001"/>
      <point x="55.781000000000006" y="100.313" type="curve"/>
      <point x="36.927" y="20.192999999999998" type="line"/>
      <point x="73.74600000000001" y="2.646"/>
      <point x="127.64300000000001" y="-9.828"/>
    </contour>
    <contour>
      <point x="159.323" y="-105.0" type="line"/>
      <point x="241.716" y="-105.0" type="line"/>
      <point x="241.716" y="10.075" type="line"/>
      <point x="159.323" y="2.6079999999999997" type="line"/>
    </contour>
    <contour>
      <point x="159.323" y="690.988" type="line"/>
      <point x="241.716" y="698.292" type="line"/>
      <point x="241.716" y="804.226" type="line"/>
      <point x="159.323" y="804.226" type="line"/>
    </contour>
  </outline>
</glyph>
<glyph name="ampersand" format="2">
  <advance width="480.647"/>
  <unicode hex="0026"/>
  <outline>
    <contour>
      <point x="380.093" y="-8.592" type="line"/>
      <point x="477.746" y="-2.439" type="line"/>
      <point x="199.85600000000002" y="417.737" type="line" smooth="yes"/>
      <point x="170.133" y="464.099"/>
      <point x="159.007" y="501.919"/>
      <point x="159.007" y="536.6869999999999" type="curve" smooth="yes"/>
      <point x="159.007" y="595.003"/>
      <point x="181.411" y="624.2099999999999"/>
      <point x="223.103" y="624.2099999999999" type="curve" smooth="yes"/>
      <point x="264.099" y="624.2099999999999"/>
      <point x="282.765" y="593.204"/>
      <point x="282.765" y="539.756" type="curve" smooth="yes"/>
      <point x="282.765" y="501.27400000000006"/>
      <point x="276.00900000000007" y="471.025"/>
      <point x="252.876" y="448.242" type="curve"/>
      <point x="288.70300000000003" y="398.986" type="line"/>
      <point x="338.98599999999993" y="434.40599999999995"/>
      <point x="362.75" y="487.603"/>
      <point x="362.75" y="558.096" type="curve" smooth="yes"/>
      <point x="362.75" y="657.743"/>
      <point x="313.308" y="710.0"/>
      <point x="221.59799999999996" y="710.0" type="curve" smooth="yes"/>
      <point x="118.62" y="710.0"/>
      <point x="67.19699999999999" y="648.3340000000001"/>
      <point x="67.19699999999999" y="538.837" type="curve" smooth="yes"/>
      <point x="67.19699999999999" y="483.52299999999997"/>
      <point x="86.36600000000001" y="427.28499999999997"/>
      <point x="123.964" y="368.772" type="curve" smooth="yes"/>
    </contour>
    <contour>
      <point x="198.252" y="-10.0" type="curve" smooth="yes"/>
      <point x="264.729" y="-10.0"/>
      <point x="310.757" y="17.891"/>
      <point x="345.33299999999997" y="71.893" type="curve"/>
      <point x="304.48999999999995" y="135.384" type="line"/>
      <point x="284.006" y="92.66"/>
      <point x="258.279" y="68.91000000000001"/>
      <point x="208.35700000000003" y="68.91000000000001" type="curve" smooth="yes"/>
      <point x="146.81" y="68.91000000000001"/>
      <point x="106.98" y="120.28899999999999"/>
      <point x="106.98" y="191.536" type="curve" smooth="yes"/>
      <point x="106.98" y="256.357"/>
      <point x="126.418" y="294.46099999999996"/>
      <point x="168.74599999999998" y="334.681" type="curve"/>
      <point x="128.66899999999998" y="397.78499999999997" type="line"/>
      <point x="52.42400000000001" y="344.08000000000004"/>
      <point x="20.544999999999998" y="276.687"/>
      <point x="20.544999999999998" y="182.291" type="curve" smooth="yes"/>
      <point x="20.544999999999998" y="67.94399999999999"/>
      <point x="88.31899999999999" y="-10.0"/>
    </contour>
    <contour>
      <point x="387.724" y="115.60600000000001" type="line"/>
      <point x="415.48199999999997" y="171.012"/>
      <point x="434.072" y="236.73399999999998"/>
      <point x="434.072" y="309.503" type="curve" smooth="yes"/>
      <point x="434.072" y="331.755"/>
      <point x="432.815" y="349.85799999999995"/>
      <point x="429.745" y="368.559" type="curve"/>
      <point x="356.995" y="367.008" type="line"/>
      <point x="359.42" y="351.962"/>
      <point x="360.448" y="338.313"/>
      <point x="360.233" y="320.253" type="curve" smooth="yes"/>
      <point x="360.018" y="269.329"/>
      <point x="351.481" y="225.283"/>
      <point x="338.8" y="193.249" type="curve"/>
    </contour>
  </outline>
</glyph>
<glyph name="quotesingle" format="2">
  <advance width="157.741"/>
  <unicode hex="0027"/>
  <outline>
    <contour>
      <point x="40.9" y="427.0" type="line"/>
      <point x="115.67999999999999" y="427.0" type="line"/>
      <point x="122.443" y="700.0" type="line"/>
      <point x="35.298" y="700.0" type="line"/>
    </contour>
  </outline>
</glyph>
<glyph name="parenleft" format="2">
  <advance width="228.27800000000002"/>
  <unicode hex="0028"/>
  <outline>
    <contour>
      <point x="41.76499999999999" y="265.0" type="curve" smooth="yes"/>
      <point x="41.76499999999999" y="-10.782"/>
      <point x="98.887" y="-195.00500000000002"/>
      <point x="219.045" y="-220.513" type="curve"/>
      <point x="219.045" y="-138.178" type="line"/>
      <point x="153.22499999999997" y="-104.50800000000001"/>
      <point x="118.77699999999999" y="14.331"/>
      <point x="118.77699999999999" y="265.0" type="curve" smooth="yes"/>
      <point x="118.77699999999999" y="515.6690000000001"/>
      <point x="153.22499999999997" y="634.5079999999999"/>
      <point x="219.045" y="668.178" type="curve"/>
      <point x="219.045" y="750.513" type="line"/>
      <point x="98.887" y="725.005"/>
      <point x="41.76499999999999" y="540.782"/>
    </contour>
  </outline>
</glyph>
<glyph name="parenright" format="2">
  <advance width="228.27800000000002"/>
  <unicode hex="0029"/>
  <outline>
    <contour>
      <point x="9.233" y="-138.178" type="curve"/>
      <point x="9.233" y="-220.513" type="line"/>
      <point x="129.391" y="-195.00500000000002"/>
      <point x="186.513" y="-10.782"/>
      <point x="186.513" y="265.0" type="curve" smooth="yes"/>
      <point x="186.513" y="540.782"/>
      <point x="129.391" y="725.005"/>
      <point x="9.233" y="750.513" type="curve"/>
      <point x="9.233" y="668.178" type="line"/>
      <point x="75.05300000000001" y="634.5079999999999"/>
      <point x="109.501" y="515.6690000000001"/>
      <point x="109.501" y="265.0" type="curve" smooth="yes"/>
      <point x="109.501" y="14.331"/>
      <point x="75.05300000000001" y="-104.50800000000001"/>
    </contour>
  </outline>
</glyph>
<glyph name="asterisk" format="2">
  <advance width="273.008"/>
  <unicode hex="002A"/>
  <outline>
    <contour>
      <point x="77.079" y="399.663" type="line"/>
      <point x="136.561" y="483.437" type="line"/>
      <point x="195.815" y="399.60599999999994" type="line"/>
      <point x="233.87800000000001" y="425.889" type="line"/>
      <point x="182.126" y="517.877" type="line"/>
      <point x="269.343" y="561.085" type="line"/>
      <point x="254.24400000000003" y="604.591" type="line"/>
      <point x="165.054" y="572.972" type="line"/>
      <point x="160.152" y="682.057" type="line"/>
      <point x="112.97000000000001" y="682.057" type="line"/>
      <point x="108.06800000000001" y="572.972" type="line"/>
      <point x="18.764000000000003" y="604.591" type="line"/>
      <point x="3.665" y="561.085" type="line"/>
      <point x="90.99600000000001" y="517.877" type="line"/>
      <point x="38.959" y="426.003" type="line"/>
    </contour>
  </outline>
</glyph>
<glyph name="plus" format="2">
  <advance width="417.896"/>
  <unicode hex="002B"/>
  <outline>
    <contour>
      <point x="166.999" y="107.862" type="line"/>
      <point x="250.85399999999998" y="107.862" type="line"/>
      <point x="250.85399999999998" y="265.455" type="line"/>
      <point x="375.464" y="265.455" type="line"/>
      <point x="375.464" y="347.59" type="line"/>
      <point x="250.85399999999998" y="347.59" type="line"/>
      <point x="250.85399999999998" y="505.14" type="line"/>
      <point x="166.999" y="505.14" type="line"/>
      <point x="166.999" y="347.59" type="line"/>
      <point x="42.431999999999995" y="347.59" type="line"/>
      <point x="42.431999999999995" y="265.455" type="line"/>
      <point x="166.999" y="265.455" type="line"/>
    </contour>
  </outline>
</glyph>
<glyph name="comma" format="2">
  <advance width="152.937"/>
  <unicode hex="002C"/>
  <outline>
    <contour>
      <point x="30.886000000000003" y="66.768" type="line"/>
      <point x="37.455" y="38.555"/>
      <point x="39.891999999999996" y="11.355000000000002"/>
      <point x="39.891999999999996" y="-4.653999999999999" type="curve" smooth="yes"/>
      <point x="39.891999999999996" y="-61.18000000000001"/>
      <point x="21.622" y="-125.44000000000001"/>
      <point x="-16.538999999999998" y="-169.053" type="curve"/>
      <point x="50.233" y="-193.15099999999998" type="line"/>
      <point x="105.575" y="-138.279"/>
      <point x="126.88600000000001" y="-67.245"/>
      <point x="126.88600000000001" y="-2.906000000000001" type="curve" smooth="yes"/>
      <point x="126.88600000000001" y="24.929"/>
      <point x="122.511" y="49.333"/>
      <point x="116.01400000000001" y="71.30199999999999" type="curve"/>
    </contour>
  </outline>
</glyph>
<glyph name="hyphen" format="2">
  <advance width="261.081"/>
  <unicode hex="002D"/>
  <outline>
    <contour>
      <point x="25.694" y="245.97" type="line"/>
      <point x="235.387" y="245.97" type="line"/>
      <point x="235.387" y="333.652" type="line"/>
      <point x="25.694" y="333.652" type="line"/>
    </contour>
  </outline>
</glyph>
<glyph name="period" format="2">
  <advance width="153.625"/>
  <unicode hex="002E"/>
  <outline>
    <contour>
      <point x="25.69" y="56.689" type="curve" smooth="yes"/>
      <point x="25.69" y="14.158"/>
      <point x="39.088" y="-3.182"/>
      <point x="76.841" y="-3.182" type="curve" smooth="yes"/>
      <point x="115.164" y="-3.182"/>
      <point x="127.992" y="14.158"/>
      <point x="127.992" y="56.689" type="curve" smooth="yes"/>
      <point x="127.992" y="99.64999999999999"/>
      <point x="115.164" y="116.99"/>
      <point x="76.841" y="116.99" type="curve" smooth="yes"/>
      <point x="38.518" y="116.99"/>
      <point x="25.69" y="99.64999999999999"/>
    </contour>
  </outline>
</glyph>
<glyph name="slash" format="2">
  <advance width="301.329"/>
  <unicode hex="002F"/>
  <outline>
    <contour>
      <point x="-1.8440000000000003" y="-210.0" type="line"/>
      <point x="76.495" y="-210.0" type="line"/>
      <point x="303.17299999999994" y="740.0" type="line"/>
      <point x="224.44699999999997" y="740.0" type="line"/>
    </contour>
  </outline>
</glyph>
<glyph name="zero" format="2">
  <advance width="394.878"/>
  <unicode hex="0030"/>
  <outline>
    <contour>
      <point x="18.284" y="350.0" type="curve" smooth="yes"/>
      <point x="18.284" y="75.318"/>
      <point x="76.21900000000001" y="-10.0"/>
      <point x="197.439" y="-10.0" type="curve" smooth="yes"/>
      <point x="317.584" y="-10.0"/>
      <point x="376.59400000000005" y="76.866"/>
      <point x="376.59400000000005" y="350.0" type="curve" smooth="yes"/>
      <point x="376.59400000000005" y="624.034"/>
      <point x="323.38900000000007" y="710.0"/>
      <point x="197.439" y="710.0" type="curve" smooth="yes"/>
      <point x="75.058" y="710.0"/>
      <point x="18.284" y="627.13"/>
    </contour>
    <contour>
      <point x="111.77100000000002" y="344.96900000000005" type="curve" smooth="yes"/>
      <point x="111.77100000000002" y="581.331"/>
      <point x="142.193" y="625.9300000000001"/>
      <point x="197.439" y="625.9300000000001" type="curve" smooth="yes"/>
      <point x="252.771" y="625.9300000000001"/>
      <point x="283.193" y="581.718"/>
      <point x="283.193" y="344.96900000000005" type="curve" smooth="yes"/>
      <point x="283.193" y="121.50400000000002"/>
      <point x="253.93200000000002" y="74.07000000000001"/>
      <point x="197.439" y="74.07000000000001" type="curve" smooth="yes"/>
      <point x="141.032" y="74.07000000000001"/>
      <point x="111.77100000000002" y="121.117"/>
    </contour>
  </outline>
</glyph>
<glyph name="one" format="2">
  <advance width="394.878"/>
  <unicode hex="0031"/>
  <outline>
    <contour>
      <point x="44.011" y="0.0" type="line"/>
      <point x="372.10900000000004" y="0.0" type="line"/>
      <point x="372.10900000000004" y="82.35" type="line"/>
      <point x="262.599" y="82.35" type="line"/>
      <point x="262.599" y="700.57" type="line"/>
      <point x="214.78" y="700.57" type="line"/>
      <point x="28.575" y="601.011" type="line"/>
      <point x="48.689" y="512.393" type="line"/>
      <point x="169.84300000000002" y="583.7090000000001" type="line"/>
      <point x="169.84300000000002" y="82.35" type="line"/>
      <point x="44.011" y="82.35" type="line"/>
    </contour>
  </outline>
</glyph>
<glyph name="two" format="2">
  <advance width="395.15000000000003"/>
  <unicode hex="0032"/>
  <outline>
    <contour>
      <point x="38.915000000000006" y="72.89999999999999" type="curve"/>
      <point x="41.8725" y="0.0" type="line"/>
      <point x="363.8375" y="0.0" type="line"/>
      <point x="363.8375" y="82.565" type="line"/>
      <point x="149.70250000000001" y="82.565" type="line"/>
      <point x="297.34749999999997" y="308.1475"/>
      <point x="333.98749999999995" y="406.6175"/>
      <point x="333.98749999999995" y="517.45" type="curve" smooth="yes"/>
      <point x="333.98749999999995" y="645.9175"/>
      <point x="278.4525" y="710.0"/>
      <point x="179.6875" y="710.0" type="curve" smooth="yes"/>
      <point x="123.46249999999999" y="710.0"/>
      <point x="73.38250000000001" y="692.2025"/>
      <point x="28.17" y="651.9875" type="curve"/>
      <point x="62.815000000000005" y="564.4525" type="line"/>
      <point x="94.5325" y="592.61"/>
      <point x="124.02499999999999" y="604.0325"/>
      <point x="158.29500000000002" y="604.0325" type="curve" smooth="yes"/>
      <point x="208.26250000000002" y="604.0325"/>
      <point x="239.0925" y="571.81"/>
      <point x="239.0925" y="490.85" type="curve" smooth="yes"/>
      <point x="239.0925" y="406.4875"/>
      <point x="189.2175" y="293.9075"/>
    </contour>
  </outline>
</glyph>
<glyph name="three" format="2">
  <advance width="395.15"/>
  <unicode hex="0033"/>
  <outline>
    <contour>
      <point x="14.52" y="38.3925" type="line"/>
      <point x="61.427499999999995" y="4.245000000000001"/>
      <point x="104.4775" y="-10.0"/>
      <point x="166.90249999999997" y="-10.0" type="curve" smooth="yes"/>
      <point x="283.93" y="-10.0"/>
      <point x="353.435" y="68.78999999999999"/>
      <point x="353.435" y="202.26" type="curve" smooth="yes"/>
      <point x="353.435" y="284.91499999999996"/>
      <point x="321.1075" y="345.4125"/>
      <point x="260.535" y="371.61249999999995" type="curve"/>
      <point x="309.72499999999997" y="401.245"/>
      <point x="337.70000000000005" y="461.6375"/>
      <point x="337.70000000000005" y="533.6075" type="curve" smooth="yes"/>
      <point x="337.70000000000005" y="641.68"/>
      <point x="276.42" y="710.0"/>
      <point x="171.2675" y="710.0" type="curve" smooth="yes"/>
      <point x="113.60249999999999" y="710.0"/>
      <point x="61.917500000000004" y="693.8449999999999"/>
      <point x="24.635" y="664.1750000000001" type="curve"/>
      <point x="54.912499999999994" y="587.25" type="line"/>
      <point x="83.24" y="605.32"/>
      <point x="117.57" y="614.105"/>
      <point x="151.80999999999997" y="614.105" type="curve" smooth="yes"/>
      <point x="213.50500000000002" y="614.105"/>
      <point x="245.89000000000001" y="572.275"/>
      <point x="245.89000000000001" y="506.08750000000003" type="curve" smooth="yes"/>
      <point x="245.89000000000001" y="443.14750000000004"/>
      <point x="217.66" y="399.7475"/>
      <point x="169.605" y="399.7475" type="curve" smooth="yes"/>
      <point x="102.2725" y="399.7475" type="line"/>
      <point x="102.2725" y="322.02000000000004" type="line"/>
      <point x="159.48000000000002" y="322.02000000000004" type="line" smooth="yes"/>
      <point x="225.07" y="322.02000000000004"/>
      <point x="260.65749999999997" y="283.785"/>
      <point x="260.65749999999997" y="209.14" type="curve" smooth="yes"/>
      <point x="260.65749999999997" y="128.55249999999998"/>
      <point x="222.125" y="80.95"/>
      <point x="155.935" y="80.95" type="curve" smooth="yes"/>
      <point x="112.80999999999999" y="80.95"/>
      <point x="81.4525" y="91.4775"/>
      <point x="48.87250000000001" y="114.3175" type="curve"/>
    </contour>
  </outline>
</glyph>
<glyph name="four" format="2">
  <advance width="395.15000000000003"/>
  <unicode hex="0034"/>
  <outline>
    <contour>
      <point x="19.96" y="143.475" type="line"/>
      <point x="221.535" y="143.475" type="line"/>
      <point x="221.535" y="0.0" type="line"/>
      <point x="313.775" y="0.0" type="line"/>
      <point x="313.775" y="143.475" type="line"/>
      <point x="381.285" y="143.475" type="line"/>
      <point x="381.285" y="225.39499999999998" type="line"/>
      <point x="313.775" y="225.39499999999998" type="line"/>
      <point x="313.775" y="699.215" type="line"/>
      <point x="214.495" y="702.5649999999999" type="line"/>
      <point x="16.650000000000002" y="225.61999999999998" type="line"/>
    </contour>
    <contour>
      <point x="91.14" y="225.39499999999998" type="line"/>
      <point x="225.405" y="560.29" type="line"/>
      <point x="225.405" y="225.39499999999998" type="line"/>
    </contour>
  </outline>
</glyph>
<glyph name="five" format="2">
  <advance width="395.13599999999997"/>
  <unicode hex="0035"/>
  <outline>
    <contour>
      <point x="26.79" y="36.4285" type="line"/>
      <point x="68.47" y="5.99"/>
      <point x="111.401" y="-9.985999999999999"/>
      <point x="170.45399999999998" y="-9.985999999999999" type="curve" smooth="yes"/>
      <point x="287.6215" y="-9.985999999999999"/>
      <point x="366.5845" y="69.09899999999999"/>
      <point x="366.5845" y="213.275" type="curve" smooth="yes"/>
      <point x="366.5845" y="339.089"/>
      <point x="310.386" y="403.01849999999996"/>
      <point x="210.07549999999998" y="405.276" type="curve" smooth="yes"/>
      <point x="147.56799999999996" y="405.921" type="line"/>
      <point x="160.8055" y="613.4574999999999" type="line"/>
      <point x="344.0335" y="613.4574999999999" type="line"/>
      <point x="344.0335" y="700.0" type="line"/>
      <point x="86.37749999999998" y="700.0" type="line"/>
      <point x="57.665" y="340.16099999999994" type="line"/>
      <point x="67.02000000000001" y="328.516" type="line"/>
      <point x="163.40699999999998" y="328.516" type="line" smooth="yes"/>
      <point x="238.96700000000004" y="328.516"/>
      <point x="272.62449999999995" y="288.263"/>
      <point x="272.62449999999995" y="209.835" type="curve" smooth="yes"/>
      <point x="272.62449999999995" y="129.446"/>
      <point x="236.1175" y="81.17899999999999"/>
      <point x="160.45649999999998" y="81.17899999999999" type="curve" smooth="yes"/>
      <point x="111.4755" y="81.17899999999999"/>
      <point x="80.05449999999999" y="96.4395"/>
      <point x="52.2735" y="114.94749999999999" type="curve"/>
    </contour>
  </outline>
</glyph>
<glyph name="six" format="2">
  <advance width="395.13599999999997"/>
  <unicode hex="0036"/>
  <outline>
    <contour>
      <point x="202.12350000000004" y="-10.0" type="curve" smooth="yes"/>
      <point x="313.87299999999993" y="-10.0"/>
      <point x="374.54750000000007" y="73.05600000000001"/>
      <point x="374.54750000000007" y="222.19099999999997" type="curve" smooth="yes"/>
      <point x="374.54750000000007" y="351.71999999999997"/>
      <point x="322.7245" y="427.8985"/>
      <point x="233.2555" y="427.8985" type="curve" smooth="yes"/>
      <point x="178.18249999999998" y="427.8985"/>
      <point x="129.7085" y="396.24800000000005"/>
      <point x="105.98750000000001" y="347.9015" type="curve"/>
      <point x="107.725" y="269.97950000000003" type="line"/>
      <point x="127.851" y="320.6045"/>
      <point x="162.7535" y="352.66200000000003"/>
      <point x="203.67450000000002" y="352.66200000000003" type="curve" smooth="yes"/>
      <point x="252.871" y="352.66200000000003"/>
      <point x="282.73749999999995" y="304.65650000000005"/>
      <point x="282.73749999999995" y="218.26549999999997" type="curve" smooth="yes"/>
      <point x="282.73749999999995" y="123.504"/>
      <point x="252.09599999999995" y="71.77550000000001"/>
      <point x="204.47000000000003" y="71.77550000000001" type="curve" smooth="yes"/>
      <point x="145.972" y="71.77550000000001"/>
      <point x="117.4465" y="128.479"/>
      <point x="117.4465" y="341.536" type="curve" smooth="yes"/>
      <point x="117.4465" y="531.9899999999999"/>
      <point x="144.4375" y="623.2795"/>
      <point x="244.2975" y="623.2795" type="curve" smooth="yes"/>
      <point x="278.14750000000004" y="623.2795"/>
      <point x="305.7745" y="612.6115"/>
      <point x="333.8115" y="596.14" type="curve"/>
      <point x="363.563" y="673.7565000000001" type="line"/>
      <point x="330.53000000000003" y="696.2284999999999"/>
      <point x="281.292" y="710.0"/>
      <point x="231.21950000000004" y="710.0" type="curve" smooth="yes"/>
      <point x="91.6625" y="710.0"/>
      <point x="21.3365" y="593.8380000000001"/>
      <point x="21.3365" y="327.537" type="curve" smooth="yes"/>
      <point x="21.3365" y="85.913"/>
      <point x="79.564" y="-10.0"/>
    </contour>
  </outline>
</glyph>
<glyph name="seven" format="2">
  <advance width="395.13599999999997"/>
  <unicode hex="0037"/>
  <outline>
    <contour>
      <point x="114.2595" y="0.0" type="curve"/>
      <point x="211.12200000000004" y="0.0" type="line"/>
      <point x="212.0005" y="131.23600000000002"/>
      <point x="230.96299999999997" y="231.382"/>
      <point x="273.712" y="357.08099999999996" type="curve" smooth="yes"/>
      <point x="366.89250000000004" y="633.2275000000001" type="line"/>
      <point x="366.89250000000004" y="700.0" type="line"/>
      <point x="27.6085" y="700.0" type="line"/>
      <point x="27.6085" y="612.3825" type="line"/>
      <point x="265.66049999999996" y="612.3825" type="line"/>
      <point x="187.278" y="396.24099999999993" type="line" smooth="yes"/>
      <point x="134.04000000000002" y="248.9285"/>
      <point x="114.2595" y="137.593"/>
    </contour>
  </outline>
</glyph>
<glyph name="eight" format="2">
  <advance width="395.15000000000003"/>
  <unicode hex="0038"/>
  <outline>
    <contour>
      <point x="207.17249999999999" y="385.7575" type="curve"/>
      <point x="259.01000000000005" y="350.8875" type="line"/>
      <point x="334.0725" y="404.64750000000004"/>
      <point x="363.2575" y="466.61"/>
      <point x="363.2575" y="541.09" type="curve" smooth="yes"/>
      <point x="363.2575" y="647.2699999999999"/>
      <point x="303.60749999999996" y="710.0"/>
      <point x="201.475" y="710.0" type="curve" smooth="yes"/>
      <point x="94.32499999999999" y="710.0"/>
      <point x="33.5375" y="646.0200000000001"/>
      <point x="33.5375" y="531.305" type="curve" smooth="yes"/>
      <point x="33.5375" y="308.28000000000003"/>
      <point x="286.94749999999993" y="350.84000000000003"/>
      <point x="286.94749999999993" y="173.5275" type="curve" smooth="yes"/>
      <point x="286.94749999999993" y="106.56500000000001"/>
      <point x="255.96250000000003" y="69.55499999999999"/>
      <point x="200.0475" y="69.55499999999999" type="curve" smooth="yes"/>
      <point x="140.48" y="69.55499999999999"/>
      <point x="107.84249999999999" y="109.70749999999998"/>
      <point x="107.84249999999999" y="184.355" type="curve" smooth="yes"/>
      <point x="107.84249999999999" y="254.0675"/>
      <point x="131.73749999999998" y="300.39"/>
      <point x="184.3775" y="338.58750000000003" type="curve"/>
      <point x="130.10750000000002" y="379.4" type="line"/>
      <point x="52.224999999999994" y="329.2675"/>
      <point x="17.322499999999998" y="261.78249999999997"/>
      <point x="17.322499999999998" y="177.1625" type="curve" smooth="yes"/>
      <point x="17.322499999999998" y="57.434999999999995"/>
      <point x="81.005" y="-10.0"/>
      <point x="195.32" y="-10.0" type="curve" smooth="yes"/>
      <point x="314.29499999999996" y="-10.0"/>
      <point x="378.5425" y="56.402499999999996"/>
      <point x="378.5425" y="177.5425" type="curve" smooth="yes"/>
      <point x="378.5425" y="416.40999999999997"/>
      <point x="121.4775" y="369.0375"/>
      <point x="121.4775" y="534.1600000000001" type="curve" smooth="yes"/>
      <point x="121.4775" y="593.3825"/>
      <point x="149.64499999999998" y="628.7575"/>
      <point x="197.9275" y="628.7575" type="curve" smooth="yes"/>
      <point x="250.1125" y="628.7575"/>
      <point x="278.5425" y="593.1274999999999"/>
      <point x="278.5425" y="526.7600000000001" type="curve" smooth="yes"/>
      <point x="278.5425" y="466.49499999999995"/>
      <point x="262.6375" y="425.62"/>
    </contour>
  </outline>
</glyph>
<glyph name="nine" format="2">
  <advance width="395.13599999999997"/>
  <unicode hex="0039"/>
  <outline>
    <contour>
      <point x="166.1315" y="-10.0" type="curve" smooth="yes"/>
      <point x="305.68850000000003" y="-10.0"/>
      <point x="374.00550000000004" y="105.94699999999999"/>
      <point x="374.00550000000004" y="371.818" type="curve" smooth="yes"/>
      <point x="374.00550000000004" y="613.6569999999999"/>
      <point x="318.573" y="710.0"/>
      <point x="195.06849999999997" y="710.0" type="curve" smooth="yes"/>
      <point x="82.88" y="710.0"/>
      <point x="20.794500000000003" y="627.028"/>
      <point x="20.794500000000003" y="477.823" type="curve" smooth="yes"/>
      <point x="20.794500000000003" y="347.934"/>
      <point x="72.88850000000001" y="272.1015"/>
      <point x="163.1615" y="272.1015" type="curve" smooth="yes"/>
      <point x="216.9445" y="272.1015"/>
      <point x="265.2035" y="303.78900000000004"/>
      <point x="289.35450000000003" y="352.1355" type="curve"/>
      <point x="291.59800000000007" y="435.61749999999995" type="line"/>
      <point x="269.2665" y="377.872"/>
      <point x="232.37349999999998" y="347.3379999999999"/>
      <point x="191.66750000000002" y="347.3379999999999" type="curve" smooth="yes"/>
      <point x="143.097" y="347.3379999999999"/>
      <point x="112.3895" y="395.2125"/>
      <point x="112.3895" y="481.96349999999995" type="curve" smooth="yes"/>
      <point x="112.3895" y="576.795"/>
      <point x="144.657" y="628.2245"/>
      <point x="193.36700000000002" y="628.2245" type="curve" smooth="yes"/>
      <point x="252.16500000000002" y="628.2245"/>
      <point x="277.89549999999997" y="571.5210000000001"/>
      <point x="277.89549999999997" y="358.464" type="curve" smooth="yes"/>
      <point x="277.89549999999997" y="168.00999999999996"/>
      <point x="252.69850000000002" y="76.72050000000002"/>
      <point x="153.05349999999999" y="76.72050000000002" type="curve" smooth="yes"/>
      <point x="118.9885" y="76.72050000000002"/>
      <point x="89.56750000000001" y="87.38850000000001"/>
      <point x="61.530499999999996" y="103.86" type="curve"/>
      <point x="31.779" y="26.673499999999997" type="line"/>
      <point x="64.812" y="4.2014999999999985"/>
      <point x="116.05900000000001" y="-10.0"/>
    </contour>
  </outline>
</glyph>
<glyph name="less" format="2">
  <advance width="417.896"/>
  <unicode hex="003C"/>
  <outline>
    <contour>
      <point x="383.07800000000003" y="92.289" type="line"/>
      <point x="383.07800000000003" y="169.96800000000002" type="line"/>
      <point x="120.378" y="299.66099999999994" type="line"/>
      <point x="383.07800000000003" y="430.325" type="line"/>
      <point x="383.07800000000003" y="506.62" type="line"/>
      <point x="34.818" y="340.277" type="line"/>
      <point x="34.818" y="258.916" type="line"/>
    </contour>
  </outline>
</glyph>
<glyph name="equal" format="2">
  <advance width="410.15599999999995"/>
  <unicode hex="003D"/>
  <outline>
    <contour>
      <point x="367.72400000000005" y="233.722" type="line"/>
      <point x="42.431999999999995" y="233.722" type="line"/>
      <point x="42.431999999999995" y="151.58700000000002" type="line"/>
      <point x="367.72400000000005" y="151.58700000000002" type="line"/>
    </contour>
    <contour>
      <point x="367.72400000000005" y="448.849" type="line"/>
      <point x="42.431999999999995" y="448.849" type="line"/>
      <point x="42.431999999999995" y="366.714" type="line"/>
      <point x="367.72400000000005" y="366.714" type="line"/>
    </contour>
  </outline>
</glyph>
<glyph name="greater" format="2">
  <advance width="417.896"/>
  <unicode hex="003E"/>
  <outline>
    <contour>
      <point x="383.07800000000003" y="258.403" type="line"/>
      <point x="383.07800000000003" y="339.764" type="line"/>
      <point x="34.818" y="506.62" type="line"/>
      <point x="34.818" y="429.242" type="line"/>
      <point x="297.518" y="299.14799999999997" type="line"/>
      <point x="34.818" y="168.94199999999998" type="line"/>
      <point x="34.818" y="92.289" type="line"/>
    </contour>
  </outline>
</glyph>
<glyph name="question" format="2">
  <advance width="328.924"/>
  <unicode hex="003F"/>
  <outline>
    <contour>
      <point x="110.189" y="261.67900000000003" type="line"/>
      <point x="191.593" y="261.67900000000003" type="line"/>
      <point x="191.679" y="335.598" type="line"/>
      <point x="276.418" y="396.057"/>
      <point x="314.82099999999997" y="457.255"/>
      <point x="314.82099999999997" y="562.23" type="curve" smooth="yes"/>
      <point x="314.82099999999997" y="688.83"/>
      <point x="244.913" y="749.613"/>
      <point x="148.655" y="749.613" type="curve" smooth="yes"/>
      <point x="96.584" y="749.613"/>
      <point x="44.64" y="728.1410000000001"/>
      <point x="8.056000000000001" y="695.418" type="curve"/>
      <point x="42.044000000000004" y="615.096" type="line"/>
      <point x="76.441" y="644.477"/>
      <point x="106.5" y="654.274"/>
      <point x="135.239" y="654.274" type="curve" smooth="yes"/>
      <point x="183.734" y="654.274"/>
      <point x="219.058" y="613.686"/>
      <point x="219.058" y="547.991" type="curve" smooth="yes"/>
      <point x="219.058" y="483.826"/>
      <point x="197.08400000000003" y="435.741"/>
      <point x="108.33999999999999" y="376.989" type="curve"/>
    </contour>
    <contour>
      <point x="99.75500000000001" y="55.528000000000006" type="curve" smooth="yes"/>
      <point x="99.75500000000001" y="12.997"/>
      <point x="113.792" y="-4.343"/>
      <point x="151.41899999999998" y="-4.343" type="curve" smooth="yes"/>
      <point x="188.842" y="-4.343"/>
      <point x="202.57" y="12.997"/>
      <point x="202.57" y="55.528000000000006" type="curve" smooth="yes"/>
      <point x="202.57" y="98.48899999999999"/>
      <point x="188.842" y="115.829"/>
      <point x="151.41899999999998" y="115.829" type="curve" smooth="yes"/>
      <point x="112.70899999999999" y="115.829"/>
      <point x="99.75500000000001" y="98.48899999999999"/>
    </contour>
  </outline>
</glyph>
<glyph name="at" format="2">
  <advance width="620.9759999999999"/>
  <unicode hex="0040"/>
  <outline>
    <contour>
      <point x="316.452" y="-123.86" type="curve" smooth="yes"/>
      <point x="375.82599999999996" y="-123.86"/>
      <point x="440.59799999999996" y="-99.99"/>
      <point x="473.016" y="-72.28" type="curve"/>
      <point x="455.416" y="-32.882" type="line"/>
      <point x="419.308" y="-57.27"/>
      <point x="371.22" y="-75.388"/>
      <point x="317.742" y="-75.388" type="curve" smooth="yes"/>
      <point x="171.894" y="-75.388"/>
      <point x="80.186" y="8.157999999999998"/>
      <point x="80.186" y="265.734" type="curve" smooth="yes"/>
      <point x="80.186" y="497.348"/>
      <point x="150.25" y="664.234"/>
      <point x="319.13199999999995" y="664.234" type="curve" smooth="yes"/>
      <point x="489.686" y="664.234"/>
      <point x="545.0600000000001" y="550.4920000000001"/>
      <point x="545.0600000000001" y="343.21200000000005" type="curve" smooth="yes"/>
      <point x="545.0600000000001" y="214.652"/>
      <point x="521.74" y="115.168"/>
      <point x="480.56" y="115.168" type="curve" smooth="yes"/>
      <point x="454.238" y="115.168"/>
      <point x="430.68999999999994" y="136.252"/>
      <point x="437.50399999999996" y="248.83200000000002" type="curve" smooth="yes"/>
      <point x="455.492" y="521.458" type="line"/>
      <point x="412.206" y="539.766"/>
      <point x="373.806" y="549.202"/>
      <point x="329.14200000000005" y="549.202" type="curve" smooth="yes"/>
      <point x="209.746" y="549.202"/>
      <point x="162.35600000000002" y="419.514"/>
      <point x="162.35600000000002" y="264.554" type="curve" smooth="yes"/>
      <point x="162.35600000000002" y="108.866"/>
      <point x="203.99" y="56.472"/>
      <point x="263.622" y="56.472" type="curve" smooth="yes"/>
      <point x="320.028" y="56.472"/>
      <point x="345.878" y="101.72"/>
      <point x="369.016" y="175.47199999999998" type="curve"/>
      <point x="377.018" y="85.04"/>
      <point x="405.438" y="51.49400000000001"/>
      <point x="464.55" y="51.49400000000001" type="curve" smooth="yes"/>
      <point x="556.486" y="51.49400000000001"/>
      <point x="597.5540000000001" y="183.224"/>
      <point x="597.5540000000001" y="350.178" type="curve" smooth="yes"/>
      <point x="597.5540000000001" y="592.2320000000001"/>
      <point x="504.908" y="709.986"/>
      <point x="326.44199999999995" y="709.986" type="curve" smooth="yes"/>
      <point x="116.17999999999999" y="709.986"/>
      <point x="24.323999999999998" y="526.87"/>
      <point x="24.323999999999998" y="270.97999999999996" type="curve" smooth="yes"/>
      <point x="24.323999999999998" y="-14.764"/>
      <point x="133.948" y="-123.86"/>
    </contour>
    <contour>
      <point x="296.64" y="141.818" type="curve" smooth="yes"/>
      <point x="273.718" y="141.818"/>
      <point x="254.76799999999997" y="170.402"/>
      <point x="254.76799999999997" y="262.31800000000004" type="curve" smooth="yes"/>
      <point x="254.76799999999997" y="367.332"/>
      <point x="277.908" y="483.748"/>
      <point x="328.3999999999999" y="483.748" type="curve" smooth="yes"/>
      <point x="340.84400000000005" y="483.748"/>
      <point x="354.668" y="479.65"/>
      <point x="369.014" y="473.46" type="curve"/>
      <point x="358.28000000000003" y="339.44" type="line" smooth="yes"/>
      <point x="342.82399999999996" y="164.67800000000003"/>
      <point x="327.43600000000004" y="141.818"/>
    </contour>
  </outline>
</glyph>
<glyph name="A" format="2">
  <advance width="418.869"/>
  <unicode hex="0041"/>
  <anchor x="407.093" y="0.0" name="ogonek"/>
  <anchor x="208.722" y="0.0" name="bottom"/>
  <anchor x="209.49600000000004" y="700.0" name="top"/>
  <outline>
    <contour>
      <point x="11.861999999999998" y="0.0" type="line"/>
      <point x="106.28" y="0.0" type="line"/>
      <point x="136.786" y="165.11399999999998" type="line"/>
      <point x="279.81600000000003" y="165.11399999999998" type="line"/>
      <point x="310.683" y="0.0" type="line"/>
      <point x="407.093" y="0.0" type="line"/>
      <point x="269.929" y="705.7" type="line"/>
      <point x="148.00300000000001" y="705.7" type="line"/>
    </contour>
    <contour>
      <point x="148.87" y="258.547" type="line"/>
      <point x="208.78" y="618.1980000000001" type="line"/>
      <point x="267.746" y="258.547" type="line"/>
    </contour>
  </outline>
</glyph>
<glyph name="B" format="2">
  <advance width="411.57"/>
  <unicode hex="0042"/>
  <anchor x="199.26" y="700.0" name="top"/>
  <anchor x="199.26" y="0.0" name="bottom"/>
  <outline>
    <contour>
      <point x="41.91349999999999" y="-0.5785000000000005" type="line"/>
      <point x="120.52" y="-8.4345"/>
      <point x="137.22800000000004" y="-10.0"/>
      <point x="194.07399999999998" y="-10.0" type="curve" smooth="yes"/>
      <point x="333.1820000000001" y="-10.0"/>
      <point x="391.8845" y="52.9865"/>
      <point x="391.8845" y="195.372" type="curve" smooth="yes"/>
      <point x="391.8845" y="282.7955"/>
      <point x="354.89899999999994" y="347.66949999999997"/>
      <point x="291.783" y="372.1525" type="curve"/>
      <point x="291.783" y="373.70400000000006" type="line"/>
      <point x="340.044" y="399.60699999999997"/>
      <point x="369.00550000000004" y="460.58650000000006"/>
      <point x="369.00550000000004" y="535.8040000000001" type="curve" smooth="yes"/>
      <point x="369.00550000000004" y="655.57"/>
      <point x="315.2605" y="710.0"/>
      <point x="192.92" y="710.0" type="curve" smooth="yes"/>
      <point x="152.63700000000003" y="710.0"/>
      <point x="104.6515" y="706.5745000000001"/>
      <point x="41.91349999999999" y="699.4665" type="curve"/>
    </contour>
    <contour>
      <point x="135.4435" y="391.744" type="line"/>
      <point x="135.4435" y="619.7985" type="line"/>
      <point x="160.133" y="623.3545"/>
      <point x="170.693" y="624.3545"/>
      <point x="193.0745" y="624.3545" type="curve" smooth="yes"/>
      <point x="256.3305" y="624.3545"/>
      <point x="283.96799999999996" y="587.3715000000001"/>
      <point x="283.96799999999996" y="509.2515000000001" type="curve" smooth="yes"/>
      <point x="283.96799999999996" y="439.6685"/>
      <point x="254.64399999999998" y="391.744"/>
      <point x="206.8865" y="391.744" type="curve" smooth="yes"/>
    </contour>
    <contour>
      <point x="135.4435" y="79.5705" type="curve"/>
      <point x="135.4435" y="314.4465" type="line"/>
      <point x="207.6475" y="314.4465" type="line" smooth="yes"/>
      <point x="267.428" y="314.4465"/>
      <point x="298.677" y="271.27349999999996"/>
      <point x="298.677" y="198.48000000000002" type="curve" smooth="yes"/>
      <point x="298.677" y="111.77300000000001"/>
      <point x="269.55850000000004" y="75.7575"/>
      <point x="193.1585" y="75.7575" type="curve" smooth="yes"/>
      <point x="178.024" y="75.7575"/>
      <point x="163.931" y="77.0005"/>
    </contour>
  </outline>
</glyph>
<glyph name="C" format="2">
  <advance width="372.093"/>
  <unicode hex="0043"/>
  <anchor x="218.87599999999998" y="700.0" name="top"/>
  <anchor x="220.986" y="0.0" name="bottom"/>
  <outline>
    <contour>
      <point x="24.638999999999996" y="341.088" type="curve" smooth="yes"/>
      <point x="24.638999999999996" y="72.49900000000001"/>
      <point x="93.91999999999999" y="-10.0"/>
      <point x="228.06500000000003" y="-10.0" type="curve" smooth="yes"/>
      <point x="275.063" y="-10.0"/>
      <point x="321.1039999999999" y="-3.333"/>
      <point x="356.59999999999997" y="10.311" type="curve"/>
      <point x="340.188" y="94.47" type="line"/>
      <point x="313.66700000000003" y="85.51"/>
      <point x="271.96299999999997" y="79.06400000000001"/>
      <point x="244.14399999999998" y="79.06400000000001" type="curve" smooth="yes"/>
      <point x="160.759" y="79.06400000000001"/>
      <point x="118.685" y="135.785"/>
      <point x="118.685" y="339.62600000000003" type="curve" smooth="yes"/>
      <point x="118.685" y="561.4269999999999"/>
      <point x="161.90200000000002" y="620.595"/>
      <point x="246.49" y="620.595" type="curve" smooth="yes"/>
      <point x="275.82300000000004" y="620.595"/>
      <point x="301.314" y="616.534"/>
      <point x="333.26899999999995" y="606.758" type="curve"/>
      <point x="351.874" y="690.06" type="line"/>
      <point x="317.732" y="703.617"/>
      <point x="278.992" y="710.0"/>
      <point x="234.88299999999998" y="710.0" type="curve" smooth="yes"/>
      <point x="92.378" y="710.0"/>
      <point x="24.638999999999996" y="613.0859999999999"/>
    </contour>
  </outline>
</glyph>
<glyph name="D" format="2">
  <advance width="430.47499999999997"/>
  <unicode hex="0044"/>
  <anchor x="206.339" y="700.0" name="top"/>
  <outline>
    <contour>
      <point x="189.04399999999998" y="-10.0" type="curve" smooth="yes"/>
      <point x="341.87199999999996" y="-10.0"/>
      <point x="405.7715" y="93.38350000000001"/>
      <point x="405.7715" y="350.963" type="curve" smooth="yes"/>
      <point x="405.7715" y="606.8639999999999"/>
      <point x="349.046" y="710.0"/>
      <point x="188.76850000000002" y="710.0" type="curve" smooth="yes"/>
      <point x="137.5725" y="710.0"/>
      <point x="93.11699999999999" y="707.4485000000001"/>
      <point x="41.91349999999999" y="701.149" type="curve"/>
      <point x="41.91349999999999" y="-3.121" type="line"/>
      <point x="85.09800000000001" y="-7.640000000000001"/>
      <point x="135.18" y="-10.0"/>
    </contour>
    <contour>
      <point x="192.55200000000002" y="74.5705" type="curve" smooth="yes"/>
      <point x="174.538" y="74.5705"/>
      <point x="154.01700000000002" y="75.84149999999998"/>
      <point x="135.121" y="77.776" type="curve"/>
      <point x="135.121" y="620.808" type="line"/>
      <point x="153.05399999999997" y="622.864"/>
      <point x="175.79999999999998" y="624.1209999999999"/>
      <point x="192.5425" y="624.1209999999999" type="curve" smooth="yes"/>
      <point x="278.221" y="624.1209999999999"/>
      <point x="308.98400000000004" y="562.874"/>
      <point x="308.98400000000004" y="349.47200000000004" type="curve" smooth="yes"/>
      <point x="308.98400000000004" y="141.57549999999998"/>
      <point x="277.375" y="74.5705"/>
    </contour>
  </outline>
</glyph>
<glyph name="E" format="2">
  <advance width="361.9925"/>
  <unicode hex="0045"/>
  <anchor x="346.642" y="0.0" name="ogonek"/>
  <anchor x="194.18649999999997" y="0.0" name="bottom"/>
  <anchor x="191.57500000000002" y="700.0" name="top"/>
  <outline>
    <contour>
      <point x="41.91349999999999" y="0.0" type="line"/>
      <point x="346.85699999999997" y="0.0" type="line"/>
      <point x="346.85699999999997" y="90.735" type="line"/>
      <point x="135.6585" y="90.735" type="line"/>
      <point x="135.6585" y="314.70599999999996" type="line"/>
      <point x="314.7955" y="314.70599999999996" type="line"/>
      <point x="314.7955" y="401.5525" type="line"/>
      <point x="135.6585" y="401.5525" type="line"/>
      <point x="135.6585" y="607.6524999999999" type="line"/>
      <point x="334.54849999999993" y="607.6524999999999" type="line"/>
      <point x="334.54849999999993" y="700.0" type="line"/>
      <point x="41.91349999999999" y="700.0" type="line"/>
    </contour>
  </outline>
</glyph>
<glyph name="F" format="2">
  <advance width="343.4460000000001"/>
  <unicode hex="0046"/>
  <outline>
    <contour>
      <point x="41.91349999999999" y="0.0" type="line"/>
      <point x="135.981" y="0.0" type="line"/>
      <point x="135.981" y="284.412" type="line"/>
      <point x="300.54" y="284.412" type="line"/>
      <point x="300.54" y="375.881" type="line"/>
      <point x="135.121" y="375.881" type="line"/>
      <point x="135.121" y="607.2225" type="line"/>
      <point x="333.58099999999996" y="607.2225" type="line"/>
      <point x="333.58099999999996" y="700.0" type="line"/>
      <point x="41.91349999999999" y="700.0" type="line"/>
    </contour>
  </outline>
</glyph>
<glyph name="G" format="2">
  <advance width="406.596"/>
  <unicode hex="0047"/>
  <anchor x="219.585" y="700.0" name="top"/>
  <anchor x="220.465" y="0.0" name="bottom"/>
  <outline>
    <contour>
      <point x="24.638999999999996" y="341.862" type="curve" smooth="yes"/>
      <point x="24.638999999999996" y="99.19200000000001"/>
      <point x="84.913" y="-10.0"/>
      <point x="219.60299999999998" y="-10.0" type="curve" smooth="yes"/>
      <point x="281.35200000000003" y="-10.0"/>
      <point x="334.548" y="0.8190000000000002"/>
      <point x="374.16799999999995" y="23.35" type="curve"/>
      <point x="374.16799999999995" y="370.84400000000005" type="line"/>
      <point x="207.48499999999999" y="370.84400000000005" type="line"/>
      <point x="207.48499999999999" y="285.61" type="line"/>
      <point x="288.421" y="285.61" type="line"/>
      <point x="288.421" y="83.489" type="line"/>
      <point x="272.69800000000004" y="77.44899999999998"/>
      <point x="251.55900000000003" y="74.506"/>
      <point x="224.80300000000003" y="74.506" type="curve" smooth="yes"/>
      <point x="151.264" y="74.506"/>
      <point x="117.911" y="149.387"/>
      <point x="117.911" y="336.91700000000003" type="curve" smooth="yes"/>
      <point x="117.911" y="538.654"/>
      <point x="156.335" y="621.369"/>
      <point x="243.83499999999998" y="621.369" type="curve" smooth="yes"/>
      <point x="274.831" y="621.369"/>
      <point x="311.206" y="615.504"/>
      <point x="342.026" y="605.63" type="curve"/>
      <point x="358.954" y="689.592" type="line"/>
      <point x="325.878" y="701.96"/>
      <point x="277.274" y="710.0"/>
      <point x="234.163" y="710.0" type="curve" smooth="yes"/>
      <point x="89.605" y="710.0"/>
      <point x="24.638999999999996" y="597.5669999999999"/>
    </contour>
  </outline>
</glyph>
<glyph name="H" format="2">
  <advance width="443.05600000000004"/>
  <unicode hex="0048"/>
  <anchor x="221.75" y="700.0" name="top"/>
  <outline>
    <contour>
      <point x="41.891999999999996" y="0.0" type="line"/>
      <point x="134.77700000000002" y="0.0" type="line"/>
      <point x="134.77700000000002" y="263.122" type="line"/>
      <point x="308.279" y="263.122" type="line"/>
      <point x="308.279" y="0.0" type="line"/>
      <point x="401.164" y="0.0" type="line"/>
      <point x="401.164" y="700.0" type="line"/>
      <point x="308.279" y="700.0" type="line"/>
      <point x="308.279" y="355.92400000000004" type="line"/>
      <point x="134.77700000000002" y="355.92400000000004" type="line"/>
      <point x="134.77700000000002" y="700.0" type="line"/>
      <point x="41.891999999999996" y="700.0" type="line"/>
    </contour>
  </outline>
</glyph>
<glyph name="I" format="2">
  <advance width="176.669"/>
  <unicode hex="0049"/>
  <anchor x="134.77700000000002" y="0.0" name="ogonek"/>
  <anchor x="88.52799999999999" y="0.0" name="bottom"/>
  <anchor x="88.52799999999999" y="700.0" name="top"/>
  <outline>
    <contour>
      <point x="41.891999999999996" y="0.0" type="line"/>
      <point x="134.77700000000002" y="0.0" type="line"/>
      <point x="134.77700000000002" y="700.0" type="line"/>
      <point x="41.891999999999996" y="700.0" type="line"/>
    </contour>
  </outline>
</glyph>
<glyph name="J" format="2">
  <advance width="307.44599999999997"/>
  <unicode hex="004A"/>
  <anchor x="156.137" y="700.0" name="top"/>
  <outline>
    <contour>
      <point x="4.734" y="11.792" type="line"/>
      <point x="39.032000000000004" y="-1.1970000000000005"/>
      <point x="79.89500000000001" y="-10.057"/>
      <point x="122.317" y="-10.057" type="curve" smooth="yes"/>
      <point x="229.208" y="-10.057"/>
      <point x="270.90400000000005" y="53.438"/>
      <point x="270.90400000000005" y="160.272" type="curve" smooth="yes"/>
      <point x="270.90400000000005" y="700.0" type="line"/>
      <point x="33.818" y="700.0" type="line"/>
      <point x="33.818" y="608.66" type="line"/>
      <point x="178.019" y="608.66" type="line"/>
      <point x="178.019" y="188.403" type="line" smooth="yes"/>
      <point x="178.019" y="103.882"/>
      <point x="150.446" y="78.57400000000001"/>
      <point x="92.561" y="78.57400000000001" type="curve" smooth="yes"/>
      <point x="72.71300000000001" y="78.57400000000001"/>
      <point x="46.25900000000001" y="82.793"/>
      <point x="21.573" y="90.235" type="curve"/>
    </contour>
  </outline>
</glyph>
<glyph name="K" format="2">
  <advance width="414.22499999999997"/>
  <unicode hex="004B"/>
  <anchor x="209.52999999999997" y="700.0" name="top"/>
  <anchor x="219.82" y="0.0" name="bottom"/>
  <outline>
    <contour>
      <point x="384.45000000000005" y="-10.0" type="curve" smooth="yes"/>
      <point x="390.245" y="-10.0"/>
      <point x="396.25" y="-10.0"/>
      <point x="404.83000000000004" y="-8.0" type="curve"/>
      <point x="404.83000000000004" y="102.835" type="line"/>
      <point x="401.47" y="102.695"/>
      <point x="397.79" y="102.695"/>
      <point x="394.68" y="102.695" type="curve" smooth="yes"/>
      <point x="374.505" y="102.73"/>
      <point x="353.015" y="111.9"/>
      <point x="301.55499999999995" y="191.715" type="curve" smooth="yes"/>
      <point x="135.78" y="449.335" type="line"/>
      <point x="135.78" y="700.0" type="line"/>
      <point x="42.25" y="700.0" type="line"/>
      <point x="42.25" y="0.0" type="line"/>
      <point x="135.78" y="0.0" type="line"/>
      <point x="135.78" y="287.54499999999996" type="line"/>
      <point x="268.215" y="82.565" type="line" smooth="yes"/>
      <point x="309.375" y="18.945"/>
      <point x="342.305" y="-10.0"/>
    </contour>
    <contour>
      <point x="209.24499999999998" y="286.99" type="line"/>
      <point x="289.53499999999997" y="376.825"/>
      <point x="362.84999999999997" y="504.41499999999996"/>
      <point x="397.79499999999996" y="678.15" type="curve"/>
      <point x="318.20000000000005" y="702.285" type="line"/>
      <point x="284.115" y="543.55"/>
      <point x="210.99" y="424.84499999999997"/>
      <point x="157.25" y="358.985" type="curve"/>
    </contour>
  </outline>
</glyph>
<glyph name="L" format="2">
  <advance width="331.28999999999996"/>
  <unicode hex="004C"/>
  <anchor x="165.867" y="350.0" name="center"/>
  <anchor x="88.52799999999999" y="700.0" name="top"/>
  <anchor x="216.77499999999998" y="700.0" name="topright"/>
  <anchor x="182.45700000000002" y="0.0" name="bottom"/>
  <outline>
    <contour>
      <point x="41.891999999999996" y="0.0" type="line"/>
      <point x="322.21" y="0.0" type="line"/>
      <point x="322.21" y="90.093" type="line"/>
      <point x="135.164" y="90.093" type="line"/>
      <point x="135.164" y="700.0" type="line"/>
      <point x="41.891999999999996" y="700.0" type="line"/>
    </contour>
  </outline>
</glyph>
<glyph name="M" format="2">
  <advance width="505.92100000000005"/>
  <unicode hex="004D"/>
  <outline>
    <contour>
      <point x="41.992" y="0.0" type="line"/>
      <point x="126.836" y="0.0" type="line"/>
      <point x="126.836" y="527.392" type="line"/>
      <point x="227.844" y="212.92499999999998" type="line"/>
      <point x="276.30300000000005" y="212.92499999999998" type="line"/>
      <point x="379.08500000000004" y="527.838" type="line"/>
      <point x="379.08500000000004" y="0.0" type="line"/>
      <point x="463.929" y="0.0" type="line"/>
      <point x="463.929" y="700.0" type="line"/>
      <point x="368.23" y="700.0" type="line"/>
      <point x="254.68599999999998" y="357.257" type="line"/>
      <point x="141.236" y="700.0" type="line"/>
      <point x="41.992" y="700.0" type="line"/>
    </contour>
  </outline>
</glyph>
<glyph name="N" format="2">
  <advance width="444.1025"/>
  <unicode hex="004E"/>
  <anchor x="222.265" y="700.0" name="top"/>
  <anchor x="222.265" y="0.0" name="bottom"/>
  <outline>
    <contour>
      <point x="41.9275" y="0.0" type="line"/>
      <point x="125.3525" y="0.0" type="line"/>
      <point x="125.3525" y="490.42249999999996" type="line"/>
      <point x="307.68" y="-0.43" type="line"/>
      <point x="402.175" y="-0.43" type="line"/>
      <point x="402.175" y="700.0" type="line"/>
      <point x="318.75000000000006" y="700.0" type="line"/>
      <point x="318.75000000000006" y="196.7575" type="line"/>
      <point x="136.71" y="700.57" type="line"/>
      <point x="41.9275" y="700.57" type="line"/>
    </contour>
  </outline>
</glyph>
<glyph name="O" format="2">
  <advance width="438.1075"/>
  <unicode hex="004F"/>
  <anchor x="276.245" y="4.515000000000001" name="ogonek"/>
  <anchor x="218.465" y="700.0" name="top"/>
  <anchor x="327.2975" y="691.91" name="topright"/>
  <anchor x="218.5725" y="0.0" name="bottom"/>
  <outline>
    <contour>
      <point x="218.465" y="75.545" type="curve" smooth="yes"/>
      <point x="155.0775" y="75.545"/>
      <point x="120.1825" y="127.52499999999999"/>
      <point x="120.1825" y="349.1075" type="curve" smooth="yes"/>
      <point x="120.1825" y="573.1875"/>
      <point x="154.86249999999998" y="625.3149999999999"/>
      <point x="218.465" y="625.3149999999999" type="curve" smooth="yes"/>
      <point x="283.28249999999997" y="625.3149999999999"/>
      <point x="317.78249999999997" y="573.76"/>
      <point x="317.78249999999997" y="349.86" type="curve" smooth="yes"/>
      <point x="317.78249999999997" y="127.96"/>
      <point x="283.28249999999997" y="75.545"/>
    </contour>
    <contour>
      <point x="218.5725" y="-10.0" type="curve" smooth="yes"/>
      <point x="345.9425" y="-10.0"/>
      <point x="412.96" y="68.78"/>
      <point x="412.96" y="351.1125" type="curve" smooth="yes"/>
      <point x="412.96" y="631.65"/>
      <point x="346.84250000000003" y="710.0"/>
      <point x="218.465" y="710.0" type="curve" smooth="yes"/>
      <point x="90.8025" y="710.0"/>
      <point x="25.147499999999997" y="630.755"/>
      <point x="25.147499999999997" y="349.215" type="curve" smooth="yes"/>
      <point x="25.147499999999997" y="69.02499999999999"/>
      <point x="91.77" y="-10.0"/>
    </contour>
  </outline>
</glyph>
<glyph name="P" format="2">
  <advance width="403.75500000000005"/>
  <unicode hex="0050"/>
  <outline>
    <contour>
      <point x="41.891999999999996" y="0.0" type="line"/>
      <point x="135.164" y="0.0" type="line"/>
      <point x="135.164" y="233.525" type="line"/>
      <point x="167.28699999999998" y="231.064"/>
      <point x="178.537" y="231.007"/>
      <point x="209.665" y="231.007" type="curve" smooth="yes"/>
      <point x="332.961" y="231.007"/>
      <point x="387.02700000000004" y="305.753"/>
      <point x="387.02700000000004" y="478.52700000000004" type="curve" smooth="yes"/>
      <point x="387.02700000000004" y="644.4309999999999"/>
      <point x="341.69399999999996" y="710.0"/>
      <point x="190.472" y="710.0" type="curve" smooth="yes"/>
      <point x="164.693" y="710.0"/>
      <point x="116.43700000000001" y="708.3439999999999"/>
      <point x="41.891999999999996" y="702.826" type="curve"/>
    </contour>
    <contour>
      <point x="135.551" y="621.8400000000001" type="line"/>
      <point x="164.57399999999998" y="625.1680000000001"/>
      <point x="180.987" y="625.795"/>
      <point x="196.79" y="625.795" type="curve" smooth="yes"/>
      <point x="274.548" y="625.795"/>
      <point x="293.454" y="584.014"/>
      <point x="293.454" y="481.589" type="curve" smooth="yes"/>
      <point x="293.454" y="359.78799999999995"/>
      <point x="266.087" y="315.2060000000001"/>
      <point x="191.344" y="315.2060000000001" type="curve" smooth="yes"/>
      <point x="169.998" y="315.2060000000001"/>
      <point x="156.23000000000002" y="315.42"/>
      <point x="135.551" y="317.05" type="curve"/>
    </contour>
  </outline>
</glyph>
<glyph name="Q" format="2">
  <advance width="438.17199999999997"/>
  <unicode hex="0051"/>
  <outline>
    <contour>
      <point x="281.688" y="26.375999999999998" type="curve"/>
      <point x="209.60999999999999" y="5.598" type="line"/>
      <point x="230.524" y="-135.86"/>
      <point x="259.716" y="-190.529"/>
      <point x="327.79499999999996" y="-190.529" type="curve" smooth="yes"/>
      <point x="348.611" y="-190.529"/>
      <point x="372.024" y="-185.244"/>
      <point x="393.871" y="-176.717" type="curve"/>
      <point x="381.94500000000005" y="-88.85300000000001" type="line"/>
      <point x="368.613" y="-95.238"/>
      <point x="354.865" y="-99.394"/>
      <point x="343.33500000000004" y="-99.394" type="curve" smooth="yes"/>
      <point x="311.873" y="-99.394"/>
      <point x="297.595" y="-66.009"/>
    </contour>
    <component base="O"/>
  </outline>
</glyph>
<glyph name="R" format="2">
  <advance width="422.92"/>
  <unicode hex="0052"/>
  <anchor x="207.815" y="700.0" name="top"/>
  <anchor x="213.29999999999998" y="0.0" name="bottom"/>
  <outline>
    <contour>
      <point x="383.695" y="-10.0" type="curve" smooth="yes"/>
      <point x="398.475" y="-10.0"/>
      <point x="407.81" y="-7.25"/>
      <point x="415.14500000000004" y="-5.5" type="curve"/>
      <point x="412.505" y="92.84" type="line"/>
      <point x="410.545" y="92.7"/>
      <point x="402.82500000000005" y="92.345"/>
      <point x="401.255" y="92.345" type="curve" smooth="yes"/>
      <point x="371.665" y="92.345"/>
      <point x="344.89000000000004" y="117.12"/>
      <point x="287.71000000000004" y="289.09999999999997" type="curve"/>
      <point x="351.74" y="316.195"/>
      <point x="385.235" y="388.195"/>
      <point x="385.235" y="500.805" type="curve" smooth="yes"/>
      <point x="385.235" y="651.815"/>
      <point x="324.44" y="710.0"/>
      <point x="194.525" y="710.0" type="curve" smooth="yes"/>
      <point x="143.78" y="710.0"/>
      <point x="96.925" y="707.14"/>
      <point x="42.25" y="702.03" type="curve"/>
      <point x="42.25" y="0.0" type="line"/>
      <point x="134.48999999999998" y="0.0" type="line"/>
      <point x="134.48999999999998" y="259.52500000000003" type="line"/>
      <point x="147.03" y="258.49"/>
      <point x="163.68" y="258.45500000000004"/>
      <point x="178.25000000000003" y="258.45500000000004" type="curve" smooth="yes"/>
      <point x="185.48" y="258.45500000000004"/>
      <point x="197.3" y="259.24"/>
      <point x="204.42499999999998" y="260.345" type="curve"/>
      <point x="284.06" y="17.169999999999998"/>
      <point x="323.07" y="-10.0"/>
    </contour>
    <contour>
      <point x="189.35500000000002" y="342.52500000000003" type="curve" smooth="yes"/>
      <point x="170.055" y="342.52500000000003"/>
      <point x="154.08" y="343.41999999999996"/>
      <point x="134.48999999999998" y="344.66999999999996" type="curve"/>
      <point x="134.48999999999998" y="621.495" type="line"/>
      <point x="159.125" y="624.745"/>
      <point x="173.79000000000002" y="625.53"/>
      <point x="193.375" y="625.53" type="curve" smooth="yes"/>
      <point x="268.745" y="625.53"/>
      <point x="290.20000000000005" y="585.49"/>
      <point x="290.20000000000005" y="486.48" type="curve" smooth="yes"/>
      <point x="290.20000000000005" y="387.01"/>
      <point x="258.21" y="342.52500000000003"/>
    </contour>
  </outline>
</glyph>
<glyph name="S" format="2">
  <advance width="378.72499999999997"/>
  <unicode hex="0053"/>
  <anchor x="194.85249999999996" y="700.0" name="top"/>
  <anchor x="186.245" y="0.0" name="bottom"/>
  <outline>
    <contour>
      <point x="339.2625" y="684.3299999999999" type="line"/>
      <point x="311.315" y="697.4124999999999"/>
      <point x="254.9625" y="710.0"/>
      <point x="204.585" y="710.0" type="curve" smooth="yes"/>
      <point x="80.06500000000001" y="710.0"/>
      <point x="24.499999999999996" y="632.3825"/>
      <point x="24.499999999999996" y="537.7574999999999" type="curve" smooth="yes"/>
      <point x="24.499999999999996" y="438.625"/>
      <point x="73.66" y="376.025"/>
      <point x="142.5775" y="322.21000000000004" type="curve" smooth="yes"/>
      <point x="214.62500000000003" y="267.78000000000003"/>
      <point x="267.26250000000005" y="225.06250000000003"/>
      <point x="267.26250000000005" y="159.88250000000002" type="curve" smooth="yes"/>
      <point x="267.26250000000005" y="101.93"/>
      <point x="224.10000000000002" y="74.93"/>
      <point x="165.30749999999998" y="74.93" type="curve" smooth="yes"/>
      <point x="125.11249999999998" y="74.93"/>
      <point x="77.665" y="83.6875"/>
      <point x="33.152499999999996" y="100.665" type="curve"/>
      <point x="12.8975" y="20.924999999999997" type="line"/>
      <point x="56.714999999999996" y="0.5375000000000001"/>
      <point x="116.70750000000001" y="-10.0"/>
      <point x="166.70499999999998" y="-10.0" type="curve" smooth="yes"/>
      <point x="287.20000000000005" y="-10.0"/>
      <point x="359.9675" y="56.5275"/>
      <point x="359.9675" y="165.64249999999998" type="curve" smooth="yes"/>
      <point x="359.9675" y="268.8225"/>
      <point x="306.15250000000003" y="328.38000000000005"/>
      <point x="232.47" y="381.51" type="curve" smooth="yes"/>
      <point x="163.7575" y="431.71"/>
      <point x="118.495" y="472.97"/>
      <point x="118.495" y="537.8650000000001" type="curve" smooth="yes"/>
      <point x="118.495" y="593.01"/>
      <point x="153.99750000000003" y="623.5949999999999"/>
      <point x="211.35750000000002" y="623.5949999999999" type="curve" smooth="yes"/>
      <point x="247.76" y="623.5949999999999"/>
      <point x="284.8625" y="617.5949999999999"/>
      <point x="318.935" y="604.2975" type="curve"/>
    </contour>
  </outline>
</glyph>
<glyph name="T" format="2">
  <advance width="367.55799999999994"/>
  <unicode hex="0054"/>
  <anchor x="183.77899999999997" y="700.0" name="top"/>
  <anchor x="183.77899999999997" y="0.0" name="bottom"/>
  <outline>
    <contour>
      <point x="359.276" y="608.4159999999999" type="line"/>
      <point x="359.276" y="700.0" type="line"/>
      <point x="8.282" y="700.0" type="line"/>
      <point x="8.282" y="608.4159999999999" type="line"/>
      <point x="137.53" y="608.4159999999999" type="line"/>
      <point x="137.53" y="0.0" type="line"/>
      <point x="230.415" y="0.0" type="line"/>
      <point x="230.415" y="608.4159999999999" type="line"/>
    </contour>
  </outline>
</glyph>
<glyph name="U" format="2">
  <advance width="431.47"/>
  <unicode hex="0055"/>
  <anchor x="269.018" y="0.774" name="ogonek"/>
  <anchor x="216.185" y="700.0" name="top"/>
  <anchor x="394.928" y="700.0" name="topright"/>
  <anchor x="216.185" y="0.0" name="bottom"/>
  <outline>
    <contour>
      <point x="36.541999999999994" y="177.916" type="line"/>
      <point x="36.541999999999994" y="33.22"/>
      <point x="112.75800000000001" y="-10.0"/>
      <point x="215.411" y="-10.0" type="curve" smooth="yes"/>
      <point x="320.773" y="-10.0"/>
      <point x="394.928" y="33.22"/>
      <point x="394.928" y="177.916" type="curve" smooth="yes"/>
      <point x="394.928" y="700.0" type="line"/>
      <point x="301.613" y="700.0" type="line"/>
      <point x="301.613" y="169.617" type="line" smooth="yes"/>
      <point x="301.613" y="92.57300000000001"/>
      <point x="260.89300000000003" y="74.973"/>
      <point x="215.54" y="74.973" type="curve" smooth="yes"/>
      <point x="170.875" y="74.973"/>
      <point x="129.083" y="92.186"/>
      <point x="129.083" y="169.617" type="curve" smooth="yes"/>
      <point x="129.083" y="700.0" type="line"/>
      <point x="36.541999999999994" y="700.0" type="line"/>
    </contour>
  </outline>
</glyph>
<glyph name="V" format="2">
  <advance width="407.66900000000004"/>
  <unicode hex="0056"/>
  <outline>
    <contour>
      <point x="147.733" y="0.0" type="line"/>
      <point x="263.075" y="0.0" type="line"/>
      <point x="402.759" y="699.575" type="line"/>
      <point x="304.83799999999997" y="701.468" type="line"/>
      <point x="205.48999999999998" y="109.45" type="line"/>
      <point x="102.96" y="701.468" type="line"/>
      <point x="4.91" y="699.575" type="line"/>
    </contour>
  </outline>
</glyph>
<glyph name="W" format="2">
  <advance width="542.24"/>
  <unicode hex="0057"/>
  <anchor x="270.995" y="700.0" name="top"/>
  <anchor x="270.995" y="0.0" name="bottom"/>
  <outline>
    <contour>
      <point x="444.736" y="0.0" type="line"/>
      <point x="537.298" y="699.739" type="line"/>
      <point x="436.32099999999997" y="701.304" type="line"/>
      <point x="391.668" y="129.13899999999998" type="line"/>
      <point x="309.803" y="674.578" type="line"/>
      <point x="236.35" y="674.578" type="line"/>
      <point x="153.75400000000002" y="128.96699999999998" type="line"/>
      <point x="105.661" y="701.304" type="line"/>
      <point x="4.942" y="699.739" type="line"/>
      <point x="96.964" y="0.0" type="line"/>
      <point x="194.73000000000002" y="0.0" type="line"/>
      <point x="269.04099999999994" y="501.045" type="line"/>
      <point x="340.877" y="0.0" type="line"/>
    </contour>
  </outline>
</glyph>
<glyph name="X" format="2">
  <advance width="418.98"/>
  <unicode hex="0058"/>
  <outline>
    <contour>
      <point x="11.24" y="1.4250000000000003" type="line"/>
      <point x="118.61" y="-2.565" type="line"/>
      <point x="208.4925" y="286.8425" type="line"/>
      <point x="298.365" y="-2.565" type="line"/>
      <point x="406.4525" y="1.4250000000000003" type="line"/>
      <point x="276.32000000000005" y="358.0325" type="line"/>
      <point x="398.41749999999996" y="698.1125" type="line"/>
      <point x="293.23249999999996" y="701.8875" type="line"/>
      <point x="212.1025" y="428.995" type="line"/>
      <point x="128.33" y="701.8875" type="line"/>
      <point x="21.317500000000003" y="698.1125" type="line"/>
      <point x="144.2" y="357.92" type="line"/>
    </contour>
  </outline>
</glyph>
<glyph name="Y" format="2">
  <advance width="402.03999999999996"/>
  <unicode hex="0059"/>
  <anchor x="201.53300000000002" y="700.0" name="top"/>
  <anchor x="201.419" y="0.0" name="bottom"/>
  <outline>
    <contour>
      <point x="155.296" y="0.0" type="line"/>
      <point x="248.18099999999998" y="0.0" type="line"/>
      <point x="248.18099999999998" y="269.65000000000003" type="line"/>
      <point x="395.69100000000003" y="698.005" type="line"/>
      <point x="292.678" y="701.995" type="line"/>
      <point x="202.01800000000003" y="341.238" type="line"/>
      <point x="107.482" y="701.995" type="line"/>
      <point x="4.297000000000001" y="698.005" type="line"/>
      <point x="155.296" y="269.65000000000003" type="line"/>
    </contour>
  </outline>
</glyph>
<glyph name="Z" format="2">
  <advance width="381.364"/>
  <unicode hex="005A"/>
  <anchor x="195.19299999999998" y="350.0" name="center"/>
  <anchor x="195.19299999999998" y="0.0" name="bottom"/>
  <anchor x="196.404" y="700.0" name="top"/>
  <outline>
    <contour>
      <point x="16.065" y="0.0" type="line"/>
      <point x="368.873" y="0.0" type="line"/>
      <point x="368.873" y="86.954" type="line"/>
      <point x="110.973" y="86.954" type="line"/>
      <point x="110.973" y="88.309" type="line"/>
      <point x="355.486" y="613.6200000000001" type="line"/>
      <point x="355.486" y="700.0" type="line"/>
      <point x="27.488" y="700.0" type="line"/>
      <point x="27.488" y="613.6909999999999" type="line"/>
      <point x="259.288" y="613.6909999999999" type="line"/>
      <point x="259.288" y="611.6909999999999" type="line"/>
      <point x="16.065" y="87.025" type="line"/>
    </contour>
  </outline>
</glyph>
<glyph name="bracketleft" format="2">
  <advance width="228.27800000000002"/>
  <unicode hex="005B"/>
  <outline>
    <contour>
      <point x="113.956" y="-134.53" type="line"/>
      <point x="113.956" y="664.5300000000001" type="line"/>
      <point x="217.84799999999998" y="664.5300000000001" type="line"/>
      <point x="217.84799999999998" y="740.0" type="line"/>
      <point x="41.19499999999999" y="740.0" type="line"/>
      <point x="41.19499999999999" y="-210.0" type="line"/>
      <point x="217.84799999999998" y="-210.0" type="line"/>
      <point x="217.84799999999998" y="-134.53" type="line"/>
    </contour>
  </outline>
</glyph>
<glyph name="backslash" format="2">
  <advance width="301.329"/>
  <unicode hex="005C"/>
  <outline>
    <contour>
      <point x="76.88199999999999" y="740.0" type="line"/>
      <point x="-1.8440000000000003" y="740.0" type="line"/>
      <point x="224.83399999999997" y="-210.0" type="line"/>
      <point x="303.17299999999994" y="-210.0" type="line"/>
    </contour>
  </outline>
</glyph>
<glyph name="bracketright" format="2">
  <advance width="228.27800000000002"/>
  <unicode hex="005D"/>
  <outline>
    <contour>
      <point x="10.43" y="-134.53" type="line"/>
      <point x="10.43" y="-210.0" type="line"/>
      <point x="187.083" y="-210.0" type="line"/>
      <point x="187.083" y="740.0" type="line"/>
      <point x="10.43" y="740.0" type="line"/>
      <point x="10.43" y="664.5300000000001" type="line"/>
      <point x="114.32199999999999" y="664.5300000000001" type="line"/>
      <point x="114.32199999999999" y="-134.53" type="line"/>
    </contour>
  </outline>
</glyph>
<glyph name="asciicircum" format="2">
  <advance width="417.896"/>
  <unicode hex="005E"/>
  <outline>
    <contour>
      <point x="41.835" y="261.19899999999996" type="line"/>
      <point x="112.399" y="261.19899999999996" type="line"/>
      <point x="208.948" y="609.2389999999999" type="line"/>
      <point x="305.927" y="261.19899999999996" type="line"/>
      <point x="376.061" y="261.19899999999996" type="line"/>
      <point x="254.251" y="705.7" type="line"/>
      <point x="163.645" y="705.7" type="line"/>
    </contour>
  </outline>
</glyph>
<glyph name="underscore" format="2">
  <advance width="655.8860000000001"/>
  <unicode hex="005F"/>
  <outline>
    <contour>
      <point x="8.6" y="-167.433" type="line"/>
      <point x="647.2860000000001" y="-167.433" type="line"/>
      <point x="647.2860000000001" y="-83.793" type="line"/>
      <point x="8.6" y="-83.793" type="line"/>
    </contour>
  </outline>
</glyph>
<glyph name="a" format="2">
  <advance width="373.26"/>
  <unicode hex="0061"/>
  <anchor x="372.86" y="6.74" name="ogonek"/>
  <anchor x="179.845" y="0.0" name="bottom"/>
  <anchor x="177.86499999999998" y="538.6" name="top"/>
  <outline>
    <contour>
      <point x="12.13" y="132.01" type="curve" smooth="yes"/>
      <point x="12.13" y="49.24"/>
      <point x="50.385000000000005" y="-10.0"/>
      <point x="123.9" y="-10.0" type="curve" smooth="yes"/>
      <point x="172.655" y="-10.0"/>
      <point x="205.205" y="9.764999999999999"/>
      <point x="236.785" y="39.765" type="curve"/>
      <point x="246.67499999999998" y="7.345000000000001"/>
      <point x="269.91" y="-10.0"/>
      <point x="310.2" y="-10.0" type="curve" smooth="yes"/>
      <point x="336.61" y="-10.0"/>
      <point x="355.59999999999997" y="-3.4850000000000003"/>
      <point x="372.86" y="6.955" type="curve"/>
      <point x="363.745" y="86.735" type="line"/>
      <point x="355.935" y="82.595"/>
      <point x="347.975" y="81.455"/>
      <point x="340.76500000000004" y="81.455" type="curve" smooth="yes"/>
      <point x="329.49499999999995" y="81.455"/>
      <point x="321.75" y="88.875"/>
      <point x="321.75" y="116.47" type="curve" smooth="yes"/>
      <point x="321.75" y="388.02" type="line" smooth="yes"/>
      <point x="321.75" y="491.16499999999996"/>
      <point x="276.68" y="548.6"/>
      <point x="164.44" y="548.6" type="curve" smooth="yes"/>
      <point x="126.905" y="548.6"/>
      <point x="77.31" y="539.7299999999999"/>
      <point x="35.720000000000006" y="523.72" type="curve"/>
      <point x="55.37" y="440.215" type="line"/>
      <point x="97.575" y="454.545"/>
      <point x="131.805" y="457.65"/>
      <point x="155.01500000000001" y="457.65" type="curve" smooth="yes"/>
      <point x="201.11" y="457.65"/>
      <point x="229.76000000000002" y="431.835"/>
      <point x="229.76000000000002" y="385.225" type="curve" smooth="yes"/>
      <point x="229.76000000000002" y="308.13" type="line"/>
      <point x="91.81500000000001" y="287.43"/>
      <point x="12.13" y="252.715"/>
    </contour>
    <contour>
      <point x="103.725" y="141.525" type="curve" smooth="yes"/>
      <point x="103.725" y="214.695"/>
      <point x="159.32" y="232.64499999999998"/>
      <point x="229.76000000000002" y="243.55" type="curve"/>
      <point x="229.76000000000002" y="103.60000000000001" type="line"/>
      <point x="212.505" y="82.205"/>
      <point x="184.8" y="65.11500000000001"/>
      <point x="155.535" y="65.11500000000001" type="curve" smooth="yes"/>
      <point x="123.55" y="65.11500000000001"/>
      <point x="103.725" y="90.935"/>
    </contour>
  </outline>
</glyph>
<glyph name="b" format="2">
  <advance width="380.957"/>
  <unicode hex="0062"/>
  <outline>
    <contour>
      <point x="39.315" y="11.591" type="line"/>
      <point x="86.905" y="-2.261"/>
      <point x="134.105" y="-10.0"/>
      <point x="172.90800000000002" y="-10.0" type="curve" smooth="yes"/>
      <point x="305.28200000000004" y="-10.0"/>
      <point x="356.74499999999995" y="70.289"/>
      <point x="356.74499999999995" y="283.608" type="curve" smooth="yes"/>
      <point x="356.74499999999995" y="459.543"/>
      <point x="312.505" y="548.6"/>
      <point x="224.95999999999998" y="548.6" type="curve" smooth="yes"/>
      <point x="194.408" y="548.6"/>
      <point x="158.308" y="536.714"/>
      <point x="131.34" y="518.145" type="curve"/>
      <point x="131.34" y="740.0" type="line"/>
      <point x="39.315" y="740.0" type="line"/>
    </contour>
    <contour>
      <point x="131.34" y="71.595" type="curve"/>
      <point x="131.34" y="440.96999999999997" type="line"/>
      <point x="155.887" y="457.428"/>
      <point x="172.493" y="463.32"/>
      <point x="194.01500000000001" y="463.32" type="curve" smooth="yes"/>
      <point x="237.70600000000002" y="463.32"/>
      <point x="260.29099999999994" y="405.389"/>
      <point x="260.29099999999994" y="274.87899999999996" type="curve" smooth="yes"/>
      <point x="260.29099999999994" y="112.863"/>
      <point x="237.732" y="64.089"/>
      <point x="176.66400000000002" y="64.089" type="curve" smooth="yes"/>
      <point x="163.79399999999998" y="64.089"/>
      <point x="151.36499999999998" y="66.23"/>
    </contour>
  </outline>
</glyph>
<glyph name="c" format="2">
  <advance width="324.893"/>
  <unicode hex="0063"/>
  <anchor x="196.34500000000003" y="538.6" name="top"/>
  <anchor x="199.438" y="0.0" name="bottom"/>
  <outline>
    <contour>
      <point x="24.642" y="265.464" type="curve" smooth="yes"/>
      <point x="24.642" y="75.236"/>
      <point x="80.61099999999999" y="-10.0"/>
      <point x="197.19299999999998" y="-10.0" type="curve" smooth="yes"/>
      <point x="235.65099999999998" y="-10.0"/>
      <point x="284.14400000000006" y="-2.705"/>
      <point x="311.35200000000003" y="7.039" type="curve"/>
      <point x="293.033" y="86.342" type="line"/>
      <point x="269.263" y="80.93799999999999"/>
      <point x="240.108" y="76.99699999999999"/>
      <point x="217.631" y="76.99699999999999" type="curve" smooth="yes"/>
      <point x="153.973" y="76.99699999999999"/>
      <point x="119.376" y="122.619"/>
      <point x="119.376" y="265.181" type="curve" smooth="yes"/>
      <point x="119.376" y="415.727"/>
      <point x="153.41900000000004" y="461.431"/>
      <point x="220.988" y="461.431" type="curve" smooth="yes"/>
      <point x="244.13500000000002" y="461.431"/>
      <point x="267.308" y="458.375"/>
      <point x="289.28299999999996" y="452.89000000000004" type="curve"/>
      <point x="304.41999999999996" y="535.031" type="line"/>
      <point x="279.17999999999995" y="543.91"/>
      <point x="240.006" y="548.6"/>
      <point x="206.44500000000002" y="548.6" type="curve" smooth="yes"/>
      <point x="84.06299999999999" y="548.6"/>
      <point x="24.642" y="460.86199999999997"/>
    </contour>
  </outline>
</glyph>
<glyph name="d" format="2">
  <advance width="381.43"/>
  <unicode hex="0064"/>
  <anchor x="190.07700000000003" y="275.0" name="center"/>
  <anchor x="189.35649999999998" y="740.0" name="top"/>
  <anchor x="395.06" y="740.0" name="topright"/>
  <anchor x="190.07700000000003" y="0.0" name="bottom"/>
  <outline>
    <contour>
      <point x="260.367" y="-0.215" type="line"/>
      <point x="342.2225" y="-0.215" type="line"/>
      <point x="342.2225" y="740.0" type="line"/>
      <point x="249.55250000000004" y="740.0" type="line"/>
      <point x="249.55250000000004" y="541.1005" type="line"/>
      <point x="229.53500000000003" y="546.287"/>
      <point x="209.297" y="548.6"/>
      <point x="191.279" y="548.6" type="curve" smooth="yes"/>
      <point x="77.094" y="548.6"/>
      <point x="24.147499999999997" y="459.02299999999997"/>
      <point x="24.147499999999997" y="258.4965" type="curve" smooth="yes"/>
      <point x="24.147499999999997" y="81.818"/>
      <point x="69.653" y="-10.0"/>
      <point x="155.5335" y="-10.0" type="curve" smooth="yes"/>
      <point x="189.59" y="-10.0"/>
      <point x="223.469" y="0.8599999999999999"/>
      <point x="251.38" y="21.107499999999998" type="curve"/>
    </contour>
    <contour>
      <point x="249.5525" y="95.43700000000001" type="line"/>
      <point x="226.2095" y="80.355"/>
      <point x="208.7435" y="74.3555"/>
      <point x="187.246" y="74.3555" type="curve" smooth="yes"/>
      <point x="143.853" y="74.3555"/>
      <point x="121.22500000000001" y="133.63"/>
      <point x="121.22500000000001" y="270.214" type="curve" smooth="yes"/>
      <point x="121.22500000000001" y="425.73699999999997"/>
      <point x="143.6335" y="473.09200000000004"/>
      <point x="204.164" y="473.09200000000004" type="curve" smooth="yes"/>
      <point x="217.59300000000002" y="473.09200000000004"/>
      <point x="229.93300000000002" y="471.1015"/>
      <point x="249.5525" y="464.597" type="curve"/>
    </contour>
  </outline>
</glyph>
<glyph name="e" format="2">
  <advance width="368.542"/>
  <unicode hex="0065"/>
  <anchor x="306.12100000000004" y="6.557000000000001" name="ogonek"/>
  <anchor x="193.09" y="0.0" name="bottom"/>
  <anchor x="193.446" y="538.6" name="top"/>
  <outline>
    <contour>
      <point x="194.399" y="-10.0" type="curve" smooth="yes"/>
      <point x="248.19299999999998" y="-10.0"/>
      <point x="294.92400000000004" y="-1.481"/>
      <point x="339.815" y="16.898999999999997" type="curve"/>
      <point x="326.874" y="94.482" type="line"/>
      <point x="289.424" y="82.78099999999999"/>
      <point x="250.77800000000002" y="75.01899999999999"/>
      <point x="215.38" y="75.01899999999999" type="curve" smooth="yes"/>
      <point x="145.559" y="75.01899999999999"/>
      <point x="119.075" y="113.80499999999999"/>
      <point x="119.075" y="229.086" type="curve" smooth="yes"/>
      <point x="119.075" y="234.66500000000002"/>
      <point x="119.089" y="240.141"/>
      <point x="119.318" y="245.70600000000002" type="curve"/>
      <point x="207.075" y="246.781"/>
      <point x="299.65799999999996" y="257.85599999999994"/>
      <point x="345.90299999999996" y="264.244" type="curve"/>
      <point x="346.132" y="276.101"/>
      <point x="347.118" y="303.53400000000005"/>
      <point x="347.118" y="313.17499999999995" type="curve" smooth="yes"/>
      <point x="347.118" y="481.594"/>
      <point x="300.672" y="548.6"/>
      <point x="200.175" y="548.6" type="curve" smooth="yes"/>
      <point x="91.458" y="548.6"/>
      <point x="24.47" y="478.621"/>
      <point x="24.47" y="257.08099999999996" type="curve" smooth="yes"/>
      <point x="24.47" y="65.857"/>
      <point x="79.721" y="-10.0"/>
    </contour>
    <contour>
      <point x="119.575" y="313.61400000000003" type="curve"/>
      <point x="125.84999999999998" y="446.38000000000005"/>
      <point x="156.72899999999996" y="474.672"/>
      <point x="195.01500000000001" y="474.672" type="curve" smooth="yes"/>
      <point x="235.32399999999998" y="474.672"/>
      <point x="255.294" y="438.35799999999995"/>
      <point x="255.72400000000002" y="322.197" type="curve"/>
      <point x="235.421" y="318.819"/>
      <point x="174.624" y="313.829"/>
    </contour>
  </outline>
</glyph>
<glyph name="f" format="2">
  <advance width="263.814"/>
  <unicode hex="0066"/>
  <outline>
    <contour>
      <point x="70.61800000000001" y="0.0" type="line"/>
      <point x="160.923" y="0.0" type="line"/>
      <point x="160.923" y="424.78099999999995" type="line"/>
      <point x="250.07999999999998" y="424.78099999999995" type="line"/>
      <point x="250.07999999999998" y="501.415" type="line"/>
      <point x="161.31" y="501.415" type="line"/>
      <point x="161.31" y="523.634" type="line" smooth="yes"/>
      <point x="161.31" y="626.5509999999999"/>
      <point x="185.624" y="668.392"/>
      <point x="237.01500000000001" y="668.392" type="curve" smooth="yes"/>
      <point x="252.89199999999997" y="668.392"/>
      <point x="269.216" y="666.077"/>
      <point x="289.82800000000003" y="659.5490000000001" type="curve"/>
      <point x="303.98999999999995" y="731.886" type="line"/>
      <point x="271.963" y="744.906"/>
      <point x="244.493" y="750.057"/>
      <point x="214.42700000000002" y="750.057" type="curve" smooth="yes"/>
      <point x="119.158" y="750.057"/>
      <point x="70.61800000000001" y="677.848"/>
      <point x="70.61800000000001" y="524.666" type="curve" smooth="yes"/>
      <point x="70.61800000000001" y="501.415" type="line"/>
      <point x="10.745000000000001" y="494.48300000000006" type="line"/>
      <point x="10.745000000000001" y="424.78099999999995" type="line"/>
      <point x="70.61800000000001" y="424.78099999999995" type="line"/>
    </contour>
  </outline>
</glyph>
<glyph name="g" format="2">
  <advance width="385.61299999999994"/>
  <unicode hex="0067"/>
  <anchor x="184.976" y="538.6" name="top"/>
  <anchor x="192.828" y="-211.0" name="bottom"/>
  <outline>
    <contour>
      <point x="181.811" y="-220.0" type="curve" smooth="yes"/>
      <point x="306.777" y="-220.0"/>
      <point x="373.626" y="-155.71299999999997"/>
      <point x="373.626" y="-48.887" type="curve" smooth="yes"/>
      <point x="373.626" y="42.185"/>
      <point x="327.98900000000003" y="95.52799999999999"/>
      <point x="244.898" y="95.52799999999999" type="curve" smooth="yes"/>
      <point x="163.628" y="95.52799999999999" type="line" smooth="yes"/>
      <point x="125.62199999999999" y="95.52799999999999"/>
      <point x="107.63100000000001" y="111.656"/>
      <point x="107.63100000000001" y="140.925" type="curve" smooth="yes"/>
      <point x="107.63100000000001" y="169.876"/>
      <point x="119.91499999999999" y="186.648"/>
      <point x="145.998" y="204.955" type="curve"/>
      <point x="95.32600000000001" y="226.752" type="line"/>
      <point x="58.27" y="199.374"/>
      <point x="34.222" y="164.65500000000003"/>
      <point x="34.222" y="115.803" type="curve" smooth="yes"/>
      <point x="34.222" y="53.254"/>
      <point x="75.85699999999999" y="8.789000000000001"/>
      <point x="153.266" y="8.789000000000001" type="curve" smooth="yes"/>
      <point x="223.73899999999998" y="8.789000000000001" type="line" smooth="yes"/>
      <point x="267.27799999999996" y="8.789000000000001"/>
      <point x="287.836" y="-15.072"/>
      <point x="287.836" y="-58.319" type="curve" smooth="yes"/>
      <point x="287.836" y="-110.439"/>
      <point x="254.94099999999997" y="-141.001"/>
      <point x="188.26100000000002" y="-141.001" type="curve" smooth="yes"/>
      <point x="126.433" y="-141.001"/>
      <point x="94.879" y="-113.85"/>
      <point x="94.879" y="-58.986999999999995" type="curve" smooth="yes"/>
      <point x="94.879" y="-22.883"/>
      <point x="109.49600000000001" y="1.2769999999999997"/>
      <point x="136.536" y="21.929000000000006" type="curve"/>
      <point x="79.957" y="42.46" type="line"/>
      <point x="38.653000000000006" y="14.882"/>
      <point x="17.474" y="-24.323"/>
      <point x="17.474" y="-79.856" type="curve" smooth="yes"/>
      <point x="17.474" y="-171.79"/>
      <point x="76.28" y="-220.0"/>
    </contour>
    <contour>
      <point x="187.07100000000003" y="187.127" type="curve" smooth="yes"/>
      <point x="284.221" y="187.127"/>
      <point x="334.453" y="248.00199999999998"/>
      <point x="334.453" y="367.7" type="curve" smooth="yes"/>
      <point x="334.453" y="487.613"/>
      <point x="284.221" y="548.6"/>
      <point x="187.07100000000003" y="548.6" type="curve" smooth="yes"/>
      <point x="89.27600000000001" y="548.6"/>
      <point x="39.044" y="487.613"/>
      <point x="39.044" y="367.7" type="curve" smooth="yes"/>
      <point x="39.044" y="248.00199999999998"/>
      <point x="89.27600000000001" y="187.127"/>
    </contour>
    <contour>
      <point x="187.07100000000003" y="260.95200000000006" type="curve" smooth="yes"/>
      <point x="146.856" y="260.95200000000006"/>
      <point x="128.059" y="290.91099999999994"/>
      <point x="128.059" y="367.7" type="curve" smooth="yes"/>
      <point x="128.059" y="445.045"/>
      <point x="146.856" y="474.99"/>
      <point x="187.07100000000003" y="474.99" type="curve" smooth="yes"/>
      <point x="227.286" y="474.99"/>
      <point x="245.43799999999996" y="445.045"/>
      <point x="245.43799999999996" y="367.7" type="curve" smooth="yes"/>
      <point x="245.43799999999996" y="290.91099999999994"/>
      <point x="227.286" y="260.95200000000006"/>
    </contour>
    <contour>
      <point x="306.15900000000005" y="443.674" type="line"/>
      <point x="318.21900000000005" y="469.02299999999997"/>
      <point x="332.569" y="480.38699999999994"/>
      <point x="350.22700000000003" y="480.38699999999994" type="curve" smooth="yes"/>
      <point x="358.877" y="480.38699999999994"/>
      <point x="364.401" y="479.513"/>
      <point x="370.21" y="478.055" type="curve"/>
      <point x="382.404" y="558.6850000000001" type="line"/>
      <point x="373.702" y="562.9380000000001"/>
      <point x="362.4150000000001" y="565.3169999999999"/>
      <point x="349.367" y="565.3169999999999" type="curve" smooth="yes"/>
      <point x="315.13200000000006" y="565.3169999999999"/>
      <point x="287.295" y="546.158"/>
      <point x="270.906" y="509.245" type="curve"/>
    </contour>
  </outline>
</glyph>
<glyph name="h" format="2">
  <advance width="384.3354999999999"/>
  <unicode hex="0068"/>
  <anchor x="191.8615" y="395.0" name="center"/>
  <anchor x="192.29149999999998" y="0.0" name="bottom"/>
  <anchor x="196.6655" y="740.0" name="top"/>
  <outline>
    <contour>
      <point x="39.207499999999996" y="0.0" type="line"/>
      <point x="131.555" y="0.0" type="line"/>
      <point x="131.555" y="438.90999999999997" type="line"/>
      <point x="152.768" y="452.675"/>
      <point x="178.1435" y="461.8795"/>
      <point x="200.702" y="461.8795" type="curve" smooth="yes"/>
      <point x="234.581" y="461.8795"/>
      <point x="253.10299999999998" y="442.06899999999996"/>
      <point x="253.10299999999998" y="401.7405" type="curve" smooth="yes"/>
      <point x="253.10299999999998" y="0.0" type="line"/>
      <point x="345.773" y="0.0" type="line"/>
      <point x="345.773" y="425.8205" type="line" smooth="yes"/>
      <point x="345.773" y="513.1080000000001"/>
      <point x="303.59950000000003" y="548.6"/>
      <point x="241.14399999999998" y="548.6" type="curve" smooth="yes"/>
      <point x="203.49950000000004" y="548.6"/>
      <point x="164.761" y="535.1934999999999"/>
      <point x="131.555" y="510.32750000000004" type="curve"/>
      <point x="131.555" y="740.0" type="line"/>
      <point x="39.207499999999996" y="740.0" type="line"/>
    </contour>
  </outline>
</glyph>
<glyph name="i" format="2">
  <advance width="170.655"/>
  <unicode hex="0069"/>
  <anchor x="131.28300000000002" y="0.0" name="ogonek"/>
  <anchor x="85.52099999999999" y="0.0" name="bottom"/>
  <outline>
    <contour>
      <point x="85.52099999999999" y="630.603" type="curve" smooth="yes"/>
      <point x="123.973" y="630.603"/>
      <point x="139.33800000000002" y="647.126"/>
      <point x="139.33800000000002" y="687.593" type="curve" smooth="yes"/>
      <point x="139.33800000000002" y="728.834"/>
      <point x="123.19900000000001" y="744.97"/>
      <point x="85.52099999999999" y="744.97" type="curve" smooth="yes"/>
      <point x="47.455999999999996" y="744.97"/>
      <point x="31.317000000000004" y="728.834"/>
      <point x="31.317000000000004" y="687.593" type="curve" smooth="yes"/>
      <point x="31.317000000000004" y="646.739"/>
      <point x="48.026" y="630.603"/>
    </contour>
    <contour>
      <point x="39.315" y="0.0" type="line"/>
      <point x="131.34" y="0.0" type="line"/>
      <point x="131.34" y="538.6" type="line"/>
      <point x="39.315" y="538.6" type="line"/>
    </contour>
  </outline>
</glyph>
<glyph name="j" format="2">
  <advance width="171.46"/>
  <unicode hex="006A"/>
  <outline>
    <contour>
      <point x="132.202" y="538.6" type="line"/>
      <point x="40.177" y="538.6" type="line"/>
      <point x="40.177" y="19.761999999999997" type="line" smooth="yes"/>
      <point x="40.177" y="-55.277"/>
      <point x="24.935000000000002" y="-97.06200000000001"/>
      <point x="-6.966" y="-115.30199999999999" type="curve" smooth="yes"/>
      <point x="-14.959999999999999" y="-118.209"/>
      <point x="-22.18" y="-119.385"/>
      <point x="-31.905" y="-119.217" type="curve"/>
      <point x="-37.597" y="-206.378" type="line"/>
      <point x="-17.587" y="-208.31500000000003"/>
      <point x="1.5230000000000004" y="-207.34600000000003"/>
      <point x="18.541" y="-203.92600000000002" type="curve" smooth="yes"/>
      <point x="98.90400000000001" y="-182.95"/>
      <point x="132.202" y="-112.704"/>
      <point x="132.202" y="13.268999999999998" type="curve" smooth="yes"/>
    </contour>
    <contour>
      <point x="86.269" y="630.603" type="curve" smooth="yes"/>
      <point x="124.20800000000001" y="630.603"/>
      <point x="140.086" y="647.126"/>
      <point x="140.086" y="687.593" type="curve" smooth="yes"/>
      <point x="140.086" y="728.834"/>
      <point x="123.434" y="744.97"/>
      <point x="86.269" y="744.97" type="curve" smooth="yes"/>
      <point x="48.204" y="744.97"/>
      <point x="32.065" y="728.834"/>
      <point x="32.065" y="687.593" type="curve" smooth="yes"/>
      <point x="32.065" y="646.739"/>
      <point x="48.774" y="630.603"/>
    </contour>
  </outline>
</glyph>
<glyph name="k" format="2">
  <advance width="361.61"/>
  <unicode hex="006B"/>
  <anchor x="83.285" y="740.0" name="top"/>
  <anchor x="195.16" y="0.0" name="bottom"/>
  <outline>
    <contour>
      <point x="333.64" y="-8.004999999999999" type="curve" smooth="yes"/>
      <point x="343.69" y="-8.004999999999999"/>
      <point x="353.13" y="-6.865"/>
      <point x="362.32500000000005" y="-4.255" type="curve"/>
      <point x="360.935" y="96.05" type="line"/>
      <point x="357.115" y="95.91"/>
      <point x="352.76" y="94.91"/>
      <point x="349.44" y="94.91" type="curve" smooth="yes"/>
      <point x="326.245" y="94.91"/>
      <point x="308.83" y="109.0"/>
      <point x="242.48499999999999" y="210.06499999999997" type="curve" smooth="yes"/>
      <point x="127.03999999999999" y="387.645" type="line"/>
      <point x="127.03999999999999" y="740.0" type="line"/>
      <point x="39.53" y="740.0" type="line"/>
      <point x="39.53" y="0.0" type="line"/>
      <point x="127.03999999999999" y="0.0" type="line"/>
      <point x="127.03999999999999" y="233.76" type="line"/>
      <point x="215.76" y="99.21" type="line" smooth="yes"/>
      <point x="277.535" y="5.4399999999999995"/>
      <point x="296.64" y="-8.004999999999999"/>
    </contour>
    <contour>
      <point x="195.97" y="229.29000000000002" type="line"/>
      <point x="259.64500000000004" y="314.945"/>
      <point x="328.09499999999997" y="423.89"/>
      <point x="348.64" y="539.455" type="curve"/>
      <point x="258.22" y="547.6" type="line"/>
      <point x="240.795" y="432.52000000000004"/>
      <point x="191.85999999999999" y="358.97499999999997"/>
      <point x="134.98000000000002" y="285.845" type="curve"/>
    </contour>
  </outline>
</glyph>
<glyph name="l" format="2">
  <advance width="202.859"/>
  <unicode hex="006C"/>
  <anchor x="101.865" y="395.0" name="center"/>
  <anchor x="85.52099999999999" y="740.0" name="top"/>
  <anchor x="184.285" y="740.0" name="topright"/>
  <anchor x="121.17500000000001" y="0.0" name="bottom"/>
  <outline>
    <contour>
      <point x="131.34" y="740.0" type="line"/>
      <point x="39.315" y="740.0" type="line"/>
      <point x="39.315" y="131.431" type="line" smooth="yes"/>
      <point x="39.315" y="23.77"/>
      <point x="71.979" y="-10.0"/>
      <point x="139.44099999999997" y="-10.0" type="curve" smooth="yes"/>
      <point x="163.16700000000003" y="-10.0"/>
      <point x="186.053" y="-2.5549999999999997"/>
      <point x="202.506" y="6.07" type="curve"/>
      <point x="194.894" y="84.553" type="line"/>
      <point x="182.191" y="80.701"/>
      <point x="172.76600000000002" y="79.18700000000001"/>
      <point x="165.41299999999998" y="79.18700000000001" type="curve" smooth="yes"/>
      <point x="144.744" y="79.18700000000001"/>
      <point x="131.34" y="89.693"/>
      <point x="131.34" y="142.48200000000003" type="curve" smooth="yes"/>
    </contour>
  </outline>
</glyph>
<glyph name="m" format="2">
  <advance width="581.017"/>
  <unicode hex="006D"/>
  <outline>
    <contour>
      <point x="39.315" y="0.0" type="line"/>
      <point x="131.72699999999998" y="0.0" type="line"/>
      <point x="131.72699999999998" y="440.64899999999994" type="line"/>
      <point x="150.71200000000002" y="453.15799999999996"/>
      <point x="173.601" y="461.702"/>
      <point x="194.08499999999998" y="461.702" type="curve" smooth="yes"/>
      <point x="229.489" y="461.702"/>
      <point x="244.832" y="438.134"/>
      <point x="244.832" y="401.563" type="curve" smooth="yes"/>
      <point x="244.832" y="0.0" type="line"/>
      <point x="337.24399999999997" y="0.0" type="line"/>
      <point x="337.24399999999997" y="406.121" type="line" smooth="yes"/>
      <point x="337.24399999999997" y="418.266"/>
      <point x="335.591" y="429.359"/>
      <point x="332.356" y="438.54" type="curve"/>
      <point x="352.24099999999993" y="452.21799999999996"/>
      <point x="376.52600000000007" y="462.03"/>
      <point x="399.261" y="462.03" type="curve" smooth="yes"/>
      <point x="434.8500000000001" y="462.03"/>
      <point x="450.064" y="438.448"/>
      <point x="450.064" y="401.791" type="curve" smooth="yes"/>
      <point x="450.064" y="0.0" type="line"/>
      <point x="542.476" y="0.0" type="line"/>
      <point x="542.476" y="427.72" type="line" smooth="yes"/>
      <point x="542.476" y="506.108"/>
      <point x="506.08" y="548.6"/>
      <point x="440.47700000000003" y="548.6" type="curve" smooth="yes"/>
      <point x="394.105" y="548.6"/>
      <point x="353.24899999999997" y="531.76"/>
      <point x="318.207" y="505.153" type="curve"/>
      <point x="301.473" y="533.237"/>
      <point x="273.65" y="548.315"/>
      <point x="234.828" y="548.315" type="curve" smooth="yes"/>
      <point x="197.095" y="548.315"/>
      <point x="159.784" y="536.433"/>
      <point x="123.815" y="510.972" type="curve"/>
      <point x="123.815" y="538.6" type="line"/>
      <point x="39.315" y="538.6" type="line"/>
    </contour>
  </outline>
</glyph>
<glyph name="n" format="2">
  <advance width="384.529"/>
  <unicode hex="006E"/>
  <anchor x="194.07999999999998" y="538.6" name="top"/>
  <anchor x="195.21999999999997" y="0.0" name="bottom"/>
  <outline>
    <contour>
      <point x="39.315" y="0.0" type="line"/>
      <point x="131.72699999999998" y="0.0" type="line"/>
      <point x="131.72699999999998" y="438.996" type="line"/>
      <point x="152.639" y="452.503"/>
      <point x="178.423" y="462.202"/>
      <point x="201.13200000000003" y="462.202" type="curve" smooth="yes"/>
      <point x="235.01100000000002" y="462.202"/>
      <point x="253.576" y="442.241"/>
      <point x="253.576" y="401.848" type="curve" smooth="yes"/>
      <point x="253.576" y="0.0" type="line"/>
      <point x="345.988" y="0.0" type="line"/>
      <point x="345.988" y="427.777" type="line" smooth="yes"/>
      <point x="345.988" y="509.45300000000003"/>
      <point x="306.63100000000003" y="548.6"/>
      <point x="241.359" y="548.6" type="curve" smooth="yes"/>
      <point x="201.113" y="548.6"/>
      <point x="161.95200000000003" y="536.333"/>
      <point x="123.815" y="509.66100000000006" type="curve"/>
      <point x="123.815" y="538.6" type="line"/>
      <point x="39.315" y="538.6" type="line"/>
    </contour>
  </outline>
</glyph>
<glyph name="o" format="2">
  <advance width="381.582"/>
  <unicode hex="006F"/>
  <anchor x="251.85900000000004" y="3.956" name="ogonek"/>
  <anchor x="190.791" y="538.6" name="top"/>
  <anchor x="282.612" y="529.1700000000001" name="topright"/>
  <anchor x="190.791" y="0.0" name="bottom"/>
  <outline>
    <contour>
      <point x="24.255" y="269.887" type="curve" smooth="yes"/>
      <point x="24.255" y="77.197"/>
      <point x="63.132999999999996" y="-10.0"/>
      <point x="190.791" y="-10.0" type="curve" smooth="yes"/>
      <point x="318.449" y="-10.0"/>
      <point x="357.327" y="77.197"/>
      <point x="357.327" y="269.887" type="curve" smooth="yes"/>
      <point x="357.327" y="461.277"/>
      <point x="320.149" y="548.6"/>
      <point x="190.791" y="548.6" type="curve" smooth="yes"/>
      <point x="61.347" y="548.6"/>
      <point x="24.255" y="461.277"/>
    </contour>
    <contour>
      <point x="119.93499999999999" y="269.887" type="curve" smooth="yes"/>
      <point x="119.93499999999999" y="428.421"/>
      <point x="138.315" y="465.47"/>
      <point x="190.791" y="465.47" type="curve" smooth="yes"/>
      <point x="242.88" y="465.47"/>
      <point x="261.56100000000004" y="428.421"/>
      <point x="261.56100000000004" y="269.887" type="curve" smooth="yes"/>
      <point x="261.56100000000004" y="110.439"/>
      <point x="241.696" y="73.517"/>
      <point x="190.791" y="73.517" type="curve" smooth="yes"/>
      <point x="139.49900000000002" y="73.517"/>
      <point x="119.93499999999999" y="110.439"/>
    </contour>
  </outline>
</glyph>
<glyph name="p" format="2">
  <advance width="381.344"/>
  <unicode hex="0070"/>
  <outline>
    <contour>
      <point x="39.315" y="-210.0" type="line"/>
      <point x="131.76999999999998" y="-210.0" type="line"/>
      <point x="131.76999999999998" y="-2.293" type="line"/>
      <point x="153.338" y="-7.644"/>
      <point x="173.419" y="-10.0"/>
      <point x="189.936" y="-10.0" type="curve" smooth="yes"/>
      <point x="304.121" y="-10.0"/>
      <point x="357.132" y="79.964"/>
      <point x="357.132" y="280.512" type="curve" smooth="yes"/>
      <point x="357.132" y="455.673"/>
      <point x="312.118" y="548.6"/>
      <point x="227.66899999999998" y="548.6" type="curve" smooth="yes"/>
      <point x="192.817" y="548.6"/>
      <point x="158.738" y="537.617"/>
      <point x="128.459" y="516.769" type="curve"/>
      <point x="123.815" y="543.7299999999999" type="line"/>
      <point x="39.315" y="543.7299999999999" type="line"/>
    </contour>
    <contour>
      <point x="177.051" y="65.637" type="curve" smooth="yes"/>
      <point x="163.79399999999998" y="65.637"/>
      <point x="151.36499999999998" y="68.165"/>
      <point x="131.72699999999998" y="74.304" type="curve"/>
      <point x="131.72699999999998" y="443.679" type="line"/>
      <point x="155.5" y="459.363"/>
      <point x="172.493" y="464.868"/>
      <point x="193.62800000000001" y="464.868" type="curve" smooth="yes"/>
      <point x="237.70600000000002" y="464.868"/>
      <point x="260.29099999999994" y="406.16299999999995"/>
      <point x="260.29099999999994" y="268.68699999999995" type="curve" smooth="yes"/>
      <point x="260.29099999999994" y="113.637"/>
      <point x="237.732" y="65.637"/>
    </contour>
  </outline>
</glyph>
<glyph name="q" format="2">
  <advance width="381.731"/>
  <unicode hex="0071"/>
  <outline>
    <contour>
      <point x="342.416" y="529.07" type="line"/>
      <point x="296.383" y="542.148"/>
      <point x="250.33499999999998" y="548.6"/>
      <point x="208.823" y="548.6" type="curve" smooth="yes"/>
      <point x="80.31899999999999" y="548.6"/>
      <point x="24.212" y="465.602"/>
      <point x="24.212" y="265.828" type="curve" smooth="yes"/>
      <point x="24.212" y="81.505"/>
      <point x="68.578" y="-10.0"/>
      <point x="156.77100000000002" y="-10.0" type="curve" smooth="yes"/>
      <point x="188.097" y="-10.0"/>
      <point x="224.197" y="1.8860000000000001"/>
      <point x="250.39100000000005" y="20.068" type="curve"/>
      <point x="250.39100000000005" y="-210.0" type="line"/>
      <point x="342.416" y="-210.0" type="line"/>
    </contour>
    <contour>
      <point x="250.00399999999996" y="465.718" type="curve"/>
      <point x="250.00399999999996" y="96.856" type="line"/>
      <point x="226.231" y="80.785"/>
      <point x="209.23800000000003" y="74.506"/>
      <point x="187.716" y="74.506" type="curve" smooth="yes"/>
      <point x="144.538" y="74.506"/>
      <point x="121.44" y="133.46300000000002"/>
      <point x="121.44" y="262.947" type="curve" smooth="yes"/>
      <point x="121.44" y="424.963"/>
      <point x="143.99900000000002" y="473.73699999999997"/>
      <point x="205.067" y="473.73699999999997" type="curve" smooth="yes"/>
      <point x="217.08" y="473.73699999999997"/>
      <point x="230.366" y="471.596"/>
    </contour>
  </outline>
</glyph>
<glyph name="r" format="2">
  <advance width="275.68399999999997"/>
  <unicode hex="0072"/>
  <anchor x="152.879" y="538.6" name="top"/>
  <anchor x="85.134" y="0.0" name="bottom"/>
  <outline>
    <contour>
      <point x="123.428" y="538.6" type="line"/>
      <point x="39.315" y="538.6" type="line"/>
      <point x="39.315" y="0.0" type="line"/>
      <point x="130.953" y="0.0" type="line"/>
      <point x="130.953" y="413.299" type="line"/>
      <point x="160.515" y="442.58"/>
      <point x="186.14400000000003" y="453.473"/>
      <point x="214.14600000000002" y="453.473" type="curve" smooth="yes"/>
      <point x="226.709" y="453.473"/>
      <point x="243.54" y="451.73299999999995"/>
      <point x="259.312" y="447.176" type="curve"/>
      <point x="275.82199999999995" y="539.941" type="line"/>
      <point x="257.929" y="546.459"/>
      <point x="241.463" y="548.6"/>
      <point x="226.21599999999998" y="548.6" type="curve" smooth="yes"/>
      <point x="185.381" y="548.6"/>
      <point x="155.237" y="531.0040000000001"/>
      <point x="123.428" y="493.64700000000005" type="curve"/>
    </contour>
  </outline>
</glyph>
<glyph name="s" format="2">
  <advance width="314.725"/>
  <unicode hex="0073"/>
  <anchor x="157.75" y="538.6" name="top"/>
  <anchor x="156.83" y="0.0" name="bottom"/>
  <outline>
    <contour>
      <point x="10.76" y="15.905000000000001" type="line"/>
      <point x="47.940000000000005" y="-1.6400000000000001"/>
      <point x="91.625" y="-10.0"/>
      <point x="140.27" y="-10.0" type="curve" smooth="yes"/>
      <point x="238.095" y="-10.0"/>
      <point x="301.955" y="41.53"/>
      <point x="301.955" y="142.74" type="curve" smooth="yes"/>
      <point x="301.955" y="243.51999999999998"/>
      <point x="249.44000000000003" y="278.78"/>
      <point x="187.06" y="312.75" type="curve" smooth="yes"/>
      <point x="139.305" y="338.85499999999996"/>
      <point x="106.2" y="360.655"/>
      <point x="106.2" y="405.545" type="curve" smooth="yes"/>
      <point x="106.2" y="443.91"/>
      <point x="130.33499999999998" y="465.175"/>
      <point x="173.95499999999998" y="465.175" type="curve" smooth="yes"/>
      <point x="207.41" y="465.175"/>
      <point x="238.04" y="458.35"/>
      <point x="267.18" y="448.02" type="curve"/>
      <point x="282.025" y="527.2950000000001" type="line"/>
      <point x="253.71499999999997" y="540.27"/>
      <point x="212.02499999999998" y="548.6"/>
      <point x="172.02" y="548.6" type="curve" smooth="yes"/>
      <point x="73.41000000000001" y="548.6"/>
      <point x="18.475" y="490.71"/>
      <point x="18.475" y="396.085" type="curve" smooth="yes"/>
      <point x="18.475" y="316.14"/>
      <point x="59.095000000000006" y="272.25"/>
      <point x="120.48499999999999" y="239.275" type="curve" smooth="yes"/>
      <point x="174.76999999999998" y="210.78"/>
      <point x="213.585" y="186.725"/>
      <point x="213.585" y="137.58" type="curve" smooth="yes"/>
      <point x="213.585" y="95.95"/>
      <point x="185.425" y="72.135"/>
      <point x="138.12" y="72.135" type="curve" smooth="yes"/>
      <point x="101.215" y="72.135"/>
      <point x="52.714999999999996" y="80.175"/>
      <point x="23.915000000000003" y="92.71" type="curve"/>
    </contour>
  </outline>
</glyph>
<glyph name="t" format="2">
  <advance width="272.684"/>
  <unicode hex="0074"/>
  <anchor x="134.457" y="275.0" name="center"/>
  <anchor x="115.796" y="660.7429999999999" name="top"/>
  <anchor x="224.278" y="754.96" name="topright"/>
  <anchor x="161.04799999999997" y="0.0" name="bottom"/>
  <outline>
    <contour>
      <point x="180.37199999999999" y="-10.0" type="curve" smooth="yes"/>
      <point x="206.45700000000002" y="-10.0"/>
      <point x="239.667" y="-6.513000000000001"/>
      <point x="273.414" y="6.979000000000001" type="curve"/>
      <point x="259.49600000000004" y="83.00000000000001" type="line"/>
      <point x="242.506" y="77.92"/>
      <point x="226.42999999999998" y="75.75"/>
      <point x="211.302" y="75.75" type="curve" smooth="yes"/>
      <point x="172.31699999999998" y="75.75"/>
      <point x="155.06" y="97.01599999999999"/>
      <point x="155.06" y="157.09799999999998" type="curve" smooth="yes"/>
      <point x="155.06" y="461.96599999999995" type="line"/>
      <point x="259.779" y="461.96599999999995" type="line"/>
      <point x="259.779" y="538.6" type="line"/>
      <point x="155.06" y="538.6" type="line"/>
      <point x="155.06" y="660.7429999999999" type="line"/>
      <point x="76.019" y="660.7429999999999" type="line"/>
      <point x="63.035000000000004" y="538.6" type="line"/>
      <point x="6.8950000000000005" y="532.0550000000001" type="line"/>
      <point x="6.8950000000000005" y="462.35299999999995" type="line"/>
      <point x="63.035000000000004" y="462.35299999999995" type="line"/>
      <point x="63.035000000000004" y="147.98199999999997" type="line" smooth="yes"/>
      <point x="63.035000000000004" y="47.358"/>
      <point x="95.095" y="-10.0"/>
    </contour>
  </outline>
</glyph>
<glyph name="u" format="2">
  <advance width="394.546"/>
  <unicode hex="0075"/>
  <anchor x="393.829" y="6.826" name="ogonek"/>
  <anchor x="190.76100000000002" y="538.6" name="top"/>
  <anchor x="342.376" y="538.6" name="topright"/>
  <anchor x="197.766" y="0.0" name="bottom"/>
  <outline>
    <contour>
      <point x="145.74099999999999" y="-10.0" type="curve" smooth="yes"/>
      <point x="188.083" y="-10.0"/>
      <point x="226.587" y="4.975999999999999"/>
      <point x="261.034" y="28.689" type="curve"/>
      <point x="272.67499999999995" y="5.182"/>
      <point x="295.605" y="-10.0"/>
      <point x="327.142" y="-10.0" type="curve" smooth="yes"/>
      <point x="353.724" y="-10.0"/>
      <point x="374.842" y="-3.2560000000000002"/>
      <point x="393.829" y="6.826" type="curve"/>
      <point x="384.60699999999997" y="85.646" type="line"/>
      <point x="377.302" y="82.237"/>
      <point x="369.321" y="80.61"/>
      <point x="362.085" y="80.61" type="curve" smooth="yes"/>
      <point x="349.51099999999997" y="80.61"/>
      <point x="342.376" y="88.34500000000001"/>
      <point x="342.376" y="111.967" type="curve" smooth="yes"/>
      <point x="342.376" y="538.6" type="line"/>
      <point x="250.35099999999997" y="538.6" type="line"/>
      <point x="250.35099999999997" y="99.289" type="line"/>
      <point x="229.90800000000002" y="85.38"/>
      <point x="204.438" y="76.22600000000001"/>
      <point x="182.614" y="76.22600000000001" type="curve" smooth="yes"/>
      <point x="149.561" y="76.22600000000001"/>
      <point x="130.953" y="95.90200000000002"/>
      <point x="130.953" y="135.01000000000002" type="curve" smooth="yes"/>
      <point x="130.953" y="538.6" type="line"/>
      <point x="38.541" y="538.6" type="line"/>
      <point x="38.541" y="119.358" type="line" smooth="yes"/>
      <point x="38.541" y="24.89"/>
      <point x="84.751" y="-10.0"/>
    </contour>
  </outline>
</glyph>
<glyph name="v" format="2">
  <advance width="370.3465"/>
  <unicode hex="0076"/>
  <outline>
    <contour>
      <point x="128.374" y="0.0" type="line"/>
      <point x="241.2705" y="0.0" type="line"/>
      <point x="361.671" y="537.2320000000001" type="line"/>
      <point x="263.639" y="539.968" type="line"/>
      <point x="185.9005" y="97.66699999999999" type="line"/>
      <point x="107.24499999999999" y="539.968" type="line"/>
      <point x="8.568000000000001" y="537.2320000000001" type="line"/>
    </contour>
  </outline>
</glyph>
<glyph name="w" format="2">
  <advance width="543.6410000000001"/>
  <unicode hex="0077"/>
  <anchor x="271.71700000000004" y="538.6" name="top"/>
  <anchor x="271.71700000000004" y="0.0" name="bottom"/>
  <outline>
    <contour>
      <point x="97.632" y="0.0" type="line"/>
      <point x="210.22899999999998" y="0.0" type="line"/>
      <point x="272.01800000000003" y="414.673" type="line"/>
      <point x="333.689" y="0.0" type="line"/>
      <point x="445.21099999999996" y="0.0" type="line"/>
      <point x="535.0840000000001" y="536.726" type="line"/>
      <point x="442.92199999999997" y="539.4979999999999" type="line"/>
      <point x="384.571" y="98.675" type="line"/>
      <point x="320.933" y="538.6" type="line"/>
      <point x="222.458" y="538.6" type="line"/>
      <point x="159.45999999999998" y="98.554" type="line"/>
      <point x="101.53599999999999" y="539.4979999999999" type="line"/>
      <point x="8.307" y="536.726" type="line"/>
    </contour>
  </outline>
</glyph>
<glyph name="x" format="2">
  <advance width="383.715"/>
  <unicode hex="0078"/>
  <outline>
    <contour>
      <point x="5.955000000000001" y="-2.5650000000000004" type="line"/>
      <point x="107.5175" y="-5.45" type="line"/>
      <point x="191.73499999999999" y="217.57" type="line"/>
      <point x="277.59250000000003" y="-5.45" type="line"/>
      <point x="378.8675" y="-2.5650000000000004" type="line"/>
      <point x="257.4125" y="273.69" type="line"/>
      <point x="369.66249999999997" y="537.1750000000001" type="line"/>
      <point x="271.505" y="540.275" type="line"/>
      <point x="193.915" y="326.0675" type="line"/>
      <point x="115.685" y="540.7024999999999" type="line"/>
      <point x="15.700000000000003" y="536.7125" type="line"/>
      <point x="127.5925" y="275.54" type="line"/>
    </contour>
  </outline>
</glyph>
<glyph name="y" format="2">
  <advance width="372.16650000000004"/>
  <unicode hex="0079"/>
  <anchor x="183.8255" y="538.6" name="top"/>
  <anchor x="320.56249999999994" y="0.0" name="bottom"/>
  <outline>
    <contour>
      <point x="108.596" y="-208.732" type="line"/>
      <point x="206.567" y="-212.25399999999996" type="line"/>
      <point x="362.95950000000005" y="537.5600000000001" type="line"/>
      <point x="263.9965" y="540.182" type="line"/>
      <point x="190.384" y="89.53800000000001" type="line"/>
      <point x="109.77900000000001" y="540.1959999999999" type="line"/>
      <point x="9.081000000000001" y="537.46" type="line"/>
      <point x="135.0445" y="0.0" type="line"/>
      <point x="153.896" y="0.0" type="line"/>
    </contour>
  </outline>
</glyph>
<glyph name="z" format="2">
  <advance width="340.3715"/>
  <unicode hex="007A"/>
  <anchor x="171.97800000000004" y="538.6" name="top"/>
  <outline>
    <contour>
      <point x="18.5835" y="0.0" type="line"/>
      <point x="325.563" y="0.0" type="line"/>
      <point x="325.563" y="82.22399999999999" type="line"/>
      <point x="121.26899999999999" y="82.22399999999999" type="line"/>
      <point x="313.25100000000003" y="465.2375" type="line"/>
      <point x="313.25100000000003" y="538.6" type="line"/>
      <point x="26.489500000000003" y="538.6" type="line"/>
      <point x="26.489500000000003" y="457.236" type="line"/>
      <point x="211.874" y="457.236" type="line"/>
      <point x="18.5835" y="74.54500000000002" type="line"/>
    </contour>
  </outline>
</glyph>
<glyph name="braceleft" format="2">
  <advance width="240.077"/>
  <unicode hex="007B"/>
  <outline>
    <contour>
      <point x="59.568000000000005" y="-55.959" type="curve" smooth="yes"/>
      <point x="59.568000000000005" y="-153.29800000000003"/>
      <point x="102.26199999999999" y="-210.387"/>
      <point x="168.805" y="-210.387" type="curve" smooth="yes"/>
      <point x="217.278" y="-210.387" type="line"/>
      <point x="217.278" y="-134.91699999999997" type="line"/>
      <point x="189.44500000000002" y="-134.91699999999997" type="line" smooth="yes"/>
      <point x="151.765" y="-134.91699999999997"/>
      <point x="137.274" y="-95.568"/>
      <point x="137.274" y="-45.639" type="curve" smooth="yes"/>
      <point x="137.274" y="21.529000000000003"/>
      <point x="166.447" y="77.44200000000001"/>
      <point x="166.447" y="150.988" type="curve" smooth="yes"/>
      <point x="166.447" y="190.951"/>
      <point x="154.841" y="239.58100000000002"/>
      <point x="117.451" y="265.0" type="curve"/>
      <point x="154.784" y="292.137"/>
      <point x="166.447" y="338.548"/>
      <point x="166.447" y="378.511" type="curve" smooth="yes"/>
      <point x="166.447" y="448.69399999999996"/>
      <point x="137.274" y="504.322"/>
      <point x="137.274" y="575.1379999999999" type="curve" smooth="yes"/>
      <point x="137.274" y="625.067"/>
      <point x="151.765" y="664.5300000000001"/>
      <point x="189.44500000000002" y="664.5300000000001" type="curve" smooth="yes"/>
      <point x="217.278" y="664.5300000000001" type="line"/>
      <point x="217.278" y="740.0" type="line"/>
      <point x="168.805" y="740.0" type="line" smooth="yes"/>
      <point x="102.26199999999999" y="740.0"/>
      <point x="59.568000000000005" y="682.7969999999999"/>
      <point x="59.568000000000005" y="585.458" type="curve" smooth="yes"/>
      <point x="59.568000000000005" y="492.53"/>
      <point x="92.396" y="439.467"/>
      <point x="92.396" y="374.211" type="curve" smooth="yes"/>
      <point x="92.396" y="338.90500000000003"/>
      <point x="84.017" y="304.24"/>
      <point x="59.618" y="304.24" type="curve" smooth="yes"/>
      <point x="40.681999999999995" y="304.24" type="line"/>
      <point x="40.681999999999995" y="225.37300000000002" type="line"/>
      <point x="59.618" y="225.37300000000002" type="line" smooth="yes"/>
      <point x="84.017" y="225.37300000000002"/>
      <point x="92.396" y="191.107"/>
      <point x="92.396" y="155.28799999999998" type="curve" smooth="yes"/>
      <point x="92.396" y="88.607"/>
      <point x="59.568000000000005" y="33.263999999999996"/>
    </contour>
  </outline>
</glyph>
<glyph name="bar" format="2">
  <advance width="154.00199999999998"/>
  <unicode hex="007C"/>
  <outline>
    <contour>
      <point x="116.67099999999999" y="790.387" type="line"/>
      <point x="37.331" y="790.387" type="line"/>
      <point x="37.331" y="-210.0" type="line"/>
      <point x="116.67099999999999" y="-210.0" type="line"/>
    </contour>
  </outline>
</glyph>
<glyph name="braceright" format="2">
  <advance width="240.077"/>
  <unicode hex="007D"/>
  <outline>
    <contour>
      <point x="22.799" y="-134.91699999999997" type="line"/>
      <point x="22.799" y="-210.387" type="line"/>
      <point x="71.785" y="-210.387" type="line" smooth="yes"/>
      <point x="138.328" y="-210.387"/>
      <point x="181.022" y="-153.29800000000003"/>
      <point x="181.022" y="-55.959" type="curve" smooth="yes"/>
      <point x="181.022" y="33.263999999999996"/>
      <point x="148.194" y="88.607"/>
      <point x="148.194" y="155.28799999999998" type="curve" smooth="yes"/>
      <point x="148.194" y="191.107"/>
      <point x="156.573" y="225.37300000000002"/>
      <point x="180.972" y="225.37300000000002" type="curve" smooth="yes"/>
      <point x="199.39499999999998" y="225.37300000000002" type="line"/>
      <point x="199.39499999999998" y="304.24" type="line"/>
      <point x="180.972" y="304.24" type="line" smooth="yes"/>
      <point x="156.06" y="304.24"/>
      <point x="148.194" y="338.90500000000003"/>
      <point x="148.194" y="374.211" type="curve" smooth="yes"/>
      <point x="148.194" y="439.467"/>
      <point x="181.022" y="492.53"/>
      <point x="181.022" y="585.458" type="curve" smooth="yes"/>
      <point x="181.022" y="682.7969999999999"/>
      <point x="138.328" y="740.0"/>
      <point x="71.785" y="740.0" type="curve" smooth="yes"/>
      <point x="22.799" y="740.0" type="line"/>
      <point x="22.799" y="664.5300000000001" type="line"/>
      <point x="44.566" y="664.5300000000001" type="line" smooth="yes"/>
      <point x="81.73300000000002" y="664.5300000000001"/>
      <point x="96.737" y="625.067"/>
      <point x="96.737" y="575.1379999999999" type="curve" smooth="yes"/>
      <point x="96.737" y="504.322"/>
      <point x="67.56400000000001" y="448.69399999999996"/>
      <point x="67.56400000000001" y="378.511" type="curve" smooth="yes"/>
      <point x="67.56400000000001" y="338.548"/>
      <point x="78.714" y="292.137"/>
      <point x="116.55999999999999" y="265.0" type="curve"/>
      <point x="78.657" y="239.58100000000002"/>
      <point x="67.56400000000001" y="190.951"/>
      <point x="67.56400000000001" y="150.988" type="curve" smooth="yes"/>
      <point x="67.56400000000001" y="77.44200000000001"/>
      <point x="96.737" y="21.529000000000003"/>
      <point x="96.737" y="-45.639" type="curve" smooth="yes"/>
      <point x="96.737" y="-95.568"/>
      <point x="81.73300000000002" y="-134.91699999999997"/>
      <point x="44.566" y="-134.91699999999997" type="curve" smooth="yes"/>
    </contour>
  </outline>
</glyph>
<glyph name="asciitilde" format="2">
  <advance width="417.896"/>
  <unicode hex="007E"/>
  <outline>
    <contour>
      <point x="363.215" y="245.21699999999998" type="curve"/>
      <point x="363.215" y="328.64" type="line"/>
      <point x="341.574" y="303.627"/>
      <point x="321.31199999999995" y="292.78999999999996"/>
      <point x="295.159" y="292.78999999999996" type="curve" smooth="yes"/>
      <point x="227.352" y="292.78999999999996"/>
      <point x="195.524" y="389.057"/>
      <point x="126.502" y="389.057" type="curve" smooth="yes"/>
      <point x="92.042" y="389.057"/>
      <point x="66.851" y="372.006"/>
      <point x="55.237" y="356.11400000000003" type="curve"/>
      <point x="55.237" y="272.634" type="line"/>
      <point x="68.86699999999999" y="290.696"/>
      <point x="93.45700000000001" y="308.25500000000005"/>
      <point x="125.63" y="308.25500000000005" type="curve" smooth="yes"/>
      <point x="189.026" y="308.25500000000005"/>
      <point x="221.88299999999998" y="211.945"/>
      <point x="294.803" y="211.945" type="curve" smooth="yes"/>
      <point x="322.38000000000005" y="211.945"/>
      <point x="342.929" y="221.972"/>
    </contour>
  </outline>
</glyph>
<glyph name="exclamdown" format="2">
  <advance width="171.804"/>
  <unicode hex="00A1"/>
  <outline>
    <contour>
      <point x="126.94800000000001" y="276.707" type="line"/>
      <point x="45.931" y="276.707" type="line"/>
      <point x="38.879000000000005" y="-201.443" type="line"/>
      <point x="132.839" y="-201.443" type="line"/>
    </contour>
    <contour>
      <point x="137.05300000000003" y="483.029" type="curve" smooth="yes"/>
      <point x="137.05300000000003" y="525.56"/>
      <point x="124.225" y="542.9"/>
      <point x="85.902" y="542.9" type="curve" smooth="yes"/>
      <point x="48.149" y="542.9"/>
      <point x="34.751" y="525.56"/>
      <point x="34.751" y="483.029" type="curve" smooth="yes"/>
      <point x="34.751" y="440.068"/>
      <point x="47.579" y="422.728"/>
      <point x="85.902" y="422.728" type="curve" smooth="yes"/>
      <point x="124.225" y="422.728"/>
      <point x="137.05300000000003" y="440.068"/>
    </contour>
  </outline>
</glyph>
<glyph name="cent" format="2">
  <advance width="394.878"/>
  <unicode hex="00A2"/>
  <outline>
    <contour>
      <point x="225.86100000000002" y="-10.387" type="curve" smooth="yes"/>
      <point x="262.11100000000005" y="-10.387"/>
      <point x="300.91700000000003" y="-4.12"/>
      <point x="331.141" y="7.21" type="curve"/>
      <point x="313.295" y="92.88" type="line"/>
      <point x="289.03" y="86.291"/>
      <point x="267.516" y="83.44699999999999"/>
      <point x="246.97299999999998" y="83.44699999999999" type="curve" smooth="yes"/>
      <point x="190.65900000000002" y="83.44699999999999"/>
      <point x="163.499" y="139.67999999999998"/>
      <point x="163.499" y="261.569" type="curve" smooth="yes"/>
      <point x="163.499" y="396.262"/>
      <point x="192.404" y="454.55099999999993"/>
      <point x="249.615" y="454.55099999999993" type="curve" smooth="yes"/>
      <point x="271.69300000000004" y="454.55099999999993"/>
      <point x="289.6" y="451.12"/>
      <point x="308.645" y="446.093" type="curve"/>
      <point x="324.682" y="535.031" type="line"/>
      <point x="300.871" y="542.303"/>
      <point x="265.776" y="549.374"/>
      <point x="228.674" y="549.374" type="curve" smooth="yes"/>
      <point x="109.042" y="549.374"/>
      <point x="67.64699999999999" y="436.525"/>
      <point x="67.64699999999999" y="258.98900000000003" type="curve" smooth="yes"/>
      <point x="67.64699999999999" y="77.454"/>
      <point x="117.151" y="-10.387"/>
    </contour>
    <contour>
      <point x="175.07600000000002" y="-105.387" type="line"/>
      <point x="257.42600000000004" y="-105.387" type="line"/>
      <point x="257.42600000000004" y="2.969" type="line"/>
      <point x="175.07600000000002" y="8.192" type="line"/>
    </contour>
    <contour>
      <point x="175.07600000000002" y="528.8489999999999" type="line"/>
      <point x="257.42600000000004" y="536.892" type="line"/>
      <point x="257.42600000000004" y="643.213" type="line"/>
      <point x="175.07600000000002" y="643.213" type="line"/>
    </contour>
  </outline>
</glyph>
<glyph name="sterling" format="2">
  <advance width="395.13599999999997"/>
  <unicode hex="00A3"/>
  <outline>
    <contour>
      <point x="57.472" y="0.0" type="line"/>
      <point x="351.41900000000004" y="0.0" type="line"/>
      <point x="351.41900000000004" y="82.13499999999999" type="line"/>
      <point x="158.05" y="82.13499999999999" type="line"/>
      <point x="196.436" y="137.91"/>
      <point x="226.161" y="181.628"/>
      <point x="226.161" y="256.209" type="curve" smooth="yes"/>
      <point x="226.161" y="344.32199999999995"/>
      <point x="173.733" y="407.21000000000004"/>
      <point x="173.733" y="496.41400000000004" type="curve" smooth="yes"/>
      <point x="173.733" y="587.02"/>
      <point x="213.212" y="620.125"/>
      <point x="262.821" y="620.125" type="curve" smooth="yes"/>
      <point x="286.312" y="620.125"/>
      <point x="308.975" y="615.826"/>
      <point x="328.498" y="609.069" type="curve"/>
      <point x="344.14500000000004" y="686.8299999999999" type="line"/>
      <point x="316.891" y="702.1069999999999"/>
      <point x="278.282" y="710.0"/>
      <point x="244.76100000000002" y="710.0" type="curve" smooth="yes"/>
      <point x="135.44799999999998" y="710.0"/>
      <point x="77.62299999999999" y="634.0419999999999"/>
      <point x="77.62299999999999" y="523.9200000000001" type="curve" smooth="yes"/>
      <point x="77.62299999999999" y="399.552"/>
      <point x="138.43599999999998" y="352.96"/>
      <point x="138.43599999999998" y="247.151" type="curve" smooth="yes"/>
      <point x="138.43599999999998" y="180.908"/>
      <point x="112.445" y="134.771"/>
      <point x="57.472" y="64.505" type="curve"/>
    </contour>
    <contour>
      <point x="45.025000000000006" y="329.02" type="line"/>
      <point x="316.23" y="329.02" type="line"/>
      <point x="316.23" y="393.09499999999997" type="line"/>
      <point x="45.025000000000006" y="393.09499999999997" type="line"/>
    </contour>
  </outline>
</glyph>
<glyph name="currency" format="2">
  <advance width="428.03"/>
  <unicode hex="00A4"/>
  <outline>
    <contour>
      <point x="28.969" y="419.696" type="line"/>
      <point x="90.671" y="356.994" type="line"/>
      <point x="78.766" y="338.76700000000005"/>
      <point x="71.367" y="316.507"/>
      <point x="71.367" y="291.88100000000003" type="curve" smooth="yes"/>
      <point x="71.367" y="266.825"/>
      <point x="78.766" y="243.74800000000002"/>
      <point x="91.671" y="225.134" type="curve"/>
      <point x="28.969" y="162.43200000000002" type="line"/>
      <point x="85.668" y="105.733" type="line"/>
      <point x="151.939" y="171.96099999999998" type="line"/>
      <point x="169.091" y="159.701"/>
      <point x="191.04999999999998" y="153.43099999999998"/>
      <point x="214.762" y="153.43099999999998" type="curve" smooth="yes"/>
      <point x="237.786" y="153.43099999999998"/>
      <point x="259.197" y="159.744"/>
      <point x="276.048" y="171.617" type="curve"/>
      <point x="342.36199999999997" y="105.733" type="line"/>
      <point x="399.06100000000004" y="162.43200000000002" type="line"/>
      <point x="337.692" y="223.414" type="line"/>
      <point x="350.89799999999997" y="242.759"/>
      <point x="358.684" y="266.137"/>
      <point x="358.684" y="291.88100000000003" type="curve" smooth="yes"/>
      <point x="358.684" y="316.808"/>
      <point x="350.941" y="339.756"/>
      <point x="338.07899999999995" y="358.714" type="curve"/>
      <point x="399.06100000000004" y="419.696" type="line"/>
      <point x="342.36199999999997" y="476.39500000000004" type="line"/>
      <point x="277.596" y="411.62899999999996" type="line"/>
      <point x="260.35799999999995" y="423.545"/>
      <point x="238.743" y="430.815"/>
      <point x="214.762" y="430.815" type="curve" smooth="yes"/>
      <point x="189.70600000000002" y="430.815"/>
      <point x="167.747" y="423.158"/>
      <point x="149.821" y="411.285" type="curve"/>
      <point x="85.668" y="476.39500000000004" type="line"/>
    </contour>
    <contour>
      <point x="214.71900000000002" y="214.926" type="curve" smooth="yes"/>
      <point x="171.166" y="214.926"/>
      <point x="138.15099999999998" y="247.898"/>
      <point x="138.15099999999998" y="291.494" type="curve" smooth="yes"/>
      <point x="138.15099999999998" y="334.757"/>
      <point x="171.123" y="368.93300000000005"/>
      <point x="214.71900000000002" y="368.93300000000005" type="curve" smooth="yes"/>
      <point x="258.885" y="368.93300000000005"/>
      <point x="291.9" y="334.757"/>
      <point x="291.9" y="291.494" type="curve" smooth="yes"/>
      <point x="291.9" y="247.898"/>
      <point x="258.842" y="214.926"/>
    </contour>
  </outline>
</glyph>
<glyph name="yen" format="2">
  <advance width="395.15000000000003"/>
  <unicode hex="00A5"/>
  <outline>
    <contour>
      <point x="51.91" y="323.43" type="line"/>
      <point x="152.805" y="323.43" type="line"/>
      <point x="152.805" y="252.48499999999999" type="line"/>
      <point x="51.91" y="252.48499999999999" type="line"/>
      <point x="51.91" y="192.065" type="line"/>
      <point x="152.805" y="192.065" type="line"/>
      <point x="152.805" y="0.0" type="line"/>
      <point x="246.55" y="0.0" type="line"/>
      <point x="246.55" y="192.065" type="line"/>
      <point x="347.875" y="192.065" type="line"/>
      <point x="347.875" y="252.48499999999999" type="line"/>
      <point x="246.55" y="252.48499999999999" type="line"/>
      <point x="246.55" y="323.43" type="line"/>
      <point x="347.875" y="323.43" type="line"/>
      <point x="347.875" y="383.205" type="line"/>
      <point x="246.55" y="383.205" type="line"/>
      <point x="369.82000000000005" y="697.79" type="line"/>
      <point x="267.83" y="702.425" type="line"/>
      <point x="199.57" y="451.765" type="line"/>
      <point x="127.535" y="702.425" type="line"/>
      <point x="25.545" y="697.79" type="line"/>
      <point x="152.805" y="383.205" type="line"/>
      <point x="51.91" y="383.205" type="line"/>
    </contour>
  </outline>
</glyph>
<glyph name="brokenbar" format="2">
  <advance width="153.61499999999998"/>
  <unicode hex="00A6"/>
  <outline>
    <contour>
      <point x="116.28399999999999" y="391.0" type="line"/>
      <point x="116.28399999999999" y="790.387" type="line"/>
      <point x="37.331" y="790.387" type="line"/>
      <point x="37.331" y="391.0" type="line"/>
    </contour>
    <contour>
      <point x="37.331" y="190.387" type="line"/>
      <point x="37.331" y="-210.0" type="line"/>
      <point x="116.28399999999999" y="-210.0" type="line"/>
      <point x="116.28399999999999" y="190.387" type="line"/>
    </contour>
  </outline>
</glyph>
<glyph name="section" format="2">
  <advance width="404.88950000000006"/>
  <unicode hex="00A7"/>
  <outline>
    <contour>
      <point x="161.39000000000001" y="-220.5375" type="curve" smooth="yes"/>
      <point x="290.95000000000005" y="-220.5375"/>
      <point x="376.64" y="-101.92949999999999"/>
      <point x="376.64" y="58.4315" type="curve" smooth="yes"/>
      <point x="376.64" y="137.3545"/>
      <point x="358.051" y="224.10399999999998"/>
      <point x="300.5715" y="380.77150000000006" type="curve" smooth="yes"/>
      <point x="252.189" y="514.429"/>
      <point x="239.898" y="547.338"/>
      <point x="239.898" y="583.8790000000001" type="curve" smooth="yes"/>
      <point x="239.898" y="626.6805000000002"/>
      <point x="261.09800000000007" y="652.0905"/>
      <point x="297.0734999999999" y="652.0905" type="curve" smooth="yes"/>
      <point x="310.69" y="652.0905"/>
      <point x="323.27849999999995" y="649.8055"/>
      <point x="339.19849999999997" y="642.2215" type="curve"/>
      <point x="359.318" y="729.1809999999999" type="line"/>
      <point x="332.9715" y="742.4619999999999"/>
      <point x="297.67449999999997" y="749.5514999999999"/>
      <point x="262.027" y="749.5514999999999" type="curve" smooth="yes"/>
      <point x="121.52649999999998" y="749.5514999999999"/>
      <point x="33.06" y="648.1909999999999"/>
      <point x="35.285" y="482.0695" type="curve" smooth="yes"/>
      <point x="36.4675" y="399.1275"/>
      <point x="50.48500000000001" y="318.9845"/>
      <point x="113.17699999999999" y="156.5675" type="curve" smooth="yes"/>
      <point x="158.3775" y="32.8245"/>
      <point x="176.45749999999998" y="-13.912499999999998"/>
      <point x="176.4715" y="-55.954" type="curve" smooth="yes"/>
      <point x="176.48549999999997" y="-99.952"/>
      <point x="153.6215" y="-122.7355"/>
      <point x="116.314" y="-122.7355" type="curve" smooth="yes"/>
      <point x="94.15600000000002" y="-122.7355"/>
      <point x="73.41350000000001" y="-115.22200000000001"/>
      <point x="49.2515" y="-94.61600000000001" type="curve"/>
      <point x="28.2495" y="-180.454" type="line"/>
      <point x="65.5905" y="-208.11649999999997"/>
      <point x="108.3555" y="-220.5375"/>
    </contour>
    <contour>
      <point x="157.342" y="-161.55100000000002" type="curve" smooth="yes"/>
      <point x="138.758" y="-161.55100000000002"/>
      <point x="123.71050000000001" y="-158.1395"/>
      <point x="109.0645" y="-151.1995" type="curve"/>
      <point x="138.1515" y="-170.48600000000002" type="line"/>
      <point x="201.19099999999997" y="-168.60250000000002"/>
      <point x="241.678" y="-122.2175"/>
      <point x="241.678" y="-54.46750000000001" type="curve" smooth="yes"/>
      <point x="241.678" y="-5.036499999999998"/>
      <point x="227.2245" y="53.32899999999999"/>
      <point x="178.005" y="186.825" type="curve" smooth="yes"/>
      <point x="120.768" y="344.1535"/>
      <point x="103.6415" y="407.246"/>
      <point x="103.6415" y="490.2395" type="curve" smooth="yes"/>
      <point x="103.6415" y="603.414"/>
      <point x="155.5545" y="677.0719999999999"/>
      <point x="226.56349999999998" y="677.0719999999999" type="curve" smooth="yes"/>
      <point x="238.80800000000002" y="677.0719999999999"/>
      <point x="246.96299999999997" y="675.0155"/>
      <point x="258.2115" y="668.9490000000001" type="curve"/>
      <point x="241.4345" y="690.8394999999999" type="line"/>
      <point x="201.005" y="680.648"/>
      <point x="172.39700000000002" y="638.9694999999998"/>
      <point x="172.168" y="588.4735" type="curve" smooth="yes"/>
      <point x="172.168" y="540.1220000000001"/>
      <point x="183.8085" y="491.8865"/>
      <point x="233.8975" y="358.70250000000004" type="curve" smooth="yes"/>
      <point x="295.6395" y="188.75200000000004"/>
      <point x="310.88200000000006" y="121.777"/>
      <point x="310.88200000000006" y="50.4765" type="curve" smooth="yes"/>
      <point x="310.896" y="-71.8685"/>
      <point x="253.55600000000004" y="-161.53699999999998"/>
    </contour>
  </outline>
</glyph>
<glyph name="copyright" format="2">
  <advance width="529.534"/>
  <unicode hex="00A9"/>
  <outline>
    <contour>
      <point x="264.81" y="25.962" type="curve" smooth="yes"/>
      <point x="138.58899999999997" y="25.962"/>
      <point x="72.57499999999999" y="125.116"/>
      <point x="72.57499999999999" y="350.301" type="curve" smooth="yes"/>
      <point x="72.57499999999999" y="576.085"/>
      <point x="138.67499999999998" y="674.468"/>
      <point x="264.81" y="674.468" type="curve" smooth="yes"/>
      <point x="392.02000000000004" y="674.468"/>
      <point x="456.572" y="576.085"/>
      <point x="456.572" y="350.301" type="curve" smooth="yes"/>
      <point x="456.572" y="125.116"/>
      <point x="392.10600000000005" y="25.962"/>
    </contour>
    <contour>
      <point x="264.81" y="710.0" type="curve" smooth="yes"/>
      <point x="115.142" y="710.0"/>
      <point x="35.28" y="595.912"/>
      <point x="35.28" y="350.301" type="curve" smooth="yes"/>
      <point x="35.28" y="105.58999999999999"/>
      <point x="115.056" y="-10.0"/>
      <point x="264.81" y="-10.0" type="curve" smooth="yes"/>
      <point x="414.47799999999995" y="-10.0"/>
      <point x="494.2539999999999" y="105.58999999999999"/>
      <point x="494.2539999999999" y="350.301" type="curve" smooth="yes"/>
      <point x="494.2539999999999" y="595.912"/>
      <point x="414.478" y="710.0"/>
    </contour>
    <contour>
      <point x="155.98000000000002" y="343.97" type="curve" smooth="yes"/>
      <point x="155.98000000000002" y="210.60099999999997"/>
      <point x="197.35" y="147.43400000000003"/>
      <point x="273.33700000000005" y="147.43400000000003" type="curve" smooth="yes"/>
      <point x="297.702" y="147.43400000000003"/>
      <point x="324.43300000000005" y="150.70499999999998"/>
      <point x="347.46700000000004" y="159.855" type="curve"/>
      <point x="336.6020000000001" y="220.92600000000002" type="line"/>
      <point x="318.834" y="215.71800000000002"/>
      <point x="298.655" y="212.845"/>
      <point x="281.292" y="212.845" type="curve" smooth="yes"/>
      <point x="240.304" y="212.845"/>
      <point x="227.021" y="255.42"/>
      <point x="227.021" y="341.60499999999996" type="curve" smooth="yes"/>
      <point x="227.021" y="447.548"/>
      <point x="245.02800000000002" y="483.638"/>
      <point x="285.8189999999999" y="483.638" type="curve" smooth="yes"/>
      <point x="300.194" y="483.638"/>
      <point x="320.25199999999995" y="480.386"/>
      <point x="335.09999999999997" y="476.07099999999997" type="curve"/>
      <point x="347.29799999999994" y="535.938" type="line"/>
      <point x="327.20699999999994" y="545.3700000000001"/>
      <point x="299.74899999999997" y="549.135"/>
      <point x="275.327" y="549.135" type="curve" smooth="yes"/>
      <point x="203.006" y="549.135"/>
      <point x="155.98000000000002" y="497.218"/>
    </contour>
  </outline>
</glyph>
<glyph name="ordfeminine" format="2">
  <advance width="267.922"/>
  <unicode hex="00AA"/>
  <outline>
    <contour>
      <point x="28.357" y="269.931" type="line"/>
      <point x="243.506" y="269.931" type="line"/>
      <point x="243.506" y="319.981" type="line"/>
      <point x="28.357" y="319.981" type="line"/>
    </contour>
    <component base="a.superior" xOffset="10.451"/>
  </outline>
</glyph>
<glyph name="logicalnot" format="2">
  <advance width="417.896"/>
  <unicode hex="00AC"/>
  <outline>
    <contour>
      <point x="44.484" y="342.03200000000004" type="line"/>
      <point x="291.78999999999996" y="342.03200000000004" type="line"/>
      <point x="291.78999999999996" y="176.699" type="line"/>
      <point x="373.92499999999995" y="176.699" type="line"/>
      <point x="373.92499999999995" y="424.16700000000003" type="line"/>
      <point x="44.484" y="424.16700000000003" type="line"/>
    </contour>
  </outline>
</glyph>
<glyph name="registered" format="2">
  <advance width="506.6855"/>
  <unicode hex="00AE"/>
  <outline>
    <contour>
      <point x="252.879" y="207.9065" type="curve" smooth="yes"/>
      <point x="395.841" y="207.9065"/>
      <point x="471.40549999999996" y="317.497"/>
      <point x="471.40549999999996" y="550.3795" type="curve" smooth="yes"/>
      <point x="471.40549999999996" y="783.7965000000002"/>
      <point x="395.884" y="892.2075"/>
      <point x="252.879" y="892.2075" type="curve" smooth="yes"/>
      <point x="110.8415" y="892.2075"/>
      <point x="35.28" y="783.7965000000002"/>
      <point x="35.28" y="550.3795" type="curve" smooth="yes"/>
      <point x="35.28" y="317.9485"/>
      <point x="110.69099999999999" y="207.9065"/>
    </contour>
    <contour>
      <point x="252.879" y="241.90099999999998" type="curve" smooth="yes"/>
      <point x="132.88" y="241.90099999999998"/>
      <point x="71.0345" y="336.43149999999997"/>
      <point x="71.0345" y="550.3795" type="curve" smooth="yes"/>
      <point x="71.0345" y="764.948"/>
      <point x="132.837" y="858.5569999999999"/>
      <point x="252.879" y="858.5569999999999" type="curve" smooth="yes"/>
      <point x="374.94199999999995" y="858.5569999999999"/>
      <point x="435.734" y="764.991"/>
      <point x="435.734" y="550.3795" type="curve" smooth="yes"/>
      <point x="435.734" y="336.28099999999995"/>
      <point x="374.8345" y="241.90099999999998"/>
    </contour>
    <contour>
      <point x="353.1965" y="373.74649999999997" type="curve" smooth="yes"/>
      <point x="357.336" y="373.74649999999997"/>
      <point x="361.9190000000001" y="373.74649999999997"/>
      <point x="366.97700000000003" y="374.58199999999994" type="curve"/>
      <point x="365.43800000000005" y="439.59499999999997" type="line"/>
      <point x="363.58850000000007" y="439.08199999999994"/>
      <point x="361.73600000000005" y="439.08199999999994"/>
      <point x="359.736" y="439.08199999999994" type="curve" smooth="yes"/>
      <point x="338.6815" y="439.14649999999995"/>
      <point x="326.1764999999999" y="467.63749999999993"/>
      <point x="308.59150000000005" y="525.5175" type="curve"/>
      <point x="342.73499999999996" y="541.428"/>
      <point x="354.42850000000004" y="582.768"/>
      <point x="354.42850000000004" y="633.292" type="curve" smooth="yes"/>
      <point x="354.42850000000004" y="708.5830000000001"/>
      <point x="321.04350000000005" y="740.9775"/>
      <point x="253.9195" y="740.9775" type="curve" smooth="yes"/>
      <point x="225.17649999999998" y="740.9775"/>
      <point x="197.32899999999998" y="738.726"/>
      <point x="164.97400000000002" y="735.1484999999999" type="curve"/>
      <point x="164.97400000000002" y="377.30199999999996" type="line"/>
      <point x="225.83450000000005" y="377.30199999999996" type="line"/>
      <point x="225.83450000000005" y="506.258" type="line"/>
      <point x="232.4305" y="505.731"/>
      <point x="238.638" y="505.118"/>
      <point x="244.394" y="505.118" type="curve" smooth="yes"/>
      <point x="247.77599999999998" y="505.118"/>
      <point x="250.66350000000003" y="505.118"/>
      <point x="253.93800000000002" y="505.631" type="curve"/>
      <point x="288.60850000000005" y="386.2085"/>
      <point x="315.705" y="373.854"/>
    </contour>
    <contour>
      <point x="248.10399999999998" y="549.6200000000001" type="curve" smooth="yes"/>
      <point x="241.11949999999996" y="549.6200000000001"/>
      <point x="234.47899999999998" y="549.677"/>
      <point x="225.83450000000005" y="550.634" type="curve"/>
      <point x="225.83450000000005" y="682.389" type="line"/>
      <point x="237.84999999999997" y="684.446"/>
      <point x="245.17499999999998" y="684.9730000000001"/>
      <point x="253.465" y="684.9730000000001" type="curve" smooth="yes"/>
      <point x="288.07800000000003" y="684.9730000000001"/>
      <point x="291.805" y="661.4554999999999"/>
      <point x="291.805" y="623.58" type="curve" smooth="yes"/>
      <point x="291.805" y="576.6850000000001"/>
      <point x="285.911" y="549.6200000000001"/>
    </contour>
  </outline>
</glyph>
<glyph name="degree" format="2">
  <advance width="272.45"/>
  <unicode hex="00B0"/>
  <outline>
    <contour>
      <point x="135.698" y="453.78000000000003" type="curve" smooth="yes"/>
      <point x="209.483" y="453.78000000000003"/>
      <point x="245.976" y="512.7230000000001"/>
      <point x="245.976" y="586.45" type="curve" smooth="yes"/>
      <point x="245.976" y="657.21"/>
      <point x="212.149" y="720.26"/>
      <point x="135.698" y="720.26" type="curve" smooth="yes"/>
      <point x="59.161" y="720.26"/>
      <point x="26.474" y="657.21"/>
      <point x="26.474" y="586.45" type="curve" smooth="yes"/>
      <point x="26.474" y="512.7230000000001"/>
      <point x="61.913" y="453.78000000000003"/>
    </contour>
    <contour>
      <point x="135.698" y="520.822" type="curve" smooth="yes"/>
      <point x="104.90499999999999" y="520.822"/>
      <point x="89.646" y="548.749"/>
      <point x="89.646" y="586.063" type="curve" smooth="yes"/>
      <point x="89.646" y="622.4309999999999"/>
      <point x="104.432" y="651.5840000000001"/>
      <point x="135.698" y="651.5840000000001" type="curve" smooth="yes"/>
      <point x="166.878" y="651.5840000000001"/>
      <point x="182.89" y="622.4309999999999"/>
      <point x="182.89" y="586.063" type="curve" smooth="yes"/>
      <point x="182.89" y="548.749"/>
      <point x="166.491" y="520.822"/>
    </contour>
  </outline>
</glyph>
<glyph name="plusminus" format="2">
  <advance width="434.312"/>
  <unicode hex="00B1"/>
  <outline>
    <contour>
      <point x="42.431999999999995" y="40.997" type="line"/>
      <point x="391.88" y="40.997" type="line"/>
      <point x="391.88" y="123.13199999999999" type="line"/>
      <point x="259.062" y="123.13199999999999" type="line"/>
      <point x="259.062" y="276.414" type="line"/>
      <point x="391.88" y="276.414" type="line"/>
      <point x="391.88" y="358.549" type="line"/>
      <point x="259.062" y="358.549" type="line"/>
      <point x="259.062" y="504.3" type="line"/>
      <point x="175.20700000000002" y="504.3" type="line"/>
      <point x="175.20700000000002" y="358.549" type="line"/>
      <point x="42.431999999999995" y="358.549" type="line"/>
      <point x="42.431999999999995" y="276.414" type="line"/>
      <point x="175.20700000000002" y="276.414" type="line"/>
      <point x="175.20700000000002" y="123.13199999999999" type="line"/>
      <point x="42.431999999999995" y="123.13199999999999" type="line"/>
    </contour>
  </outline>
</glyph>
<glyph name="uni00B2" format="2">
  <advance width="279.137"/>
  <unicode hex="00B2"/>
  <outline>
    <contour>
      <point x="45.678" y="370.0" type="line"/>
      <point x="240.816" y="370.0" type="line"/>
      <point x="240.816" y="419.712" type="line"/>
      <point x="118.974" y="419.712" type="line"/>
      <point x="197.65299999999996" y="539.5169999999999"/>
      <point x="222.01099999999997" y="599.6170000000001"/>
      <point x="222.01099999999997" y="659.899" type="curve" smooth="yes"/>
      <point x="222.01099999999997" y="734.031"/>
      <point x="187.35" y="775.142"/>
      <point x="127.48499999999999" y="775.142" type="curve" smooth="yes"/>
      <point x="94.45500000000001" y="775.142"/>
      <point x="64.10300000000001" y="765.576"/>
      <point x="36.548" y="741.805" type="curve"/>
      <point x="58.581" y="689.0419999999999" type="line"/>
      <point x="78.357" y="706.725"/>
      <point x="94.822" y="710.94"/>
      <point x="114.431" y="710.94" type="curve" smooth="yes"/>
      <point x="141.584" y="710.94"/>
      <point x="158.661" y="684.395"/>
      <point x="158.661" y="645.0880000000001" type="curve" smooth="yes"/>
      <point x="158.661" y="597.564"/>
      <point x="120.569" y="521.989"/>
      <point x="43.967999999999996" y="414.831" type="curve"/>
    </contour>
  </outline>
</glyph>
<glyph name="uni00B3" format="2">
  <advance width="281.806"/>
  <unicode hex="00B3"/>
  <outline>
    <contour>
      <point x="33.695" y="389.824" type="line"/>
      <point x="63.757" y="370.348"/>
      <point x="91.11099999999999" y="362.45099999999996"/>
      <point x="128.48499999999999" y="362.45099999999996" type="curve" smooth="yes"/>
      <point x="200.10299999999998" y="362.45099999999996"/>
      <point x="243.891" y="407.393"/>
      <point x="243.891" y="484.15500000000003" type="curve" smooth="yes"/>
      <point x="243.891" y="532.255"/>
      <point x="224.65699999999998" y="567.3240000000001"/>
      <point x="187.02700000000002" y="581.168" type="curve"/>
      <point x="216.89000000000001" y="596.911"/>
      <point x="233.942" y="631.596"/>
      <point x="233.942" y="672.297" type="curve" smooth="yes"/>
      <point x="233.942" y="735.236"/>
      <point x="195.346" y="775.0039999999999"/>
      <point x="129.894" y="775.0039999999999" type="curve" smooth="yes"/>
      <point x="93.01700000000001" y="775.0039999999999"/>
      <point x="61.458" y="765.8140000000001"/>
      <point x="39.433" y="749.2289999999999" type="curve"/>
      <point x="58.887" y="703.172" type="line"/>
      <point x="70.62299999999999" y="711.1370000000001"/>
      <point x="88.447" y="716.4520000000001"/>
      <point x="115.352" y="716.4520000000001" type="curve" smooth="yes"/>
      <point x="151.16199999999998" y="716.4520000000001"/>
      <point x="172.825" y="693.815"/>
      <point x="172.825" y="655.485" type="curve" smooth="yes"/>
      <point x="172.825" y="623.061"/>
      <point x="159.405" y="598.001"/>
      <point x="126.474" y="598.001" type="curve" smooth="yes"/>
      <point x="87.219" y="598.001" type="line"/>
      <point x="87.219" y="550.9689999999999" type="line"/>
      <point x="126.37400000000001" y="550.9689999999999" type="line" smooth="yes"/>
      <point x="167.758" y="550.9689999999999"/>
      <point x="180.88799999999998" y="527.274"/>
      <point x="180.88799999999998" y="489.315" type="curve" smooth="yes"/>
      <point x="180.88799999999998" y="444.268"/>
      <point x="158.591" y="417.836"/>
      <point x="120.10300000000001" y="417.836" type="curve" smooth="yes"/>
      <point x="91.649" y="417.836"/>
      <point x="74.554" y="423.33099999999996"/>
      <point x="55.721999999999994" y="436.495" type="curve"/>
    </contour>
  </outline>
</glyph>
<glyph name="uni00B5" format="2">
  <advance width="395.32"/>
  <unicode hex="00B5"/>
  <outline>
    <contour>
      <point x="39.315" y="-210.0" type="line"/>
      <point x="127.857" y="-210.0" type="line"/>
      <point x="127.857" y="12.056999999999999" type="line"/>
      <point x="139.04199999999997" y="-3.2220000000000004"/>
      <point x="156.18800000000002" y="-9.226"/>
      <point x="177.217" y="-9.226" type="curve" smooth="yes"/>
      <point x="209.02400000000003" y="-9.226"/>
      <point x="240.863" y="4.975999999999999"/>
      <point x="266.065" y="24.044999999999998" type="curve"/>
      <point x="277.319" y="3.247"/>
      <point x="293.283" y="-10.0"/>
      <point x="327.916" y="-10.0" type="curve" smooth="yes"/>
      <point x="354.498" y="-10.0"/>
      <point x="375.616" y="-3.2560000000000002"/>
      <point x="394.60299999999995" y="6.826" type="curve"/>
      <point x="385.38100000000003" y="81.389" type="line"/>
      <point x="378.07599999999996" y="77.98"/>
      <point x="370.095" y="76.353"/>
      <point x="362.859" y="76.353" type="curve" smooth="yes"/>
      <point x="350.285" y="76.353"/>
      <point x="343.15" y="84.08800000000001"/>
      <point x="343.15" y="107.71" type="curve" smooth="yes"/>
      <point x="343.15" y="538.6" type="line"/>
      <point x="251.125" y="538.6" type="line"/>
      <point x="251.125" y="97.354" type="line"/>
      <point x="230.682" y="83.445"/>
      <point x="205.212" y="74.291"/>
      <point x="183.388" y="74.291" type="curve" smooth="yes"/>
      <point x="150.33500000000004" y="74.291"/>
      <point x="131.72699999999998" y="93.967"/>
      <point x="131.72699999999998" y="133.075" type="curve" smooth="yes"/>
      <point x="131.72699999999998" y="538.6" type="line"/>
      <point x="39.315" y="538.6" type="line"/>
    </contour>
  </outline>
</glyph>
<glyph name="paragraph" format="2">
  <advance width="496.41300000000007"/>
  <unicode hex="00B6"/>
  <outline>
    <contour>
      <point x="379.881" y="-210.0" type="line"/>
      <point x="453.803" y="-210.0" type="line"/>
      <point x="453.803" y="740.0" type="line"/>
      <point x="379.881" y="740.0" type="line"/>
    </contour>
    <contour>
      <point x="204.101" y="272.16700000000003" type="line"/>
      <point x="143.19400000000002" y="285.476"/>
      <point x="108.06600000000002" y="359.296"/>
      <point x="108.06600000000002" y="468.87" type="curve" smooth="yes"/>
      <point x="108.06600000000002" y="576.061"/>
      <point x="148.175" y="655.381"/>
      <point x="235.81699999999998" y="658.117" type="curve"/>
      <point x="235.81699999999998" y="-210.0" type="line"/>
      <point x="309.73900000000003" y="-210.0" type="line"/>
      <point x="309.73900000000003" y="740.0" type="line"/>
      <point x="261.485" y="740.0" type="line" smooth="yes"/>
      <point x="86.42399999999999" y="740.0"/>
      <point x="25.587000000000003" y="618.141"/>
      <point x="25.587000000000003" y="472.267" type="curve" smooth="yes"/>
      <point x="25.587000000000003" y="333.696"/>
      <point x="77.63699999999999" y="233.02999999999997"/>
      <point x="194.31499999999997" y="208.65099999999998" type="curve"/>
    </contour>
  </outline>
</glyph>
<glyph name="periodcentered" format="2">
  <advance width="153.109"/>
  <unicode hex="00B7"/>
  <outline>
    <contour>
      <point x="25.217" y="304.41499999999996" type="curve" smooth="yes"/>
      <point x="25.217" y="261.755"/>
      <point x="39.131" y="244.415"/>
      <point x="76.88399999999999" y="244.415" type="curve" smooth="yes"/>
      <point x="114.99199999999999" y="244.415"/>
      <point x="127.906" y="261.755"/>
      <point x="127.906" y="304.41499999999996" type="curve" smooth="yes"/>
      <point x="127.906" y="347.2900000000001"/>
      <point x="114.99199999999999" y="364.63000000000005"/>
      <point x="76.88399999999999" y="364.63000000000005" type="curve" smooth="yes"/>
      <point x="38.131" y="364.63000000000005"/>
      <point x="25.217" y="347.2900000000001"/>
    </contour>
  </outline>
</glyph>
<glyph name="uni00B9" format="2">
  <advance width="257.904"/>
  <unicode hex="00B9"/>
  <outline>
    <contour>
      <point x="29.445" y="370.0" type="line"/>
      <point x="236.45600000000002" y="370.0" type="line"/>
      <point x="236.45600000000002" y="420.44" type="line"/>
      <point x="169.33700000000002" y="420.44" type="line"/>
      <point x="169.33700000000002" y="769.241" type="line"/>
      <point x="137.221" y="769.241" type="line"/>
      <point x="22.896" y="712.068" type="line"/>
      <point x="36.415000000000006" y="656.763" type="line"/>
      <point x="105.617" y="696.677" type="line"/>
      <point x="105.617" y="420.44" type="line"/>
      <point x="29.445" y="420.44" type="line"/>
    </contour>
  </outline>
</glyph>
<glyph name="ordmasculine" format="2">
  <advance width="279.796"/>
  <unicode hex="00BA"/>
  <outline>
    <contour>
      <point x="34.199" y="269.98799999999994" type="line"/>
      <point x="249.804" y="269.98799999999994" type="line"/>
      <point x="249.804" y="320.03799999999995" type="line"/>
      <point x="34.199" y="320.03799999999995" type="line"/>
    </contour>
    <component base="o.superior" xOffset="14.156"/>
  </outline>
</glyph>
<glyph name="questiondown" format="2">
  <advance width="331.293"/>
  <unicode hex="00BF"/>
  <outline>
    <contour>
      <point x="235.795" y="272.621" type="line"/>
      <point x="154.391" y="272.621" type="line"/>
      <point x="154.30499999999998" y="198.702" type="line"/>
      <point x="69.566" y="138.243"/>
      <point x="31.163" y="77.04499999999999"/>
      <point x="31.163" y="-27.93" type="curve" smooth="yes"/>
      <point x="31.163" y="-154.53"/>
      <point x="101.07100000000001" y="-215.313"/>
      <point x="197.329" y="-215.313" type="curve" smooth="yes"/>
      <point x="249.4" y="-215.313"/>
      <point x="301.34399999999994" y="-193.84099999999998"/>
      <point x="337.928" y="-161.118" type="curve"/>
      <point x="303.93999999999994" y="-80.79599999999999" type="line"/>
      <point x="269.543" y="-110.177"/>
      <point x="239.484" y="-119.974"/>
      <point x="210.745" y="-119.974" type="curve" smooth="yes"/>
      <point x="162.24999999999997" y="-119.974"/>
      <point x="126.926" y="-79.386"/>
      <point x="126.926" y="-13.691" type="curve" smooth="yes"/>
      <point x="126.926" y="50.474"/>
      <point x="148.9" y="98.559"/>
      <point x="237.64399999999998" y="157.311" type="curve"/>
    </contour>
    <contour>
      <point x="246.229" y="478.772" type="curve" smooth="yes"/>
      <point x="246.229" y="521.303"/>
      <point x="232.192" y="538.6429999999999"/>
      <point x="194.565" y="538.6429999999999" type="curve" smooth="yes"/>
      <point x="157.142" y="538.6429999999999"/>
      <point x="143.41400000000002" y="521.303"/>
      <point x="143.41400000000002" y="478.772" type="curve" smooth="yes"/>
      <point x="143.41400000000002" y="435.811"/>
      <point x="157.142" y="418.471"/>
      <point x="194.565" y="418.471" type="curve" smooth="yes"/>
      <point x="233.275" y="418.471"/>
      <point x="246.229" y="435.811"/>
    </contour>
  </outline>
</glyph>
<glyph name="AE" format="2">
  <advance width="631.364"/>
  <unicode hex="00C6"/>
  <anchor x="352.4365000000001" y="700.0" name="top"/>
  <outline>
    <contour>
      <point x="10.918999999999999" y="0.0" type="line"/>
      <point x="113.91350000000001" y="-0.6635000000000001" type="line"/>
      <point x="193.47950000000003" y="230.11950000000002" type="line"/>
      <point x="313.005" y="230.11950000000002" type="line"/>
      <point x="313.005" y="0.0" type="line"/>
      <point x="616.2284999999999" y="0.0" type="line"/>
      <point x="616.2284999999999" y="90.735" type="line"/>
      <point x="404.2775" y="90.735" type="line"/>
      <point x="404.2775" y="296.6435" type="line"/>
      <point x="584.382" y="296.6435" type="line"/>
      <point x="584.382" y="383.9384999999999" type="line"/>
      <point x="404.2775" y="383.9384999999999" type="line"/>
      <point x="404.2775" y="607.6524999999999" type="line"/>
      <point x="604.135" y="607.6524999999999" type="line"/>
      <point x="604.135" y="700.0" type="line"/>
      <point x="252.275" y="700.0" type="line"/>
    </contour>
    <contour>
      <point x="216.5485" y="317.71849999999995" type="line"/>
      <point x="312.145" y="631.4005000000001" type="line"/>
      <point x="312.145" y="317.71849999999995" type="line"/>
    </contour>
  </outline>
</glyph>
<glyph name="multiply" format="2">
  <advance width="403.336"/>
  <unicode hex="00D7"/>
  <outline>
    <contour>
      <point x="104.96200000000002" y="108.33499999999998" type="line"/>
      <point x="201.212" y="248.82299999999998" type="line"/>
      <point x="298.317" y="109.01899999999999" type="line"/>
      <point x="357.627" y="165.045" type="line"/>
      <point x="258.906" y="309.80100000000004" type="line"/>
      <point x="357.228" y="455.74" type="line"/>
      <point x="297.918" y="511.766" type="line"/>
      <point x="201.212" y="371.29200000000003" type="line"/>
      <point x="104.905" y="511.88" type="line"/>
      <point x="45.595" y="455.854" type="line"/>
      <point x="143.988" y="309.80100000000004" type="line"/>
      <point x="45.651999999999994" y="164.361" type="line"/>
    </contour>
  </outline>
</glyph>
<glyph name="Oslash" format="2">
  <advance width="438.0"/>
  <unicode hex="00D8"/>
  <anchor x="218.82500000000002" y="700.0" name="top"/>
  <outline>
    <contour>
      <point x="93.20500000000001" y="-10.43" type="line"/>
      <point x="124.275" y="58.89" type="line"/>
      <point x="131.68" y="59.295" type="line"/>
      <point x="349.32" y="587.39" type="line"/>
      <point x="356.08" y="587.255" type="line"/>
      <point x="410.95000000000005" y="714.3" type="line"/>
      <point x="345.265" y="714.3" type="line"/>
      <point x="310.17999999999995" y="632.94" type="line"/>
      <point x="302.74" y="632.5" type="line"/>
      <point x="90.51" y="119.31" type="line"/>
      <point x="84.5" y="119.86500000000001" type="line"/>
      <point x="27.77" y="-10.43" type="line"/>
    </contour>
    <contour>
      <point x="218.82500000000002" y="70.815" type="curve" smooth="yes"/>
      <point x="152.105" y="70.815"/>
      <point x="117.21" y="123.655"/>
      <point x="117.21" y="349.215" type="curve" smooth="yes"/>
      <point x="117.21" y="576.52"/>
      <point x="152.105" y="629.1850000000001"/>
      <point x="218.82500000000002" y="629.1850000000001" type="curve" smooth="yes"/>
      <point x="286.33000000000004" y="629.1850000000001"/>
      <point x="321.475" y="577.1999999999999"/>
      <point x="321.475" y="349.86" type="curve" smooth="yes"/>
      <point x="321.475" y="123.66"/>
      <point x="286.33000000000004" y="70.815"/>
    </contour>
    <contour>
      <point x="218.82500000000002" y="-10.0" type="curve" smooth="yes"/>
      <point x="347.27" y="-10.0"/>
      <point x="413.32" y="68.78"/>
      <point x="413.32" y="351.00500000000005" type="curve" smooth="yes"/>
      <point x="413.32" y="631.65"/>
      <point x="348.17" y="710.0"/>
      <point x="218.82500000000002" y="710.0" type="curve" smooth="yes"/>
      <point x="89.98" y="710.0"/>
      <point x="25.400000000000002" y="630.755"/>
      <point x="25.400000000000002" y="349.215" type="curve" smooth="yes"/>
      <point x="25.400000000000002" y="69.02499999999999"/>
      <point x="90.84" y="-10.0"/>
    </contour>
  </outline>
</glyph>
<glyph name="Thorn" format="2">
  <advance width="405.35699999999997"/>
  <unicode hex="00DE"/>
  <outline>
    <contour>
      <point x="41.891999999999996" y="0.0" type="line"/>
      <point x="135.164" y="0.0" type="line"/>
      <point x="135.164" y="146.844" type="line"/>
      <point x="167.28699999999998" y="144.38299999999998"/>
      <point x="178.537" y="144.326"/>
      <point x="209.665" y="144.326" type="curve" smooth="yes"/>
      <point x="332.961" y="144.326"/>
      <point x="387.02700000000004" y="219.072"/>
      <point x="387.02700000000004" y="391.846" type="curve" smooth="yes"/>
      <point x="387.02700000000004" y="557.75"/>
      <point x="341.69399999999996" y="623.3190000000001"/>
      <point x="190.472" y="623.3190000000001" type="curve" smooth="yes"/>
      <point x="176.70299999999997" y="623.3190000000001"/>
      <point x="159.902" y="622.649"/>
      <point x="135.551" y="621.124" type="curve"/>
      <point x="135.551" y="700.0" type="line"/>
      <point x="41.891999999999996" y="700.0" type="line"/>
    </contour>
    <contour>
      <point x="191.344" y="232.395" type="curve" smooth="yes"/>
      <point x="170.772" y="232.395"/>
      <point x="157.391" y="232.60899999999998"/>
      <point x="135.551" y="234.239" type="curve"/>
      <point x="135.551" y="535.159" type="line"/>
      <point x="164.57399999999998" y="538.487"/>
      <point x="180.987" y="539.114"/>
      <point x="196.79" y="539.114" type="curve" smooth="yes"/>
      <point x="274.548" y="539.114"/>
      <point x="293.454" y="497.333"/>
      <point x="293.454" y="394.908" type="curve" smooth="yes"/>
      <point x="293.454" y="286.652"/>
      <point x="268.409" y="232.395"/>
    </contour>
  </outline>
</glyph>
<glyph name="germandbls" format="2">
  <advance width="486.024"/>
  <unicode hex="00DF"/>
  <outline>
    <contour>
      <point x="70.12400000000001" y="0.0" type="line"/>
      <point x="161.762" y="0.0" type="line"/>
      <point x="161.762" y="530.8919999999999" type="line" smooth="yes"/>
      <point x="161.762" y="622.952"/>
      <point x="195.97" y="665.984"/>
      <point x="269.87" y="665.984" type="curve" smooth="yes"/>
      <point x="323.562" y="665.984"/>
      <point x="347.21000000000004" y="644.208"/>
      <point x="347.21000000000004" y="604.2959999999999" type="curve" smooth="yes"/>
      <point x="347.21000000000004" y="573.066"/>
      <point x="337.858" y="555.0939999999999"/>
      <point x="292.222" y="523.998" type="curve" smooth="yes"/>
      <point x="241.492" y="490.968"/>
      <point x="214.044" y="451.884"/>
      <point x="214.044" y="393.078" type="curve" smooth="yes"/>
      <point x="214.044" y="314.156"/>
      <point x="242.49800000000002" y="279.55199999999996"/>
      <point x="320.91" y="233.97" type="curve" smooth="yes"/>
      <point x="379.222" y="197.05"/>
      <point x="396.618" y="176.646"/>
      <point x="396.618" y="139.44" type="curve" smooth="yes"/>
      <point x="396.618" y="97.714"/>
      <point x="368.426" y="70.80199999999999"/>
      <point x="313.454" y="70.80199999999999" type="curve" smooth="yes"/>
      <point x="271.628" y="70.80199999999999"/>
      <point x="242.374" y="79.678"/>
      <point x="209.392" y="91.162" type="curve"/>
      <point x="192.754" y="15.088000000000001" type="line"/>
      <point x="227.916" y="-1.5780000000000003"/>
      <point x="273.82" y="-10.0"/>
      <point x="320.07599999999996" y="-10.0" type="curve" smooth="yes"/>
      <point x="416.514" y="-10.0"/>
      <point x="481.892" y="44.38"/>
      <point x="481.892" y="145.11599999999999" type="curve" smooth="yes"/>
      <point x="481.892" y="220.674"/>
      <point x="449.05" y="264.488"/>
      <point x="369.356" y="308.608" type="curve" smooth="yes"/>
      <point x="313.622" y="342.15200000000004"/>
      <point x="300.78000000000003" y="365.032"/>
      <point x="300.78000000000003" y="399.27" type="curve" smooth="yes"/>
      <point x="300.78000000000003" y="429.714"/>
      <point x="317.206" y="449.14"/>
      <point x="354.296" y="473.908" type="curve" smooth="yes"/>
      <point x="417.296" y="514.558"/>
      <point x="441.25600000000003" y="549.0039999999999"/>
      <point x="441.25600000000003" y="606.7900000000001" type="curve" smooth="yes"/>
      <point x="441.25600000000003" y="698.7"/>
      <point x="380.71999999999997" y="750.0"/>
      <point x="266.50800000000004" y="750.0" type="curve" smooth="yes"/>
      <point x="139.274" y="750.0"/>
      <point x="70.11600000000001" y="673.922"/>
      <point x="70.12400000000001" y="544.1039999999999" type="curve" smooth="yes"/>
      <point x="70.12400000000001" y="501.778" type="line"/>
      <point x="10.888" y="494.402" type="line"/>
      <point x="10.888" y="424.674" type="line"/>
      <point x="70.12400000000001" y="424.674" type="line"/>
    </contour>
  </outline>
</glyph>
<glyph name="ae" format="2">
  <advance width="568.4525"/>
  <unicode hex="00E6"/>
  <anchor x="286.3675" y="538.6" name="top"/>
  <outline>
    <contour>
      <point x="126.945" y="-10.0" type="curve" smooth="yes"/>
      <point x="181.8525" y="-10.0"/>
      <point x="225.7025" y="14.942499999999999"/>
      <point x="270.1475" y="62.040000000000006" type="curve"/>
      <point x="271.3625" y="62.040000000000006" type="line"/>
      <point x="300.92999999999995" y="12.6325"/>
      <point x="341.6675" y="-10.0"/>
      <point x="404.37" y="-10.0" type="curve" smooth="yes"/>
      <point x="454.7575" y="-10.0"/>
      <point x="498.25750000000005" y="-0.9550000000000002"/>
      <point x="540.8075" y="16.634999999999998" type="curve"/>
      <point x="527.35" y="96.6975" type="line"/>
      <point x="491.93250000000006" y="85.41"/>
      <point x="450.25749999999994" y="77.835"/>
      <point x="419.02250000000004" y="77.835" type="curve" smooth="yes"/>
      <point x="352.02250000000004" y="77.835"/>
      <point x="323.18249999999995" y="114.23249999999999"/>
      <point x="322.7525" y="235.80250000000004" type="curve" smooth="yes"/>
      <point x="322.53749999999997" y="240.65499999999997"/>
      <point x="322.53749999999997" y="245.825"/>
      <point x="322.78749999999997" y="250.1775" type="curve"/>
      <point x="416.15749999999997" y="252.435"/>
      <point x="503.77750000000003" y="265.1825"/>
      <point x="545.72" y="270.9325" type="curve"/>
      <point x="546.0424999999999" y="281.9575"/>
      <point x="547.0425" y="297.6025"/>
      <point x="547.0425" y="312.89" type="curve" smooth="yes"/>
      <point x="547.0425" y="477.385"/>
      <point x="499.555" y="548.6"/>
      <point x="394.17249999999996" y="548.6" type="curve" smooth="yes"/>
      <point x="343.21750000000003" y="548.6"/>
      <point x="305.22749999999996" y="521.6375"/>
      <point x="281.2" y="468.57" type="curve"/>
      <point x="280.2" y="468.57" type="line"/>
      <point x="261.85" y="521.18"/>
      <point x="225.35" y="548.6"/>
      <point x="164.36749999999998" y="548.6" type="curve" smooth="yes"/>
      <point x="125.5525" y="548.6"/>
      <point x="76.03" y="538.9799999999999"/>
      <point x="35.970000000000006" y="523.72" type="curve"/>
      <point x="55.36999999999999" y="440.86" type="line"/>
      <point x="97.515" y="454.76250000000005"/>
      <point x="132.06749999999997" y="457.97249999999997"/>
      <point x="157.30749999999998" y="457.97249999999997" type="curve" smooth="yes"/>
      <point x="204.05499999999998" y="457.97249999999997"/>
      <point x="229.04000000000002" y="432.7925"/>
      <point x="229.04000000000002" y="384.9025" type="curve" smooth="yes"/>
      <point x="229.04000000000002" y="316.785" type="line"/>
      <point x="74.30249999999998" y="289.9675"/>
      <point x="11.8075" y="243.43"/>
      <point x="11.8075" y="131.795" type="curve" smooth="yes"/>
      <point x="11.8075" y="42.497499999999995"/>
      <point x="55.3675" y="-10.0"/>
    </contour>
    <contour>
      <point x="155.2125" y="63.61" type="curve" smooth="yes"/>
      <point x="123.04999999999998" y="63.61"/>
      <point x="102.7575" y="91.03999999999999"/>
      <point x="102.7575" y="141.8475" type="curve" smooth="yes"/>
      <point x="102.7575" y="208.27250000000004"/>
      <point x="145.2425" y="240.655"/>
      <point x="229.3275" y="258.33250000000004" type="curve"/>
      <point x="229.3275" y="248.36499999999998"/>
      <point x="229.3275" y="237.60750000000002"/>
      <point x="229.3275" y="227.42499999999998" type="curve" smooth="yes"/>
      <point x="229.3275" y="181.605"/>
      <point x="232.89" y="143.61749999999998"/>
      <point x="237.2725" y="114.82499999999999" type="curve"/>
      <point x="216.175" y="85.495"/>
      <point x="183.3025" y="63.61"/>
    </contour>
    <contour>
      <point x="322.1775" y="308.84749999999997" type="curve"/>
      <point x="321.64" y="431.97749999999996"/>
      <point x="349.16" y="474.34250000000003"/>
      <point x="389.59000000000003" y="474.34250000000003" type="curve" smooth="yes"/>
      <point x="432.98249999999996" y="474.34250000000003"/>
      <point x="453.7275" y="427.6625"/>
      <point x="455.2325" y="319.755" type="curve"/>
      <point x="432.90250000000003" y="314.8"/>
      <point x="372.11249999999995" y="308.8475"/>
    </contour>
  </outline>
</glyph>
<glyph name="eth" format="2">
  <advance width="375.16499999999996"/>
  <unicode hex="00F0"/>
  <outline>
    <contour>
      <point x="273.45000000000005" y="448.465" type="curve"/>
      <point x="278.42499999999995" y="517.2700000000001" type="line"/>
      <point x="254.45000000000002" y="531.72"/>
      <point x="225.88" y="538.395"/>
      <point x="194.20999999999998" y="538.395" type="curve" smooth="yes"/>
      <point x="71.795" y="538.395"/>
      <point x="24.255" y="450.23499999999996"/>
      <point x="24.255" y="252.63" type="curve" smooth="yes"/>
      <point x="24.255" y="66.945"/>
      <point x="73.155" y="-10.0"/>
      <point x="182.63" y="-10.0" type="curve" smooth="yes"/>
      <point x="310.17" y="-10.0"/>
      <point x="352.56" y="72.095"/>
      <point x="352.56" y="335.87" type="curve" smooth="yes"/>
      <point x="352.56" y="608.505"/>
      <point x="291.46500000000003" y="728.0600000000001"/>
      <point x="134.63500000000002" y="728.0600000000001" type="curve" smooth="yes"/>
      <point x="96.42500000000001" y="728.0600000000001"/>
      <point x="63.275" y="720.6899999999999"/>
      <point x="27.585" y="709.575" type="curve"/>
      <point x="39.535" y="646.745" type="line"/>
      <point x="66.32" y="654.4599999999999"/>
      <point x="87.47" y="659.965"/>
      <point x="114.575" y="659.965" type="curve" smooth="yes"/>
      <point x="227.37" y="659.965"/>
      <point x="259.78000000000003" y="591.105"/>
      <point x="259.78000000000003" y="345.48" type="curve" smooth="yes"/>
      <point x="259.78000000000003" y="112.095"/>
      <point x="242.635" y="60.709999999999994"/>
      <point x="188.11" y="60.709999999999994" type="curve" smooth="yes"/>
      <point x="137.97" y="60.709999999999994"/>
      <point x="119.505" y="109.54"/>
      <point x="119.505" y="252.88" type="curve" smooth="yes"/>
      <point x="119.505" y="419.165"/>
      <point x="146.09" y="468.365"/>
      <point x="208.97500000000002" y="468.365" type="curve" smooth="yes"/>
      <point x="230.66000000000003" y="468.365"/>
      <point x="253.0" y="463.76"/>
    </contour>
    <contour>
      <point x="132.39" y="559.5400000000001" type="line"/>
      <point x="239.16" y="638.12" type="line"/>
      <point x="242.91" y="645.175" type="line"/>
      <point x="355.22" y="731.765" type="line"/>
      <point x="275.62" y="731.765" type="line"/>
      <point x="209.975" y="682.3599999999999" type="line"/>
      <point x="209.45" y="678.0300000000001" type="line"/>
      <point x="52.47" y="559.5400000000001" type="line"/>
    </contour>
  </outline>
</glyph>
<glyph name="divide" format="2">
  <advance width="418.02500000000003"/>
  <unicode hex="00F7"/>
  <outline>
    <contour>
      <point x="160.893" y="129.836" type="curve" smooth="yes"/>
      <point x="160.893" y="95.56099999999999"/>
      <point x="173.60600000000002" y="81.876"/>
      <point x="209.335" y="81.876" type="curve" smooth="yes"/>
      <point x="244.648" y="81.876"/>
      <point x="257.77700000000004" y="95.56099999999999"/>
      <point x="257.77700000000004" y="129.836" type="curve" smooth="yes"/>
      <point x="257.77700000000004" y="163.89600000000002"/>
      <point x="244.52200000000002" y="177.796"/>
      <point x="209.335" y="177.796" type="curve" smooth="yes"/>
      <point x="173.377" y="177.796"/>
      <point x="160.893" y="163.89600000000002"/>
    </contour>
    <contour>
      <point x="160.893" y="482.564" type="curve" smooth="yes"/>
      <point x="160.893" y="448.504"/>
      <point x="173.73200000000003" y="435.2490000000001"/>
      <point x="209.335" y="435.2490000000001" type="curve" smooth="yes"/>
      <point x="244.648" y="435.2490000000001"/>
      <point x="257.77700000000004" y="448.504"/>
      <point x="257.77700000000004" y="482.564" type="curve" smooth="yes"/>
      <point x="257.77700000000004" y="517.4839999999999"/>
      <point x="244.648" y="530.739"/>
      <point x="209.335" y="530.739" type="curve" smooth="yes"/>
      <point x="173.377" y="530.739"/>
      <point x="160.893" y="517.4839999999999"/>
    </contour>
    <contour>
      <point x="42.775999999999996" y="265.455" type="line"/>
      <point x="375.894" y="265.455" type="line"/>
      <point x="375.894" y="347.80499999999995" type="line"/>
      <point x="42.775999999999996" y="347.80499999999995" type="line"/>
    </contour>
  </outline>
</glyph>
<glyph name="oslash" format="2">
  <advance width="382.105"/>
  <unicode hex="00F8"/>
  <anchor x="189.53" y="538.6" name="top"/>
  <outline>
    <contour>
      <point x="189.53" y="-10.0" type="curve" smooth="yes"/>
      <point x="61.9" y="-10.0"/>
      <point x="23.61" y="77.67"/>
      <point x="23.61" y="270.19500000000005" type="curve" smooth="yes"/>
      <point x="23.61" y="461.435"/>
      <point x="59.934999999999995" y="548.6"/>
      <point x="189.53" y="548.6" type="curve" smooth="yes"/>
      <point x="318.94499999999994" y="548.6"/>
      <point x="356.13" y="461.435"/>
      <point x="356.13" y="270.19500000000005" type="curve" smooth="yes"/>
      <point x="356.13" y="77.67"/>
      <point x="317.19499999999994" y="-10.0"/>
    </contour>
    <contour>
      <point x="190.17499999999998" y="67.16" type="curve" smooth="yes"/>
      <point x="244.785" y="67.16"/>
      <point x="264.965" y="104.885"/>
      <point x="264.965" y="270.19500000000005" type="curve" smooth="yes"/>
      <point x="264.965" y="434.46999999999997"/>
      <point x="245.89" y="472.08500000000004"/>
      <point x="190.17499999999998" y="472.08500000000004" type="curve" smooth="yes"/>
      <point x="133.635" y="472.08500000000004"/>
      <point x="115.205" y="434.46999999999997"/>
      <point x="115.205" y="270.19500000000005" type="curve" smooth="yes"/>
      <point x="115.205" y="104.885"/>
      <point x="134.95499999999998" y="67.16"/>
    </contour>
    <contour>
      <point x="22.075" y="-6.13" type="line"/>
      <point x="81.67" y="117.5" type="line"/>
      <point x="86.0" y="115.995" type="line"/>
      <point x="261.17" y="490.89500000000004" type="line"/>
      <point x="266.78999999999996" y="489.39" type="line"/>
      <point x="296.21000000000004" y="548.6" type="line"/>
      <point x="357.66499999999996" y="548.6" type="line"/>
      <point x="304.235" y="440.85" type="line"/>
      <point x="299.26" y="442.355" type="line"/>
      <point x="121.4" y="59.815" type="line"/>
      <point x="115.78" y="61.32" type="line"/>
      <point x="83.1" y="-6.13" type="line"/>
    </contour>
  </outline>
</glyph>
<glyph name="thorn" format="2">
  <advance width="380.957"/>
  <unicode hex="00FE"/>
  <outline>
    <contour>
      <point x="39.315" y="-210.0" type="line"/>
      <point x="130.60899999999998" y="-210.0" type="line"/>
      <point x="130.60899999999998" y="-4.285" type="line"/>
      <point x="147.896" y="-8.418"/>
      <point x="163.18599999999998" y="-10.0"/>
      <point x="177.55200000000002" y="-10.0" type="curve" smooth="yes"/>
      <point x="307.013" y="-10.0"/>
      <point x="356.74499999999995" y="69.87800000000001"/>
      <point x="356.74499999999995" y="282.46799999999996" type="curve" smooth="yes"/>
      <point x="356.74499999999995" y="459.486"/>
      <point x="311.08" y="548.6"/>
      <point x="219.773" y="548.6" type="curve" smooth="yes"/>
      <point x="191.432" y="548.6"/>
      <point x="155.87199999999999" y="538.267"/>
      <point x="131.383" y="524.216" type="curve"/>
      <point x="131.383" y="740.0" type="line"/>
      <point x="39.315" y="740.0" type="line"/>
    </contour>
    <contour>
      <point x="176.66400000000002" y="64.089" type="curve" smooth="yes"/>
      <point x="164.181" y="64.089"/>
      <point x="151.75199999999998" y="66.23"/>
      <point x="131.72699999999998" y="71.595" type="curve"/>
      <point x="131.72699999999998" y="447.012" type="line"/>
      <point x="153.48100000000002" y="459.08099999999996"/>
      <point x="168.914" y="463.377"/>
      <point x="188.429" y="463.377" type="curve" smooth="yes"/>
      <point x="236.50900000000001" y="463.377"/>
      <point x="260.29099999999994" y="405.617"/>
      <point x="260.29099999999994" y="273.739" type="curve" smooth="yes"/>
      <point x="260.29099999999994" y="112.06499999999998"/>
      <point x="238.302" y="64.089"/>
    </contour>
  </outline>
</glyph>
<glyph name="Dcroat" format="2">
  <advance width="434.2595"/>
  <unicode hex="0110"/>
  <outline>
    <contour>
      <point x="3.1350000000000002" y="314.31" type="line"/>
      <point x="222.0435" y="314.31" type="line"/>
      <point x="222.0435" y="396.9825" type="line"/>
      <point x="3.1350000000000002" y="396.9825" type="line"/>
    </contour>
    <component base="D" xOffset="3.7845"/>
  </outline>
</glyph>
<glyph name="dcroat" format="2">
  <advance width="384.76250000000005"/>
  <unicode hex="0111"/>
  <outline>
    <contour>
      <point x="154.254" y="611.4425" type="line"/>
      <point x="389.4645" y="611.4425" type="line"/>
      <point x="389.4645" y="668.7875" type="line"/>
      <point x="154.254" y="668.7875" type="line"/>
    </contour>
    <component base="d"/>
  </outline>
</glyph>
<glyph name="Hbar" format="2">
  <advance width="442.66900000000004"/>
  <unicode hex="0126"/>
  <outline>
    <contour>
      <point x="9.02" y="501.58500000000004" type="line"/>
      <point x="41.935" y="501.58500000000004" type="line"/>
      <point x="41.935" y="0.0" type="line"/>
      <point x="134.82000000000002" y="0.0" type="line"/>
      <point x="134.82000000000002" y="263.165" type="line"/>
      <point x="308.279" y="263.165" type="line"/>
      <point x="308.279" y="0.0" type="line"/>
      <point x="400.734" y="0.0" type="line"/>
      <point x="400.734" y="501.58500000000004" type="line"/>
      <point x="433.649" y="501.58500000000004" type="line"/>
      <point x="433.649" y="575.4730000000001" type="line"/>
      <point x="400.734" y="575.4730000000001" type="line"/>
      <point x="400.734" y="700.0" type="line"/>
      <point x="308.279" y="700.0" type="line"/>
      <point x="308.279" y="575.4730000000001" type="line"/>
      <point x="134.82000000000002" y="575.4730000000001" type="line"/>
      <point x="134.82000000000002" y="700.0" type="line"/>
      <point x="41.935" y="700.0" type="line"/>
      <point x="41.935" y="575.4730000000001" type="line"/>
      <point x="9.02" y="575.4730000000001" type="line"/>
    </contour>
    <contour>
      <point x="134.82000000000002" y="355.96700000000004" type="line"/>
      <point x="134.82000000000002" y="501.58500000000004" type="line"/>
      <point x="308.279" y="501.58500000000004" type="line"/>
      <point x="308.279" y="355.96700000000004" type="line"/>
    </contour>
  </outline>
</glyph>
<glyph name="hbar" format="2">
  <advance width="384.3354999999999"/>
  <unicode hex="0127"/>
  <outline>
    <contour>
      <point x="-2.7485" y="611.4425" type="line"/>
      <point x="227.81950000000003" y="611.4425" type="line"/>
      <point x="227.81950000000003" y="668.7875" type="line"/>
      <point x="-2.7485" y="668.7875" type="line"/>
    </contour>
    <component base="h"/>
  </outline>
</glyph>
<glyph name="Idotaccent" format="2">
  <advance width="176.669"/>
  <unicode hex="0130"/>
  <outline>
    <contour>
      <point x="88.915" y="770.913" type="curve" smooth="yes"/>
      <point x="127.36699999999999" y="770.913"/>
      <point x="142.732" y="787.436"/>
      <point x="142.732" y="827.903" type="curve" smooth="yes"/>
      <point x="142.732" y="869.144"/>
      <point x="126.593" y="885.2800000000001"/>
      <point x="88.915" y="885.2800000000001" type="curve" smooth="yes"/>
      <point x="50.85" y="885.2800000000001"/>
      <point x="34.711" y="869.144"/>
      <point x="34.711" y="827.903" type="curve" smooth="yes"/>
      <point x="34.711" y="787.0490000000001"/>
      <point x="51.42" y="770.913"/>
    </contour>
    <component base="I"/>
  </outline>
</glyph>
<glyph name="dotlessi" format="2">
  <advance width="171.816"/>
  <unicode hex="0131"/>
  <anchor x="129.606" y="4.3" name="ogonek"/>
  <anchor x="86.682" y="0.0" name="bottom"/>
  <anchor x="85.908" y="538.6" name="top"/>
  <outline>
    <contour>
      <point x="39.315" y="0.0" type="line"/>
      <point x="132.501" y="0.0" type="line"/>
      <point x="132.501" y="538.6" type="line"/>
      <point x="39.315" y="538.6" type="line"/>
    </contour>
  </outline>
</glyph>
<glyph name="kgreenlandic" format="2">
  <advance width="361.61"/>
  <unicode hex="0138"/>
  <anchor x="186.89" y="538.6" name="top"/>
  <anchor x="186.89" y="0.0" name="bottom"/>
  <outline>
    <contour>
      <point x="333.64" y="-8.004999999999999" type="curve" smooth="yes"/>
      <point x="343.69" y="-8.004999999999999"/>
      <point x="353.13" y="-6.865"/>
      <point x="362.32500000000005" y="-4.255" type="curve"/>
      <point x="360.935" y="96.05" type="line"/>
      <point x="357.115" y="95.91"/>
      <point x="352.76" y="94.91"/>
      <point x="349.44" y="94.91" type="curve" smooth="yes"/>
      <point x="326.245" y="94.91"/>
      <point x="309.47499999999997" y="109.0"/>
      <point x="242.48499999999999" y="210.06499999999997" type="curve" smooth="yes"/>
      <point x="127.03999999999999" y="384.42" type="line"/>
      <point x="127.03999999999999" y="538.6" type="line"/>
      <point x="39.53" y="538.6" type="line"/>
      <point x="39.53" y="0.0" type="line"/>
      <point x="127.03999999999999" y="0.0" type="line"/>
      <point x="127.03999999999999" y="233.76" type="line"/>
      <point x="215.76" y="99.21" type="line" smooth="yes"/>
      <point x="277.535" y="5.4399999999999995"/>
      <point x="296.64" y="-8.004999999999999"/>
    </contour>
    <contour>
      <point x="195.97" y="229.29000000000002" type="line"/>
      <point x="259.64500000000004" y="314.945"/>
      <point x="328.09499999999997" y="418.80499999999995"/>
      <point x="348.64" y="534.37" type="curve"/>
      <point x="258.22" y="542.5150000000001" type="line"/>
      <point x="240.795" y="427.435"/>
      <point x="191.825" y="358.97499999999997"/>
      <point x="134.945" y="285.845" type="curve"/>
    </contour>
  </outline>
</glyph>
<glyph name="Ldot" format="2">
  <advance width="331.28999999999996"/>
  <unicode hex="013F"/>
  <outline>
    <contour>
      <point x="216.072" y="377.077" type="curve" smooth="yes"/>
      <point x="216.072" y="345.38199999999995"/>
      <point x="225.60000000000002" y="333.46"/>
      <point x="254.065" y="333.46" type="curve" smooth="yes"/>
      <point x="283.48699999999997" y="333.46"/>
      <point x="292.445" y="345.38199999999995"/>
      <point x="292.445" y="377.077" type="curve" smooth="yes"/>
      <point x="292.445" y="409.202"/>
      <point x="283.48699999999997" y="421.12399999999997"/>
      <point x="254.065" y="421.12399999999997" type="curve" smooth="yes"/>
      <point x="225.03" y="421.12399999999997"/>
      <point x="216.072" y="409.202"/>
    </contour>
    <component base="L"/>
  </outline>
</glyph>
<glyph name="ldot" format="2">
  <advance width="252.565"/>
  <unicode hex="0140"/>
  <outline>
    <contour>
      <point x="211.97000000000003" y="324.377" type="curve" smooth="yes"/>
      <point x="236.92" y="324.377"/>
      <point x="247.21099999999998" y="335.00899999999996"/>
      <point x="247.21099999999998" y="367.306" type="curve" smooth="yes"/>
      <point x="247.21099999999998" y="399.98999999999995"/>
      <point x="236.92" y="410.62199999999996"/>
      <point x="211.97000000000003" y="410.62199999999996" type="curve" smooth="yes"/>
      <point x="187.40699999999998" y="410.62199999999996"/>
      <point x="177.116" y="399.98999999999995"/>
      <point x="177.116" y="367.306" type="curve" smooth="yes"/>
      <point x="177.116" y="335.00899999999996"/>
      <point x="187.977" y="324.377"/>
    </contour>
    <component base="l"/>
  </outline>
</glyph>
<glyph name="Lslash" format="2">
  <advance width="350.181"/>
  <unicode hex="0141"/>
  <outline>
    <contour>
      <point x="16.029999999999998" y="207.50500000000002" type="line"/>
      <point x="60.783" y="242.625" type="line"/>
      <point x="60.783" y="0.0" type="line"/>
      <point x="341.101" y="0.0" type="line"/>
      <point x="341.101" y="90.093" type="line"/>
      <point x="154.055" y="90.093" type="line"/>
      <point x="154.055" y="293.551" type="line"/>
      <point x="283.409" y="391.045" type="line"/>
      <point x="283.409" y="482.893" type="line"/>
      <point x="154.055" y="385.91200000000003" type="line"/>
      <point x="154.055" y="700.0" type="line"/>
      <point x="60.783" y="700.0" type="line"/>
      <point x="60.783" y="334.98600000000005" type="line"/>
      <point x="16.029999999999998" y="299.86600000000004" type="line"/>
    </contour>
  </outline>
</glyph>
<glyph name="lslash" format="2">
  <advance width="214.639"/>
  <unicode hex="0142"/>
  <outline>
    <contour>
      <point x="143.75199999999998" y="-10.0" type="curve" smooth="yes"/>
      <point x="168.17900000000003" y="-10.0"/>
      <point x="192.569" y="-2.4979999999999998"/>
      <point x="209.967" y="6.013" type="curve"/>
      <point x="202.355" y="92.537" type="line"/>
      <point x="188.922" y="88.799"/>
      <point x="178.839" y="87.228"/>
      <point x="171.01399999999998" y="87.228" type="curve" smooth="yes"/>
      <point x="150.361" y="87.228"/>
      <point x="136.80100000000002" y="98.11899999999999"/>
      <point x="136.80100000000002" y="165.868" type="curve" smooth="yes"/>
      <point x="136.80100000000002" y="309.755" type="line"/>
      <point x="204.18" y="370.988" type="line"/>
      <point x="204.18" y="452.83000000000004" type="line"/>
      <point x="136.80100000000002" y="391.597" type="line"/>
      <point x="136.80100000000002" y="740.0" type="line"/>
      <point x="44.776" y="740.0" type="line"/>
      <point x="44.776" y="315.227" type="line"/>
      <point x="3.0689999999999995" y="277.358" type="line"/>
      <point x="3.0689999999999995" y="196.029" type="line"/>
      <point x="44.862" y="233.428" type="line"/>
      <point x="44.948" y="144.024" type="line" smooth="yes"/>
      <point x="45.679" y="23.381"/>
      <point x="77.72500000000001" y="-10.0"/>
    </contour>
  </outline>
</glyph>
<glyph name="Eng" format="2">
  <advance width="443.995"/>
  <unicode hex="014A"/>
  <outline>
    <contour>
      <point x="41.9275" y="0.0" type="line"/>
      <point x="125.245" y="0.0" type="line"/>
      <point x="125.245" y="487.64250000000004" type="line"/>
      <point x="311.97749999999996" y="1.2000000000000004" type="line"/>
      <point x="311.97749999999996" y="-10.205" type="line" smooth="yes"/>
      <point x="311.69249999999994" y="-59.32749999999999"/>
      <point x="285.83500000000004" y="-79.515"/>
      <point x="238.6175" y="-79.515" type="curve" smooth="yes"/>
      <point x="227.11" y="-79.515"/>
      <point x="214.105" y="-78.58749999999999"/>
      <point x="199.9775" y="-74.00500000000001" type="curve"/>
      <point x="185.0725" y="-157.075" type="line"/>
      <point x="203.715" y="-165.7775"/>
      <point x="226.645" y="-172.8325"/>
      <point x="257.86" y="-172.8325" type="curve" smooth="yes"/>
      <point x="359.04999999999995" y="-172.8325"/>
      <point x="402.0675" y="-113.025"/>
      <point x="402.0675" y="-12.365" type="curve" smooth="yes"/>
      <point x="402.0675" y="700.0" type="line"/>
      <point x="318.96500000000003" y="700.0" type="line"/>
      <point x="318.96500000000003" y="202.45749999999998" type="line"/>
      <point x="136.5375" y="700.57" type="line"/>
      <point x="41.9275" y="700.57" type="line"/>
    </contour>
  </outline>
</glyph>
<glyph name="eng" format="2">
  <advance width="384.529"/>
  <unicode hex="014B"/>
  <outline>
    <contour>
      <point x="345.988" y="17.299999999999997" type="curve"/>
      <point x="345.988" y="429.712" type="line" smooth="yes"/>
      <point x="345.988" y="508.292"/>
      <point x="307.01800000000003" y="548.6"/>
      <point x="241.359" y="548.6" type="curve" smooth="yes"/>
      <point x="198.01700000000002" y="548.6"/>
      <point x="158.46900000000002" y="533.6239999999999"/>
      <point x="123.815" y="509.66100000000006" type="curve"/>
      <point x="123.815" y="538.6" type="line"/>
      <point x="39.315" y="538.6" type="line"/>
      <point x="39.315" y="0.0" type="line"/>
      <point x="131.72699999999998" y="0.0" type="line"/>
      <point x="131.72699999999998" y="438.996" type="line"/>
      <point x="152.25199999999998" y="452.116"/>
      <point x="178.036" y="462.202"/>
      <point x="201.13200000000003" y="462.202" type="curve" smooth="yes"/>
      <point x="236.172" y="462.202"/>
      <point x="253.576" y="441.08000000000004"/>
      <point x="253.576" y="401.848" type="curve" smooth="yes"/>
      <point x="253.576" y="14.922" type="line" smooth="yes"/>
      <point x="253.576" y="-50.532"/>
      <point x="240.21200000000002" y="-90.282"/>
      <point x="215.37699999999998" y="-108.52199999999999" type="curve" smooth="yes"/>
      <point x="210.52200000000002" y="-111.42900000000002"/>
      <point x="204.334" y="-113.293"/>
      <point x="199.124" y="-114.58699999999999" type="curve"/>
      <point x="200.398" y="-210.463" type="line"/>
      <point x="213.743" y="-209.86300000000003"/>
      <point x="227.26299999999998" y="-207.34600000000003"/>
      <point x="242.518" y="-203.92600000000002" type="curve" smooth="yes"/>
      <point x="308.003" y="-182.95"/>
      <point x="345.988" y="-106.899"/>
    </contour>
  </outline>
</glyph>
<glyph name="OE" format="2">
  <advance width="615.4329999999999"/>
  <unicode hex="0152"/>
  <outline>
    <contour>
      <point x="600.2974999999999" y="0.0" type="line"/>
      <point x="600.2974999999999" y="90.735" type="line"/>
      <point x="389.09900000000005" y="90.735" type="line"/>
      <point x="389.09900000000005" y="314.25750000000005" type="line"/>
      <point x="568.236" y="314.25750000000005" type="line"/>
      <point x="568.236" y="401.5525" type="line"/>
      <point x="389.09900000000005" y="401.5525" type="line"/>
      <point x="389.09900000000005" y="607.8675" type="line"/>
      <point x="587.9889999999999" y="607.8675" type="line"/>
      <point x="587.9889999999999" y="700.0" type="line"/>
      <point x="369.42650000000003" y="700.0" type="line"/>
      <point x="327.013" y="705.0564999999999"/>
      <point x="283.077" y="706.879"/>
      <point x="241.2715" y="706.879" type="curve" smooth="yes"/>
      <point x="97.436" y="706.879"/>
      <point x="24.703499999999995" y="625.923"/>
      <point x="24.703499999999995" y="352.23400000000004" type="curve" smooth="yes"/>
      <point x="24.703499999999995" y="66.93100000000001"/>
      <point x="103.2045" y="-7.991"/>
      <point x="239.2665" y="-7.991" type="curve" smooth="yes"/>
      <point x="282.16150000000005" y="-7.991"/>
      <point x="332.83349999999996" y="-6.0425"/>
      <point x="388.77650000000006" y="0.0" type="curve"/>
    </contour>
    <contour>
      <point x="295.569" y="81.09350000000002" type="line"/>
      <point x="280.12149999999997" y="79.09350000000002"/>
      <point x="257.59499999999997" y="77.24300000000001"/>
      <point x="237.8575" y="77.24300000000001" type="curve" smooth="yes"/>
      <point x="165.0745" y="77.24300000000001"/>
      <point x="121.49100000000001" y="125.66350000000001"/>
      <point x="121.49100000000001" y="350.5" type="curve" smooth="yes"/>
      <point x="121.49100000000001" y="577.9675"/>
      <point x="165.05999999999997" y="621.6635"/>
      <point x="239.48350000000002" y="621.6635" type="curve" smooth="yes"/>
      <point x="255.4415" y="621.6635"/>
      <point x="278.9335" y="619.5699999999999"/>
      <point x="295.569" y="617.598" type="curve"/>
    </contour>
  </outline>
</glyph>
